STARTFONT 2.1
FONT -18bold--18-180-75-75
SIZE 18 75 75
FONTBOUNDINGBOX 18 18 0 -3
STARTPROPERTIES 8
FONT_NAME "18bold"
FONT_ASCENT 15
FONT_DESCENT 3
PIXEL_SIZE 18
POINT_SIZE 180
RESOLUTION_X 75
RESOLUTION_Y 75
RESOLUTION 75
ENDPROPERTIES
COMMENT "Index 0: Orig-File: 'Base/UbuntuMono-B.ttf' Family: 'Ubuntu Mono'"
COMMENT "Index 1: Orig-File: 'CJK/fireflysung-1.3.0.ttf' Family: 'AR PL New Sung'"
COMMENT "Index 2: Orig-File: 'CJK/odosung-1.4.2.ttc' Family: 'AR PL New Sung'"
CHARS 15986
STARTCHAR uni0020
COMMENT "Index: 0 Size: 20"
ENCODING 32
SWIDTH 500 0
DWIDTH 6 0
BBX 4 0 0 0
BITMAP
ENDCHAR
STARTCHAR uni0021
COMMENT "Index: 0 Size: 20"
ENCODING 33
SWIDTH 500 0
DWIDTH 6 0
BBX 2 12 0 0
BITMAP
C0
C0
C0
C0
C0
C0
C0
C0
C0
00
C0
C0
ENDCHAR
STARTCHAR uni0022
COMMENT "Index: 0 Size: 20"
ENCODING 34
SWIDTH 500 0
DWIDTH 6 0
BBX 5 6 0 8
BITMAP
D8
D8
D8
D8
D8
D8
ENDCHAR
STARTCHAR uni0023
COMMENT "Index: 0 Size: 20"
ENCODING 35
SWIDTH 500 0
DWIDTH 6 0
BBX 10 12 0 0
BITMAP
1980
1980
1980
FFC0
FFC0
3300
3300
FFC0
FFC0
6600
6600
6600
ENDCHAR
STARTCHAR uni0024
COMMENT "Index: 0 Size: 20"
ENCODING 36
SWIDTH 500 0
DWIDTH 6 0
BBX 8 16 0 -2
BITMAP
18
18
3F
7F
C0
C0
E0
7C
3E
07
03
03
FE
7C
18
18
ENDCHAR
STARTCHAR uni0025
COMMENT "Index: 0 Size: 20"
ENCODING 37
SWIDTH 500 0
DWIDTH 6 0
BBX 10 12 0 0
BITMAP
6180
F300
F300
9600
FC00
6C00
1980
1BC0
3240
63C0
63C0
C180
ENDCHAR
STARTCHAR uni0026
COMMENT "Index: 0 Size: 20"
ENCODING 38
SWIDTH 500 0
DWIDTH 6 0
BBX 9 12 0 0
BITMAP
3C00
7E00
6600
6600
7C00
3980
7D80
CF80
C700
C700
7F80
3E80
ENDCHAR
STARTCHAR uni0027
COMMENT "Index: 0 Size: 20"
ENCODING 39
SWIDTH 500 0
DWIDTH 6 0
BBX 2 6 0 8
BITMAP
C0
C0
C0
C0
C0
C0
ENDCHAR
STARTCHAR uni0028
COMMENT "Index: 0 Size: 20"
ENCODING 40
SWIDTH 500 0
DWIDTH 6 0
BBX 6 17 0 -3
BITMAP
08
1C
38
70
60
E0
C0
C0
C0
C0
C0
C0
60
70
30
1C
08
ENDCHAR
STARTCHAR uni0029
COMMENT "Index: 0 Size: 20"
ENCODING 41
SWIDTH 500 0
DWIDTH 6 0
BBX 6 17 0 -3
BITMAP
40
E0
70
38
18
1C
0C
0C
0C
0C
0C
0C
18
18
30
E0
40
ENDCHAR
STARTCHAR uni002A
COMMENT "Index: 0 Size: 20"
ENCODING 42
SWIDTH 500 0
DWIDTH 6 0
BBX 9 8 0 4
BITMAP
1C00
5D00
EB80
7F00
1C00
3600
7700
2200
ENDCHAR
STARTCHAR uni002B
COMMENT "Index: 0 Size: 20"
ENCODING 43
SWIDTH 500 0
DWIDTH 6 0
BBX 8 8 0 1
BITMAP
18
18
18
FF
FF
18
18
18
ENDCHAR
STARTCHAR uni002C
COMMENT "Index: 0 Size: 20"
ENCODING 44
SWIDTH 500 0
DWIDTH 6 0
BBX 4 7 0 -3
BITMAP
60
F0
F0
70
30
E0
C0
ENDCHAR
STARTCHAR uni002D
COMMENT "Index: 0 Size: 20"
ENCODING 45
SWIDTH 500 0
DWIDTH 6 0
BBX 5 2 0 4
BITMAP
F8
F8
ENDCHAR
STARTCHAR uni002E
COMMENT "Index: 0 Size: 20"
ENCODING 46
SWIDTH 500 0
DWIDTH 6 0
BBX 4 4 0 0
BITMAP
60
F0
F0
60
ENDCHAR
STARTCHAR uni002F
COMMENT "Index: 0 Size: 20"
ENCODING 47
SWIDTH 500 0
DWIDTH 6 0
BBX 8 17 0 -3
BITMAP
03
06
06
06
0C
0C
0C
18
18
18
30
30
30
60
60
E0
C0
ENDCHAR
STARTCHAR uni0030
COMMENT "Index: 0 Size: 20"
ENCODING 48
SWIDTH 500 0
DWIDTH 6 0
BBX 8 12 0 0
BITMAP
3C
7E
66
C3
C3
DB
DB
C3
C3
66
7E
3C
ENDCHAR
STARTCHAR uni0031
COMMENT "Index: 0 Size: 20"
ENCODING 49
SWIDTH 500 0
DWIDTH 6 0
BBX 7 12 0 0
BITMAP
18
38
F8
F8
18
18
18
18
18
18
FE
FE
ENDCHAR
STARTCHAR uni0032
COMMENT "Index: 0 Size: 20"
ENCODING 50
SWIDTH 500 0
DWIDTH 6 0
BBX 8 12 0 0
BITMAP
78
FE
46
06
06
0C
18
30
60
C0
FF
FF
ENDCHAR
STARTCHAR uni0033
COMMENT "Index: 0 Size: 20"
ENCODING 51
SWIDTH 500 0
DWIDTH 6 0
BBX 8 12 0 0
BITMAP
7C
FE
43
03
07
3E
3E
07
03
83
FE
FC
ENDCHAR
STARTCHAR uni0034
COMMENT "Index: 0 Size: 20"
ENCODING 52
SWIDTH 500 0
DWIDTH 6 0
BBX 8 12 0 0
BITMAP
06
0E
1E
3E
36
66
E6
FF
FF
06
06
06
ENDCHAR
STARTCHAR uni0035
COMMENT "Index: 0 Size: 20"
ENCODING 53
SWIDTH 500 0
DWIDTH 6 0
BBX 8 12 0 0
BITMAP
7F
7F
60
60
78
7E
07
03
03
07
FE
FC
ENDCHAR
STARTCHAR uni0036
COMMENT "Index: 0 Size: 20"
ENCODING 54
SWIDTH 500 0
DWIDTH 6 0
BBX 8 12 0 0
BITMAP
0E
3E
70
60
F8
FE
C7
C3
C3
E7
7E
3C
ENDCHAR
STARTCHAR uni0037
COMMENT "Index: 0 Size: 20"
ENCODING 55
SWIDTH 500 0
DWIDTH 6 0
BBX 7 12 0 0
BITMAP
FE
FE
06
0C
18
18
10
30
30
60
60
60
ENDCHAR
STARTCHAR uni0038
COMMENT "Index: 0 Size: 20"
ENCODING 56
SWIDTH 500 0
DWIDTH 6 0
BBX 8 12 0 0
BITMAP
3C
7F
E3
E3
E3
7E
7E
E7
C3
C3
FF
3C
ENDCHAR
STARTCHAR uni0039
COMMENT "Index: 0 Size: 20"
ENCODING 57
SWIDTH 500 0
DWIDTH 6 0
BBX 8 12 0 0
BITMAP
3C
7E
E7
C3
C3
E3
7F
1F
06
0E
7C
70
ENDCHAR
STARTCHAR uni003A
COMMENT "Index: 0 Size: 20"
ENCODING 58
SWIDTH 500 0
DWIDTH 6 0
BBX 4 10 0 0
BITMAP
60
F0
F0
60
00
00
60
F0
F0
60
ENDCHAR
STARTCHAR uni003B
COMMENT "Index: 0 Size: 20"
ENCODING 59
SWIDTH 500 0
DWIDTH 6 0
BBX 4 13 0 -3
BITMAP
60
F0
F0
60
00
00
E0
F0
F0
70
60
E0
C0
ENDCHAR
STARTCHAR uni003C
COMMENT "Index: 0 Size: 20"
ENCODING 60
SWIDTH 500 0
DWIDTH 6 0
BBX 8 8 0 1
BITMAP
03
0F
7E
F0
F0
7E
0F
03
ENDCHAR
STARTCHAR uni003D
COMMENT "Index: 0 Size: 20"
ENCODING 61
SWIDTH 500 0
DWIDTH 6 0
BBX 8 6 0 2
BITMAP
FF
FF
00
00
FF
FF
ENDCHAR
STARTCHAR uni003E
COMMENT "Index: 0 Size: 20"
ENCODING 62
SWIDTH 500 0
DWIDTH 6 0
BBX 8 8 0 1
BITMAP
40
F0
7E
0F
0F
7E
F0
40
ENDCHAR
STARTCHAR uni003F
COMMENT "Index: 0 Size: 20"
ENCODING 63
SWIDTH 500 0
DWIDTH 6 0
BBX 8 12 0 0
BITMAP
7C
FE
07
07
07
0E
1E
1C
18
00
30
30
ENDCHAR
STARTCHAR uni0040
COMMENT "Index: 0 Size: 20"
ENCODING 64
SWIDTH 500 0
DWIDTH 6 0
BBX 9 15 0 -3
BITMAP
1E00
3F00
7180
6180
CF80
DF80
D980
D980
D980
D980
CF80
6780
7000
3F80
1F80
ENDCHAR
STARTCHAR uni0041
COMMENT "Index: 0 Size: 20"
ENCODING 65
SWIDTH 500 0
DWIDTH 6 0
BBX 10 12 0 0
BITMAP
0E00
1E00
1E00
1F00
3300
3300
3380
7F80
7F80
6180
E1C0
E1C0
ENDCHAR
STARTCHAR uni0042
COMMENT "Index: 0 Size: 20"
ENCODING 66
SWIDTH 500 0
DWIDTH 6 0
BBX 8 12 0 0
BITMAP
F8
FE
C6
C6
C6
FC
FE
C3
C3
C3
FE
FC
ENDCHAR
STARTCHAR uni0043
COMMENT "Index: 0 Size: 20"
ENCODING 67
SWIDTH 500 0
DWIDTH 6 0
BBX 8 12 0 0
BITMAP
1E
3F
61
C0
C0
C0
C0
C0
C0
61
7F
1E
ENDCHAR
STARTCHAR uni0044
COMMENT "Index: 0 Size: 20"
ENCODING 68
SWIDTH 500 0
DWIDTH 6 0
BBX 8 12 0 0
BITMAP
F8
FE
C6
C3
C3
C3
C3
C3
C7
C6
FE
F8
ENDCHAR
STARTCHAR uni0045
COMMENT "Index: 0 Size: 20"
ENCODING 69
SWIDTH 500 0
DWIDTH 6 0
BBX 8 12 0 0
BITMAP
FF
FF
C0
C0
C0
FE
FE
C0
C0
C0
FF
FF
ENDCHAR
STARTCHAR uni0046
COMMENT "Index: 0 Size: 20"
ENCODING 70
SWIDTH 500 0
DWIDTH 6 0
BBX 8 12 0 0
BITMAP
FF
FF
C0
C0
C0
FE
FE
C0
C0
C0
C0
C0
ENDCHAR
STARTCHAR uni0047
COMMENT "Index: 0 Size: 20"
ENCODING 71
SWIDTH 500 0
DWIDTH 6 0
BBX 8 12 0 0
BITMAP
1F
7F
61
C0
C0
C0
C3
C3
C3
63
7F
3F
ENDCHAR
STARTCHAR uni0048
COMMENT "Index: 0 Size: 20"
ENCODING 72
SWIDTH 500 0
DWIDTH 6 0
BBX 8 12 0 0
BITMAP
C3
C3
C3
C3
C3
FF
FF
C3
C3
C3
C3
C3
ENDCHAR
STARTCHAR uni0049
COMMENT "Index: 0 Size: 20"
ENCODING 73
SWIDTH 500 0
DWIDTH 6 0
BBX 8 12 0 0
BITMAP
FF
FF
18
18
18
18
18
18
18
18
FF
FF
ENDCHAR
STARTCHAR uni004A
COMMENT "Index: 0 Size: 20"
ENCODING 74
SWIDTH 500 0
DWIDTH 6 0
BBX 8 12 0 0
BITMAP
3F
3F
03
03
03
03
03
03
03
47
FE
7C
ENDCHAR
STARTCHAR uni004B
COMMENT "Index: 0 Size: 20"
ENCODING 75
SWIDTH 500 0
DWIDTH 6 0
BBX 9 12 0 0
BITMAP
C180
C300
C600
CC00
D800
F000
F800
DC00
CE00
C700
C300
C180
ENDCHAR
STARTCHAR uni004C
COMMENT "Index: 0 Size: 20"
ENCODING 76
SWIDTH 500 0
DWIDTH 6 0
BBX 8 12 0 0
BITMAP
C0
C0
C0
C0
C0
C0
C0
C0
C0
C0
FF
FF
ENDCHAR
STARTCHAR uni004D
COMMENT "Index: 0 Size: 20"
ENCODING 77
SWIDTH 500 0
DWIDTH 6 0
BBX 9 12 0 0
BITMAP
6300
6300
F700
F700
D580
DD80
DD80
DD80
C180
C180
C180
C180
ENDCHAR
STARTCHAR uni004E
COMMENT "Index: 0 Size: 20"
ENCODING 78
SWIDTH 500 0
DWIDTH 6 0
BBX 8 12 0 0
BITMAP
C3
E3
E3
F3
FB
DB
DF
CF
C7
C7
C3
C3
ENDCHAR
STARTCHAR uni004F
COMMENT "Index: 0 Size: 20"
ENCODING 79
SWIDTH 500 0
DWIDTH 6 0
BBX 8 12 0 0
BITMAP
3C
7E
66
C3
C3
C3
C3
C3
C3
66
7E
3C
ENDCHAR
STARTCHAR uni0050
COMMENT "Index: 0 Size: 20"
ENCODING 80
SWIDTH 500 0
DWIDTH 6 0
BBX 8 12 0 0
BITMAP
FC
FE
C7
C3
C3
C7
FE
FC
C0
C0
C0
C0
ENDCHAR
STARTCHAR uni0051
COMMENT "Index: 0 Size: 20"
ENCODING 81
SWIDTH 500 0
DWIDTH 6 0
BBX 8 15 0 -3
BITMAP
3C
7E
66
C3
C3
C3
C3
C3
C3
66
7E
3C
18
0F
07
ENDCHAR
STARTCHAR uni0052
COMMENT "Index: 0 Size: 20"
ENCODING 82
SWIDTH 500 0
DWIDTH 6 0
BBX 8 12 0 0
BITMAP
FC
FE
C7
C3
C3
C7
FE
F8
CC
C6
C6
C3
ENDCHAR
STARTCHAR uni0053
COMMENT "Index: 0 Size: 20"
ENCODING 83
SWIDTH 500 0
DWIDTH 6 0
BBX 8 12 0 0
BITMAP
3E
7F
C2
C0
E0
7C
1E
07
03
43
FE
7C
ENDCHAR
STARTCHAR uni0054
COMMENT "Index: 0 Size: 20"
ENCODING 84
SWIDTH 500 0
DWIDTH 6 0
BBX 8 12 0 0
BITMAP
FF
FF
18
18
18
18
18
18
18
18
18
18
ENDCHAR
STARTCHAR uni0055
COMMENT "Index: 0 Size: 20"
ENCODING 85
SWIDTH 500 0
DWIDTH 6 0
BBX 8 12 0 0
BITMAP
C3
C3
C3
C3
C3
C3
C3
C3
C3
C3
7E
3C
ENDCHAR
STARTCHAR uni0056
COMMENT "Index: 0 Size: 20"
ENCODING 86
SWIDTH 500 0
DWIDTH 6 0
BBX 9 12 0 0
BITMAP
E380
E380
6300
6300
6300
6300
3600
3600
3600
3600
1C00
1C00
ENDCHAR
STARTCHAR uni0057
COMMENT "Index: 0 Size: 20"
ENCODING 87
SWIDTH 500 0
DWIDTH 6 0
BBX 9 12 0 0
BITMAP
C180
C180
C180
C180
C980
DD80
DD80
D580
F780
F780
6300
6300
ENDCHAR
STARTCHAR uni0058
COMMENT "Index: 0 Size: 20"
ENCODING 88
SWIDTH 500 0
DWIDTH 6 0
BBX 10 12 0 0
BITMAP
E1C0
7380
3300
3F00
1E00
1E00
1E00
3F00
3300
7380
6180
E1C0
ENDCHAR
STARTCHAR uni0059
COMMENT "Index: 0 Size: 20"
ENCODING 89
SWIDTH 500 0
DWIDTH 6 0
BBX 10 12 0 0
BITMAP
E1C0
6180
7380
3300
3300
1E00
1E00
0C00
0C00
0C00
0C00
0C00
ENDCHAR
STARTCHAR uni005A
COMMENT "Index: 0 Size: 20"
ENCODING 90
SWIDTH 500 0
DWIDTH 6 0
BBX 8 12 0 0
BITMAP
FF
FF
07
0E
1C
1C
38
30
70
60
FF
FF
ENDCHAR
STARTCHAR uni005B
COMMENT "Index: 0 Size: 20"
ENCODING 91
SWIDTH 500 0
DWIDTH 6 0
BBX 6 17 0 -3
BITMAP
FC
FC
C0
C0
C0
C0
C0
C0
C0
C0
C0
C0
C0
C0
C0
FC
FC
ENDCHAR
STARTCHAR uni005C
COMMENT "Index: 0 Size: 20"
ENCODING 92
SWIDTH 500 0
DWIDTH 6 0
BBX 8 17 0 -3
BITMAP
C0
60
60
60
30
30
30
18
18
18
0C
0C
0C
06
06
06
03
ENDCHAR
STARTCHAR uni005D
COMMENT "Index: 0 Size: 20"
ENCODING 93
SWIDTH 500 0
DWIDTH 6 0
BBX 6 17 0 -3
BITMAP
FC
FC
0C
0C
0C
0C
0C
0C
0C
0C
0C
0C
0C
0C
0C
FC
FC
ENDCHAR
STARTCHAR uni005E
COMMENT "Index: 0 Size: 20"
ENCODING 94
SWIDTH 500 0
DWIDTH 6 0
BBX 10 6 0 6
BITMAP
0C00
1E00
3F00
7380
6180
6180
ENDCHAR
STARTCHAR uni005F
COMMENT "Index: 0 Size: 20"
ENCODING 95
SWIDTH 500 0
DWIDTH 6 0
BBX 10 2 0 -3
BITMAP
FFC0
FFC0
ENDCHAR
STARTCHAR uni0060
COMMENT "Index: 0 Size: 20"
ENCODING 96
SWIDTH 500 0
DWIDTH 6 0
BBX 4 4 0 10
BITMAP
40
E0
70
20
ENDCHAR
STARTCHAR uni0061
COMMENT "Index: 0 Size: 20"
ENCODING 97
SWIDTH 500 0
DWIDTH 6 0
BBX 8 9 0 0
BITMAP
7E
7F
03
3F
FF
C3
C3
FF
7F
ENDCHAR
STARTCHAR uni0062
COMMENT "Index: 0 Size: 20"
ENCODING 98
SWIDTH 500 0
DWIDTH 6 0
BBX 8 14 0 0
BITMAP
C0
C0
C0
C0
C0
FC
FE
C7
C3
C3
C3
C7
FE
FC
ENDCHAR
STARTCHAR uni0063
COMMENT "Index: 0 Size: 20"
ENCODING 99
SWIDTH 500 0
DWIDTH 6 0
BBX 8 9 0 0
BITMAP
1F
7F
E0
C0
C0
C0
E0
7F
3F
ENDCHAR
STARTCHAR uni0064
COMMENT "Index: 0 Size: 20"
ENCODING 100
SWIDTH 500 0
DWIDTH 6 0
BBX 8 14 0 0
BITMAP
03
03
03
03
03
3F
7F
E3
C3
C3
C3
E3
7F
3F
ENDCHAR
STARTCHAR uni0065
COMMENT "Index: 0 Size: 20"
ENCODING 101
SWIDTH 500 0
DWIDTH 6 0
BBX 8 9 0 0
BITMAP
3C
7E
E7
C3
FF
FF
C0
7E
3E
ENDCHAR
STARTCHAR uni0066
COMMENT "Index: 0 Size: 20"
ENCODING 102
SWIDTH 500 0
DWIDTH 6 0
BBX 9 14 0 0
BITMAP
0F80
1F80
3000
3000
3000
FF00
FF00
3000
3000
3000
3000
3000
3000
3000
ENDCHAR
STARTCHAR uni0067
COMMENT "Index: 0 Size: 20"
ENCODING 103
SWIDTH 500 0
DWIDTH 6 0
BBX 8 12 0 -3
BITMAP
3F
7F
E3
C3
C3
E3
7F
3F
03
47
7E
7C
ENDCHAR
STARTCHAR uni0068
COMMENT "Index: 0 Size: 20"
ENCODING 104
SWIDTH 500 0
DWIDTH 6 0
BBX 8 14 0 0
BITMAP
C0
C0
C0
C0
C0
FC
FE
C3
C3
C3
C3
C3
C3
C3
ENDCHAR
STARTCHAR uni0069
COMMENT "Index: 0 Size: 20"
ENCODING 105
SWIDTH 500 0
DWIDTH 6 0
BBX 9 14 0 0
BITMAP
3000
3000
0000
F800
F800
1800
1800
1800
1800
1800
1800
1800
1F00
0F80
ENDCHAR
STARTCHAR uni006A
COMMENT "Index: 0 Size: 20"
ENCODING 106
SWIDTH 500 0
DWIDTH 6 0
BBX 7 17 0 -3
BITMAP
0C
0C
00
7E
7E
06
06
06
06
06
06
06
06
06
46
7C
7C
ENDCHAR
STARTCHAR uni006B
COMMENT "Index: 0 Size: 20"
ENCODING 107
SWIDTH 500 0
DWIDTH 6 0
BBX 9 14 0 0
BITMAP
C000
C000
C000
C000
C000
C700
CE00
DC00
F000
F800
DC00
CE00
C700
C380
ENDCHAR
STARTCHAR uni006C
COMMENT "Index: 0 Size: 20"
ENCODING 108
SWIDTH 500 0
DWIDTH 6 0
BBX 8 14 0 0
BITMAP
F8
F8
18
18
18
18
18
18
18
18
18
18
1F
0F
ENDCHAR
STARTCHAR uni006D
COMMENT "Index: 0 Size: 20"
ENCODING 109
SWIDTH 500 0
DWIDTH 6 0
BBX 8 9 0 0
BITMAP
FE
FF
DB
DB
DB
DB
C3
C3
C3
ENDCHAR
STARTCHAR uni006E
COMMENT "Index: 0 Size: 20"
ENCODING 110
SWIDTH 500 0
DWIDTH 6 0
BBX 8 9 0 0
BITMAP
FC
FE
C3
C3
C3
C3
C3
C3
C3
ENDCHAR
STARTCHAR uni006F
COMMENT "Index: 0 Size: 20"
ENCODING 111
SWIDTH 500 0
DWIDTH 6 0
BBX 8 9 0 0
BITMAP
3C
7E
E7
C3
C3
C3
E7
7E
3C
ENDCHAR
STARTCHAR uni0070
COMMENT "Index: 0 Size: 20"
ENCODING 112
SWIDTH 500 0
DWIDTH 6 0
BBX 8 12 0 -3
BITMAP
FC
FE
C7
C3
C3
C3
C7
FE
FC
C0
C0
C0
ENDCHAR
STARTCHAR uni0071
COMMENT "Index: 0 Size: 20"
ENCODING 113
SWIDTH 500 0
DWIDTH 6 0
BBX 8 12 0 -3
BITMAP
3F
7F
E3
C3
C3
C3
E3
7F
3F
03
03
03
ENDCHAR
STARTCHAR uni0072
COMMENT "Index: 0 Size: 20"
ENCODING 114
SWIDTH 500 0
DWIDTH 6 0
BBX 7 9 0 0
BITMAP
7E
FE
C0
C0
C0
C0
C0
C0
C0
ENDCHAR
STARTCHAR uni0073
COMMENT "Index: 0 Size: 20"
ENCODING 115
SWIDTH 500 0
DWIDTH 6 0
BBX 8 9 0 0
BITMAP
3F
FF
C1
E0
7E
0F
83
FF
7E
ENDCHAR
STARTCHAR uni0074
COMMENT "Index: 0 Size: 20"
ENCODING 116
SWIDTH 500 0
DWIDTH 6 0
BBX 8 12 0 0
BITMAP
30
30
30
FF
FF
30
30
30
30
30
3F
1F
ENDCHAR
STARTCHAR uni0075
COMMENT "Index: 0 Size: 20"
ENCODING 117
SWIDTH 500 0
DWIDTH 6 0
BBX 8 9 0 0
BITMAP
C3
C3
C3
C3
C3
C3
E3
7F
3F
ENDCHAR
STARTCHAR uni0076
COMMENT "Index: 0 Size: 20"
ENCODING 118
SWIDTH 500 0
DWIDTH 6 0
BBX 9 9 0 0
BITMAP
E180
6380
6300
7300
3600
3600
1E00
1C00
1C00
ENDCHAR
STARTCHAR uni0077
COMMENT "Index: 0 Size: 20"
ENCODING 119
SWIDTH 500 0
DWIDTH 6 0
BBX 10 9 0 0
BITMAP
C1C0
C1C0
CDC0
DDC0
7D80
7780
7780
7380
3300
ENDCHAR
STARTCHAR uni0078
COMMENT "Index: 0 Size: 20"
ENCODING 120
SWIDTH 500 0
DWIDTH 6 0
BBX 10 9 0 0
BITMAP
E1C0
7380
3B00
1E00
0E00
1F00
3B00
7380
E1C0
ENDCHAR
STARTCHAR uni0079
COMMENT "Index: 0 Size: 20"
ENCODING 121
SWIDTH 500 0
DWIDTH 6 0
BBX 9 12 0 -3
BITMAP
6180
6180
3300
3300
3300
1B00
1E00
1E00
0E00
1C00
F800
F000
ENDCHAR
STARTCHAR uni007A
COMMENT "Index: 0 Size: 20"
ENCODING 122
SWIDTH 500 0
DWIDTH 6 0
BBX 8 9 0 0
BITMAP
7F
7F
0F
1E
1C
38
70
FF
FF
ENDCHAR
STARTCHAR uni007B
COMMENT "Index: 0 Size: 20"
ENCODING 123
SWIDTH 500 0
DWIDTH 6 0
BBX 7 17 0 -3
BITMAP
1E
3E
30
30
30
30
30
E0
E0
30
30
30
30
30
30
3E
1E
ENDCHAR
STARTCHAR uni007C
COMMENT "Index: 0 Size: 20"
ENCODING 124
SWIDTH 500 0
DWIDTH 6 0
BBX 2 17 0 -3
BITMAP
C0
C0
C0
C0
C0
C0
C0
C0
C0
C0
C0
C0
C0
C0
C0
C0
C0
ENDCHAR
STARTCHAR uni007D
COMMENT "Index: 0 Size: 20"
ENCODING 125
SWIDTH 500 0
DWIDTH 6 0
BBX 8 17 0 -3
BITMAP
F8
FC
0C
0C
0C
0C
0C
07
07
0C
0C
0C
0C
0C
0C
FC
F8
ENDCHAR
STARTCHAR uni007E
COMMENT "Index: 0 Size: 20"
ENCODING 126
SWIDTH 500 0
DWIDTH 6 0
BBX 9 3 0 4
BITMAP
7980
FF80
CF00
ENDCHAR
STARTCHAR uni00A1
COMMENT "Index: 0 Size: 20"
ENCODING 161
SWIDTH 500 0
DWIDTH 6 0
BBX 2 12 0 -3
BITMAP
C0
C0
00
C0
C0
C0
C0
C0
C0
C0
C0
C0
ENDCHAR
STARTCHAR uni00A2
COMMENT "Index: 0 Size: 20"
ENCODING 162
SWIDTH 500 0
DWIDTH 6 0
BBX 8 14 0 -2
BITMAP
0C
0C
0C
3F
7F
E0
C0
C0
E0
7F
3F
0C
0C
0C
ENDCHAR
STARTCHAR uni00A3
COMMENT "Index: 0 Size: 20"
ENCODING 163
SWIDTH 500 0
DWIDTH 6 0
BBX 8 12 0 0
BITMAP
1F
1F
32
30
30
FE
FE
30
30
30
7F
7F
ENDCHAR
STARTCHAR uni00A4
COMMENT "Index: 0 Size: 20"
ENCODING 164
SWIDTH 500 0
DWIDTH 6 0
BBX 9 9 0 2
BITMAP
4100
FF80
7F00
6300
6300
6300
7F00
FF80
4100
ENDCHAR
STARTCHAR uni00A5
COMMENT "Index: 0 Size: 20"
ENCODING 165
SWIDTH 500 0
DWIDTH 6 0
BBX 10 12 0 0
BITMAP
C0C0
6180
6180
3300
1E00
7F80
7F80
0C00
7F80
7F80
0C00
0C00
ENDCHAR
STARTCHAR uni00A6
COMMENT "Index: 0 Size: 20"
ENCODING 166
SWIDTH 500 0
DWIDTH 6 0
BBX 2 17 0 -3
BITMAP
C0
C0
C0
C0
C0
C0
C0
00
00
00
C0
C0
C0
C0
C0
C0
C0
ENDCHAR
STARTCHAR uni00A7
COMMENT "Index: 0 Size: 20"
ENCODING 167
SWIDTH 500 0
DWIDTH 6 0
BBX 8 14 0 -2
BITMAP
3E
7F
62
60
3C
7E
C3
C3
7F
3E
07
43
FF
7E
ENDCHAR
STARTCHAR uni00A8
COMMENT "Index: 0 Size: 20"
ENCODING 168
SWIDTH 500 0
DWIDTH 6 0
BBX 7 3 0 11
BITMAP
EE
EE
EE
ENDCHAR
STARTCHAR uni00A9
COMMENT "Index: 0 Size: 20"
ENCODING 169
SWIDTH 500 0
DWIDTH 6 0
BBX 8 9 0 0
BITMAP
3C
42
DB
A1
A1
A1
99
42
3C
ENDCHAR
STARTCHAR uni00AA
COMMENT "Index: 0 Size: 20"
ENCODING 170
SWIDTH 500 0
DWIDTH 6 0
BBX 6 7 0 5
BITMAP
78
7C
0C
FC
CC
FC
7C
ENDCHAR
STARTCHAR uni00AB
COMMENT "Index: 0 Size: 20"
ENCODING 171
SWIDTH 500 0
DWIDTH 6 0
BBX 8 8 0 1
BITMAP
33
33
66
CC
CC
66
33
33
ENDCHAR
STARTCHAR uni00AC
COMMENT "Index: 0 Size: 20"
ENCODING 172
SWIDTH 500 0
DWIDTH 6 0
BBX 8 6 0 1
BITMAP
FF
FF
03
03
03
03
ENDCHAR
STARTCHAR uni00AD
COMMENT "Index: 0 Size: 20"
ENCODING 173
SWIDTH 500 0
DWIDTH 6 0
BBX 5 2 0 4
BITMAP
F8
F8
ENDCHAR
STARTCHAR uni00AE
COMMENT "Index: 0 Size: 20"
ENCODING 174
SWIDTH 500 0
DWIDTH 6 0
BBX 8 9 0 0
BITMAP
3C
42
FB
A5
BD
A9
A5
42
3C
ENDCHAR
STARTCHAR uni00AF
COMMENT "Index: 0 Size: 20"
ENCODING 175
SWIDTH 500 0
DWIDTH 6 0
BBX 6 2 0 11
BITMAP
FC
FC
ENDCHAR
STARTCHAR uni00B0
COMMENT "Index: 0 Size: 20"
ENCODING 176
SWIDTH 500 0
DWIDTH 6 0
BBX 6 6 0 8
BITMAP
78
FC
CC
CC
FC
78
ENDCHAR
STARTCHAR uni00B1
COMMENT "Index: 0 Size: 20"
ENCODING 177
SWIDTH 500 0
DWIDTH 6 0
BBX 8 11 0 0
BITMAP
18
18
18
FF
FF
18
18
18
00
FF
FF
ENDCHAR
STARTCHAR uni00B2
COMMENT "Index: 0 Size: 20"
ENCODING 178
SWIDTH 500 0
DWIDTH 6 0
BBX 5 8 0 5
BITMAP
70
F8
98
18
70
60
F8
F8
ENDCHAR
STARTCHAR uni00B3
COMMENT "Index: 0 Size: 20"
ENCODING 179
SWIDTH 500 0
DWIDTH 6 0
BBX 6 8 0 5
BITMAP
70
F8
98
30
38
8C
FC
F8
ENDCHAR
STARTCHAR uni00B4
COMMENT "Index: 0 Size: 20"
ENCODING 180
SWIDTH 500 0
DWIDTH 6 0
BBX 4 4 0 10
BITMAP
20
70
E0
40
ENDCHAR
STARTCHAR uni00B5
COMMENT "Index: 0 Size: 20"
ENCODING 181
SWIDTH 500 0
DWIDTH 6 0
BBX 7 12 0 -3
BITMAP
C6
C6
C6
C6
C6
C6
C6
FE
FE
C0
C0
C0
ENDCHAR
STARTCHAR uni00B6
COMMENT "Index: 0 Size: 20"
ENCODING 182
SWIDTH 500 0
DWIDTH 6 0
BBX 9 15 0 -3
BITMAP
3F80
7F80
F980
F980
F980
F980
3980
1980
1980
1980
1980
1980
1980
1980
1980
ENDCHAR
STARTCHAR uni00B7
COMMENT "Index: 0 Size: 20"
ENCODING 183
SWIDTH 500 0
DWIDTH 6 0
BBX 4 4 0 4
BITMAP
60
F0
F0
60
ENDCHAR
STARTCHAR uni00B8
COMMENT "Index: 0 Size: 20"
ENCODING 184
SWIDTH 500 0
DWIDTH 6 0
BBX 4 3 0 -3
BITMAP
60
30
F0
ENDCHAR
STARTCHAR uni00B9
COMMENT "Index: 0 Size: 20"
ENCODING 185
SWIDTH 500 0
DWIDTH 6 0
BBX 6 7 0 5
BITMAP
30
F0
B0
30
30
FC
FC
ENDCHAR
STARTCHAR uni00BA
COMMENT "Index: 0 Size: 20"
ENCODING 186
SWIDTH 500 0
DWIDTH 6 0
BBX 7 8 0 5
BITMAP
38
7C
C6
C6
C6
C6
7C
38
ENDCHAR
STARTCHAR uni00BB
COMMENT "Index: 0 Size: 20"
ENCODING 187
SWIDTH 500 0
DWIDTH 6 0
BBX 8 8 0 1
BITMAP
CC
CC
66
33
33
66
CC
CC
ENDCHAR
STARTCHAR uni00BC
COMMENT "Index: 0 Size: 20"
ENCODING 188
SWIDTH 500 0
DWIDTH 6 0
BBX 10 12 0 0
BITMAP
3180
F300
B300
3600
3600
0C00
0C00
1B80
1F80
3580
37C0
6180
ENDCHAR
STARTCHAR uni00BD
COMMENT "Index: 0 Size: 20"
ENCODING 189
SWIDTH 500 0
DWIDTH 6 0
BBX 10 12 0 0
BITMAP
3180
F300
3300
3600
3600
0C00
0C00
1B80
32C0
30C0
6380
63C0
ENDCHAR
STARTCHAR uni00BE
COMMENT "Index: 0 Size: 20"
ENCODING 190
SWIDTH 500 0
DWIDTH 6 0
BBX 10 12 0 0
BITMAP
F180
1B80
7300
1E00
FE00
0C00
0C00
1980
1A80
3680
37C0
6080
ENDCHAR
STARTCHAR uni00BF
COMMENT "Index: 0 Size: 20"
ENCODING 191
SWIDTH 500 0
DWIDTH 6 0
BBX 8 12 0 -3
BITMAP
18
18
00
38
38
70
60
C0
C0
C2
7F
3E
ENDCHAR
STARTCHAR uni00C0
COMMENT "Index: 0 Size: 18"
ENCODING 192
SWIDTH 500 0
DWIDTH 6 0
BBX 9 15 0 0
BITMAP
1800
1C00
0400
0000
1C00
1C00
1600
3600
3600
3300
7F00
7F00
6300
E380
E380
ENDCHAR
STARTCHAR uni00C1
COMMENT "Index: 0 Size: 18"
ENCODING 193
SWIDTH 500 0
DWIDTH 6 0
BBX 9 15 0 0
BITMAP
0400
1E00
1800
0000
1C00
1C00
1600
3600
3600
3300
7F00
7F00
6300
E380
E380
ENDCHAR
STARTCHAR uni00C2
COMMENT "Index: 0 Size: 18"
ENCODING 194
SWIDTH 500 0
DWIDTH 6 0
BBX 9 15 0 0
BITMAP
0800
1C00
3600
0000
1C00
1C00
1600
3600
3600
3300
7F00
7F00
6300
E380
E380
ENDCHAR
STARTCHAR uni00C3
COMMENT "Index: 0 Size: 18"
ENCODING 195
SWIDTH 500 0
DWIDTH 6 0
BBX 9 15 0 0
BITMAP
1A00
3E00
2600
0000
1C00
1C00
1600
3600
3600
3300
7F00
7F00
6300
E380
E380
ENDCHAR
STARTCHAR uni00C4
COMMENT "Index: 0 Size: 18"
ENCODING 196
SWIDTH 500 0
DWIDTH 6 0
BBX 9 15 0 0
BITMAP
3600
3600
0000
0000
1C00
1C00
1600
3600
3600
3300
7F00
7F00
6300
E380
E380
ENDCHAR
STARTCHAR uni00C5
COMMENT "Index: 0 Size: 19"
ENCODING 197
SWIDTH 500 0
DWIDTH 6 0
BBX 10 15 0 0
BITMAP
1E00
1200
1200
1E00
1E00
1E00
3F00
3300
3300
3380
7F80
7F80
6180
E1C0
E1C0
ENDCHAR
STARTCHAR uni00C6
COMMENT "Index: 0 Size: 20"
ENCODING 198
SWIDTH 500 0
DWIDTH 6 0
BBX 10 12 0 0
BITMAP
0FC0
1FC0
1E00
1600
3600
3780
3780
7E00
7E00
6600
E7C0
E7C0
ENDCHAR
STARTCHAR uni00C7
COMMENT "Index: 0 Size: 20"
ENCODING 199
SWIDTH 500 0
DWIDTH 6 0
BBX 8 15 0 -3
BITMAP
1E
3F
61
C0
C0
C0
C0
C0
C0
61
7F
3E
18
0C
3C
ENDCHAR
STARTCHAR uni00C8
COMMENT "Index: 0 Size: 18"
ENCODING 200
SWIDTH 500 0
DWIDTH 6 0
BBX 7 15 0 0
BITMAP
60
70
10
00
FE
FE
C0
C0
FC
FC
C0
C0
C0
FE
FE
ENDCHAR
STARTCHAR uni00C9
COMMENT "Index: 0 Size: 18"
ENCODING 201
SWIDTH 500 0
DWIDTH 6 0
BBX 7 15 0 0
BITMAP
10
78
60
00
FE
FE
C0
C0
FC
FC
C0
C0
C0
FE
FE
ENDCHAR
STARTCHAR uni00CA
COMMENT "Index: 0 Size: 18"
ENCODING 202
SWIDTH 500 0
DWIDTH 6 0
BBX 7 15 0 0
BITMAP
10
38
6C
00
FE
FE
C0
C0
FC
FC
C0
C0
C0
FE
FE
ENDCHAR
STARTCHAR uni00CB
COMMENT "Index: 0 Size: 18"
ENCODING 203
SWIDTH 500 0
DWIDTH 6 0
BBX 7 15 0 0
BITMAP
6C
6C
00
00
FE
FE
C0
C0
FC
FC
C0
C0
C0
FE
FE
ENDCHAR
STARTCHAR uni00CC
COMMENT "Index: 0 Size: 18"
ENCODING 204
SWIDTH 500 0
DWIDTH 6 0
BBX 6 15 0 0
BITMAP
60
70
10
00
FC
FC
30
30
30
30
30
30
30
FC
FC
ENDCHAR
STARTCHAR uni00CD
COMMENT "Index: 0 Size: 18"
ENCODING 205
SWIDTH 500 0
DWIDTH 6 0
BBX 6 15 0 0
BITMAP
10
78
60
00
FC
FC
30
30
30
30
30
30
30
FC
FC
ENDCHAR
STARTCHAR uni00CE
COMMENT "Index: 0 Size: 18"
ENCODING 206
SWIDTH 500 0
DWIDTH 6 0
BBX 6 15 0 0
BITMAP
20
70
D8
00
FC
FC
30
30
30
30
30
30
30
FC
FC
ENDCHAR
STARTCHAR uni00CF
COMMENT "Index: 0 Size: 18"
ENCODING 207
SWIDTH 500 0
DWIDTH 6 0
BBX 6 15 0 0
BITMAP
6C
6C
00
00
FC
FC
30
30
30
30
30
30
30
FC
FC
ENDCHAR
STARTCHAR uni00D0
COMMENT "Index: 0 Size: 20"
ENCODING 208
SWIDTH 500 0
DWIDTH 6 0
BBX 9 12 0 0
BITMAP
7C00
7F00
6300
6180
6180
F980
F980
6180
6380
6300
7F00
7C00
ENDCHAR
STARTCHAR uni00D1
COMMENT "Index: 0 Size: 18"
ENCODING 209
SWIDTH 500 0
DWIDTH 6 0
BBX 7 15 0 0
BITMAP
34
7C
4C
00
C6
E6
E6
F6
F6
D6
DE
CE
CE
C6
C6
ENDCHAR
STARTCHAR uni00D2
COMMENT "Index: 0 Size: 18"
ENCODING 210
SWIDTH 500 0
DWIDTH 6 0
BBX 8 15 0 0
BITMAP
30
38
08
00
3C
7E
E7
C3
C3
C3
C3
C3
E7
7E
3C
ENDCHAR
STARTCHAR uni00D3
COMMENT "Index: 0 Size: 18"
ENCODING 211
SWIDTH 500 0
DWIDTH 6 0
BBX 8 15 0 0
BITMAP
08
3C
30
00
3C
7E
E7
C3
C3
C3
C3
C3
E7
7E
3C
ENDCHAR
STARTCHAR uni00D4
COMMENT "Index: 0 Size: 18"
ENCODING 212
SWIDTH 500 0
DWIDTH 6 0
BBX 8 15 0 0
BITMAP
08
1C
36
00
3C
7E
E7
C3
C3
C3
C3
C3
E7
7E
3C
ENDCHAR
STARTCHAR uni00D5
COMMENT "Index: 0 Size: 18"
ENCODING 213
SWIDTH 500 0
DWIDTH 6 0
BBX 8 15 0 0
BITMAP
1A
3E
26
00
3C
7E
E7
C3
C3
C3
C3
C3
E7
7E
3C
ENDCHAR
STARTCHAR uni00D6
COMMENT "Index: 0 Size: 18"
ENCODING 214
SWIDTH 500 0
DWIDTH 6 0
BBX 8 15 0 0
BITMAP
36
36
00
00
3C
7E
E7
C3
C3
C3
C3
C3
E7
7E
3C
ENDCHAR
STARTCHAR uni00D7
COMMENT "Index: 0 Size: 20"
ENCODING 215
SWIDTH 500 0
DWIDTH 6 0
BBX 8 8 0 1
BITMAP
42
E7
7E
3C
3C
7E
E7
42
ENDCHAR
STARTCHAR uni00D8
COMMENT "Index: 0 Size: 20"
ENCODING 216
SWIDTH 500 0
DWIDTH 6 0
BBX 8 14 0 -1
BITMAP
02
3E
7E
67
CF
CF
DB
DB
F3
F3
E6
7E
FC
40
ENDCHAR
STARTCHAR uni00D9
COMMENT "Index: 0 Size: 18"
ENCODING 217
SWIDTH 500 0
DWIDTH 6 0
BBX 7 15 0 0
BITMAP
20
38
08
00
C6
C6
C6
C6
C6
C6
C6
C6
C6
FE
7C
ENDCHAR
STARTCHAR uni00DA
COMMENT "Index: 0 Size: 18"
ENCODING 218
SWIDTH 500 0
DWIDTH 6 0
BBX 7 15 0 0
BITMAP
08
1C
10
00
C6
C6
C6
C6
C6
C6
C6
C6
C6
FE
7C
ENDCHAR
STARTCHAR uni00DB
COMMENT "Index: 0 Size: 18"
ENCODING 219
SWIDTH 500 0
DWIDTH 6 0
BBX 7 15 0 0
BITMAP
10
38
6C
00
C6
C6
C6
C6
C6
C6
C6
C6
C6
FE
7C
ENDCHAR
STARTCHAR uni00DC
COMMENT "Index: 0 Size: 18"
ENCODING 220
SWIDTH 500 0
DWIDTH 6 0
BBX 7 15 0 0
BITMAP
6C
6C
00
00
C6
C6
C6
C6
C6
C6
C6
C6
C6
FE
7C
ENDCHAR
STARTCHAR uni00DD
COMMENT "Index: 0 Size: 18"
ENCODING 221
SWIDTH 500 0
DWIDTH 6 0
BBX 8 15 0 0
BITMAP
08
1C
10
00
E3
66
66
66
3C
3C
18
18
18
18
18
ENDCHAR
STARTCHAR uni00DE
COMMENT "Index: 0 Size: 20"
ENCODING 222
SWIDTH 500 0
DWIDTH 6 0
BBX 8 12 0 0
BITMAP
C0
C0
FC
FE
C7
C3
C3
C7
FE
FC
C0
C0
ENDCHAR
STARTCHAR uni00DF
COMMENT "Index: 0 Size: 20"
ENCODING 223
SWIDTH 500 0
DWIDTH 6 0
BBX 9 14 0 0
BITMAP
3C00
7E00
C600
C600
C600
CC00
CC00
CC00
CF00
C380
C180
D180
DF80
DF00
ENDCHAR
STARTCHAR uni00E0
COMMENT "Index: 0 Size: 20"
ENCODING 224
SWIDTH 500 0
DWIDTH 6 0
BBX 8 14 0 0
BITMAP
20
38
3C
08
00
7E
7F
03
3F
FF
C3
C3
FF
7F
ENDCHAR
STARTCHAR uni00E1
COMMENT "Index: 0 Size: 20"
ENCODING 225
SWIDTH 500 0
DWIDTH 6 0
BBX 8 14 0 0
BITMAP
08
1C
38
10
00
7E
7F
03
3F
FF
C3
C3
FF
7F
ENDCHAR
STARTCHAR uni00E2
COMMENT "Index: 0 Size: 20"
ENCODING 226
SWIDTH 500 0
DWIDTH 6 0
BBX 8 14 0 0
BITMAP
18
3C
7E
24
00
7E
7F
03
3F
FF
C3
C3
FF
7F
ENDCHAR
STARTCHAR uni00E3
COMMENT "Index: 0 Size: 20"
ENCODING 227
SWIDTH 500 0
DWIDTH 6 0
BBX 8 13 0 0
BITMAP
32
7E
4C
00
7E
7F
03
3F
FF
C3
C3
FF
7F
ENDCHAR
STARTCHAR uni00E4
COMMENT "Index: 0 Size: 20"
ENCODING 228
SWIDTH 500 0
DWIDTH 6 0
BBX 8 14 0 0
BITMAP
77
77
77
00
00
7E
7F
03
3F
FF
C3
C3
FF
7F
ENDCHAR
STARTCHAR uni00E5
COMMENT "Index: 0 Size: 20"
ENCODING 229
SWIDTH 500 0
DWIDTH 6 0
BBX 8 14 0 0
BITMAP
18
24
24
18
00
7E
7F
03
3F
FF
C3
C3
FF
7F
ENDCHAR
STARTCHAR uni00E6
COMMENT "Index: 0 Size: 20"
ENCODING 230
SWIDTH 500 0
DWIDTH 6 0
BBX 9 9 0 0
BITMAP
7700
7F80
0E80
7C80
FF80
CC00
CC00
FF80
7380
ENDCHAR
STARTCHAR uni00E7
COMMENT "Index: 0 Size: 20"
ENCODING 231
SWIDTH 500 0
DWIDTH 6 0
BBX 8 12 0 -3
BITMAP
1F
7F
E0
C0
C0
C0
E0
7F
3F
18
0C
3C
ENDCHAR
STARTCHAR uni00E8
COMMENT "Index: 0 Size: 20"
ENCODING 232
SWIDTH 500 0
DWIDTH 6 0
BBX 8 14 0 0
BITMAP
20
38
3C
08
00
3C
7E
E7
C3
FF
FF
C0
7E
3E
ENDCHAR
STARTCHAR uni00E9
COMMENT "Index: 0 Size: 20"
ENCODING 233
SWIDTH 500 0
DWIDTH 6 0
BBX 8 14 0 0
BITMAP
08
1C
3C
10
00
3C
7E
E7
C3
FF
FF
C0
7E
3E
ENDCHAR
STARTCHAR uni00EA
COMMENT "Index: 0 Size: 20"
ENCODING 234
SWIDTH 500 0
DWIDTH 6 0
BBX 8 14 0 0
BITMAP
08
1C
36
24
00
3C
7E
E7
C3
FF
FF
C0
7E
3E
ENDCHAR
STARTCHAR uni00EB
COMMENT "Index: 0 Size: 20"
ENCODING 235
SWIDTH 500 0
DWIDTH 6 0
BBX 8 14 0 0
BITMAP
77
77
77
00
00
3C
7E
E7
C3
FF
FF
C0
7E
3E
ENDCHAR
STARTCHAR uni00EC
COMMENT "Index: 0 Size: 20"
ENCODING 236
SWIDTH 500 0
DWIDTH 6 0
BBX 8 14 0 0
BITMAP
20
30
38
08
00
F8
F8
18
18
18
18
19
1F
0F
ENDCHAR
STARTCHAR uni00ED
COMMENT "Index: 0 Size: 20"
ENCODING 237
SWIDTH 500 0
DWIDTH 6 0
BBX 8 14 0 0
BITMAP
08
18
38
20
00
F8
F8
18
18
18
18
19
1F
0F
ENDCHAR
STARTCHAR uni00EE
COMMENT "Index: 0 Size: 20"
ENCODING 238
SWIDTH 500 0
DWIDTH 6 0
BBX 8 14 0 0
BITMAP
10
38
6C
44
00
F8
F8
18
18
18
18
19
1F
0F
ENDCHAR
STARTCHAR uni00EF
COMMENT "Index: 0 Size: 20"
ENCODING 239
SWIDTH 500 0
DWIDTH 6 0
BBX 8 14 0 0
BITMAP
CC
EE
CC
00
00
F8
F8
18
18
18
18
19
1F
0F
ENDCHAR
STARTCHAR uni00F0
COMMENT "Index: 0 Size: 20"
ENCODING 240
SWIDTH 500 0
DWIDTH 6 0
BBX 9 14 0 0
BITMAP
1000
3800
1F80
3F00
3E00
0300
1F00
7F00
E300
C300
C300
E700
7E00
3C00
ENDCHAR
STARTCHAR uni00F1
COMMENT "Index: 0 Size: 20"
ENCODING 241
SWIDTH 500 0
DWIDTH 6 0
BBX 8 13 0 0
BITMAP
32
7E
4C
00
FC
FE
C3
C3
C3
C3
C3
C3
C3
ENDCHAR
STARTCHAR uni00F2
COMMENT "Index: 0 Size: 20"
ENCODING 242
SWIDTH 500 0
DWIDTH 6 0
BBX 8 14 0 0
BITMAP
20
38
3C
08
00
3C
7E
E7
C3
C3
C3
E7
7E
3C
ENDCHAR
STARTCHAR uni00F3
COMMENT "Index: 0 Size: 20"
ENCODING 243
SWIDTH 500 0
DWIDTH 6 0
BBX 8 14 0 0
BITMAP
08
1C
38
30
00
3C
7E
E7
C3
C3
C3
E7
7E
3C
ENDCHAR
STARTCHAR uni00F4
COMMENT "Index: 0 Size: 20"
ENCODING 244
SWIDTH 500 0
DWIDTH 6 0
BBX 8 14 0 0
BITMAP
18
3C
7E
24
00
3C
7E
E7
C3
C3
C3
E7
7E
3C
ENDCHAR
STARTCHAR uni00F5
COMMENT "Index: 0 Size: 20"
ENCODING 245
SWIDTH 500 0
DWIDTH 6 0
BBX 8 13 0 0
BITMAP
32
7E
4C
00
3C
7E
E7
C3
C3
C3
E7
7E
3C
ENDCHAR
STARTCHAR uni00F6
COMMENT "Index: 0 Size: 20"
ENCODING 246
SWIDTH 500 0
DWIDTH 6 0
BBX 8 14 0 0
BITMAP
77
77
77
00
00
3C
7E
E7
C3
C3
C3
E7
7E
3C
ENDCHAR
STARTCHAR uni00F7
COMMENT "Index: 0 Size: 20"
ENCODING 247
SWIDTH 500 0
DWIDTH 6 0
BBX 9 10 0 0
BITMAP
1C00
1C00
1C00
0000
FF80
FF80
0000
1C00
1C00
1C00
ENDCHAR
STARTCHAR uni00F8
COMMENT "Index: 0 Size: 20"
ENCODING 248
SWIDTH 500 0
DWIDTH 6 0
BBX 8 9 0 0
BITMAP
3F
7E
E7
CF
DB
F3
E7
7E
FC
ENDCHAR
STARTCHAR uni00F9
COMMENT "Index: 0 Size: 20"
ENCODING 249
SWIDTH 500 0
DWIDTH 6 0
BBX 8 14 0 0
BITMAP
20
38
3C
08
00
C3
C3
C3
C3
C3
C3
E3
7F
3F
ENDCHAR
STARTCHAR uni00FA
COMMENT "Index: 0 Size: 20"
ENCODING 250
SWIDTH 500 0
DWIDTH 6 0
BBX 8 14 0 0
BITMAP
08
18
38
20
00
C3
C3
C3
C3
C3
C3
E3
7F
3F
ENDCHAR
STARTCHAR uni00FB
COMMENT "Index: 0 Size: 20"
ENCODING 251
SWIDTH 500 0
DWIDTH 6 0
BBX 8 14 0 0
BITMAP
18
3C
7E
24
00
C3
C3
C3
C3
C3
C3
E3
7F
3F
ENDCHAR
STARTCHAR uni00FC
COMMENT "Index: 0 Size: 20"
ENCODING 252
SWIDTH 500 0
DWIDTH 6 0
BBX 8 14 0 0
BITMAP
77
77
77
00
00
C3
C3
C3
C3
C3
C3
E3
7F
3F
ENDCHAR
STARTCHAR uni00FD
COMMENT "Index: 0 Size: 20"
ENCODING 253
SWIDTH 500 0
DWIDTH 6 0
BBX 9 17 0 -3
BITMAP
0400
0C00
1C00
1000
0000
6180
6180
3300
3300
3300
1B00
1E00
1E00
0E00
1C00
F800
F000
ENDCHAR
STARTCHAR uni00FE
COMMENT "Index: 0 Size: 20"
ENCODING 254
SWIDTH 500 0
DWIDTH 6 0
BBX 8 17 0 -3
BITMAP
C0
C0
C0
C0
FC
FE
C7
C3
C3
C3
C3
C7
FE
FC
C0
C0
C0
ENDCHAR
STARTCHAR uni00FF
COMMENT "Index: 0 Size: 20"
ENCODING 255
SWIDTH 500 0
DWIDTH 6 0
BBX 9 17 0 -3
BITMAP
7700
7700
7700
0000
0000
6180
6180
3300
3300
3300
1B00
1E00
1E00
0E00
1C00
F800
F000
ENDCHAR
STARTCHAR uni0100
COMMENT "Index: 0 Size: 19"
ENCODING 256
SWIDTH 500 0
DWIDTH 6 0
BBX 10 15 0 0
BITMAP
1F00
1F00
0000
0E00
1E00
1E00
1F00
3300
3300
3380
7F80
7F80
6180
E1C0
E1C0
ENDCHAR
STARTCHAR uni0101
COMMENT "Index: 0 Size: 20"
ENCODING 257
SWIDTH 500 0
DWIDTH 6 0
BBX 8 13 0 0
BITMAP
7E
7E
00
00
7E
7F
03
3F
FF
C3
C3
FF
7F
ENDCHAR
STARTCHAR uni0102
COMMENT "Index: 0 Size: 18"
ENCODING 258
SWIDTH 500 0
DWIDTH 6 0
BBX 9 15 0 0
BITMAP
3600
1C00
0000
0000
1C00
1C00
1600
3600
3600
3300
7F00
7F00
6300
E380
E380
ENDCHAR
STARTCHAR uni0103
COMMENT "Index: 0 Size: 20"
ENCODING 259
SWIDTH 500 0
DWIDTH 6 0
BBX 8 13 0 0
BITMAP
66
7E
3C
00
7E
7F
03
3F
FF
C3
C3
FF
7F
ENDCHAR
STARTCHAR uni0104
COMMENT "Index: 0 Size: 20"
ENCODING 260
SWIDTH 500 0
DWIDTH 6 0
BBX 10 15 0 -3
BITMAP
1E00
1E00
1E00
3F00
3300
3300
3380
7F80
7F80
6180
E1C0
E1C0
01C0
0180
01C0
ENDCHAR
STARTCHAR uni0105
COMMENT "Index: 0 Size: 20"
ENCODING 261
SWIDTH 500 0
DWIDTH 6 0
BBX 8 12 0 -3
BITMAP
7E
7F
03
3F
FF
C3
C3
FF
3F
06
0C
0F
ENDCHAR
STARTCHAR uni0106
COMMENT "Index: 0 Size: 18"
ENCODING 262
SWIDTH 500 0
DWIDTH 6 0
BBX 8 15 0 0
BITMAP
04
1E
18
00
1E
7F
61
C0
C0
C0
C0
C0
61
7F
3E
ENDCHAR
STARTCHAR uni0107
COMMENT "Index: 0 Size: 20"
ENCODING 263
SWIDTH 500 0
DWIDTH 6 0
BBX 8 14 0 0
BITMAP
04
0C
1C
10
00
1F
7F
E0
C0
C0
C0
E0
7F
3F
ENDCHAR
STARTCHAR uni0108
COMMENT "Index: 0 Size: 18"
ENCODING 264
SWIDTH 500 0
DWIDTH 6 0
BBX 8 15 0 0
BITMAP
04
0E
1B
00
1E
7F
61
C0
C0
C0
C0
C0
61
7F
3E
ENDCHAR
STARTCHAR uni0109
COMMENT "Index: 0 Size: 20"
ENCODING 265
SWIDTH 500 0
DWIDTH 6 0
BBX 8 14 0 0
BITMAP
08
1C
36
12
00
1F
7F
E0
C0
C0
C0
E0
7F
3F
ENDCHAR
STARTCHAR uni010A
COMMENT "Index: 0 Size: 18"
ENCODING 266
SWIDTH 500 0
DWIDTH 6 0
BBX 8 15 0 0
BITMAP
0E
0E
0E
00
1E
7F
61
C0
C0
C0
C0
C0
61
7F
3E
ENDCHAR
STARTCHAR uni010B
COMMENT "Index: 0 Size: 20"
ENCODING 267
SWIDTH 500 0
DWIDTH 6 0
BBX 8 14 0 0
BITMAP
1C
1C
1C
00
00
1F
7F
E0
C0
C0
C0
E0
7F
3F
ENDCHAR
STARTCHAR uni010C
COMMENT "Index: 0 Size: 18"
ENCODING 268
SWIDTH 500 0
DWIDTH 6 0
BBX 8 15 0 0
BITMAP
1B
0E
04
00
1E
7F
61
C0
C0
C0
C0
C0
61
7F
3E
ENDCHAR
STARTCHAR uni010D
COMMENT "Index: 0 Size: 20"
ENCODING 269
SWIDTH 500 0
DWIDTH 6 0
BBX 8 14 0 0
BITMAP
12
3B
1E
04
00
1F
7F
E0
C0
C0
C0
E0
7F
3F
ENDCHAR
STARTCHAR uni0112
COMMENT "Index: 0 Size: 19"
ENCODING 274
SWIDTH 500 0
DWIDTH 6 0
BBX 8 15 0 0
BITMAP
7C
7C
00
FF
FF
C0
C0
C0
FE
FE
C0
C0
C0
FF
FF
ENDCHAR
STARTCHAR uni0113
COMMENT "Index: 0 Size: 20"
ENCODING 275
SWIDTH 500 0
DWIDTH 6 0
BBX 8 13 0 0
BITMAP
7E
7E
00
00
3C
7E
E7
C3
FF
FF
C0
7E
3E
ENDCHAR
STARTCHAR uni012A
COMMENT "Index: 0 Size: 19"
ENCODING 298
SWIDTH 500 0
DWIDTH 6 0
BBX 8 15 0 0
BITMAP
3E
3E
00
FF
FF
18
18
18
18
18
18
18
18
FF
FF
ENDCHAR
STARTCHAR uni012B
COMMENT "Index: 0 Size: 20"
ENCODING 299
SWIDTH 500 0
DWIDTH 6 0
BBX 8 13 0 0
BITMAP
7E
7E
00
00
F8
F8
18
18
18
18
19
1F
0F
ENDCHAR
STARTCHAR uni0132
COMMENT "Index: 0 Size: 20"
ENCODING 306
SWIDTH 500 0
DWIDTH 6 0
BBX 9 12 0 0
BITMAP
C180
C180
C180
C180
C180
C180
C180
C180
C180
C180
DF80
DF00
ENDCHAR
STARTCHAR uni0133
COMMENT "Index: 0 Size: 20"
ENCODING 307
SWIDTH 500 0
DWIDTH 6 0
BBX 6 17 0 -3
BITMAP
CC
CC
00
CC
CC
CC
CC
CC
CC
CC
CC
CC
CC
CC
0C
3C
38
ENDCHAR
STARTCHAR uni014C
COMMENT "Index: 0 Size: 19"
ENCODING 332
SWIDTH 500 0
DWIDTH 6 0
BBX 8 15 0 0
BITMAP
3E
3E
00
3C
7E
66
C3
C3
C3
C3
C3
C3
66
7E
3C
ENDCHAR
STARTCHAR uni014D
COMMENT "Index: 0 Size: 20"
ENCODING 333
SWIDTH 500 0
DWIDTH 6 0
BBX 8 13 0 0
BITMAP
7E
7E
00
00
3C
7E
E7
C3
C3
C3
E7
7E
3C
ENDCHAR
STARTCHAR uni0150
COMMENT "Index: 0 Size: 18"
ENCODING 336
SWIDTH 500 0
DWIDTH 6 0
BBX 8 15 0 0
BITMAP
12
36
24
00
3C
7E
E7
C3
C3
C3
C3
C3
E7
7E
3C
ENDCHAR
STARTCHAR uni0151
COMMENT "Index: 0 Size: 20"
ENCODING 337
SWIDTH 500 0
DWIDTH 6 0
BBX 9 14 0 0
BITMAP
1100
3300
7700
4400
0000
3C00
7E00
E700
C300
C300
C300
E700
7E00
3C00
ENDCHAR
STARTCHAR uni0152
COMMENT "Index: 0 Size: 20"
ENCODING 338
SWIDTH 500 0
DWIDTH 6 0
BBX 9 12 0 0
BITMAP
3F80
7F80
E600
C600
C600
C700
C700
C600
C600
E600
7F80
3F80
ENDCHAR
STARTCHAR uni0153
COMMENT "Index: 0 Size: 20"
ENCODING 339
SWIDTH 500 0
DWIDTH 6 0
BBX 10 9 0 0
BITMAP
7380
7F80
CCC0
CCC0
CFC0
CFC0
CC00
7F80
7380
ENDCHAR
STARTCHAR uni0160
COMMENT "Index: 0 Size: 18"
ENCODING 352
SWIDTH 500 0
DWIDTH 6 0
BBX 7 15 0 0
BITMAP
6C
38
10
00
3C
FE
C2
C0
F0
7C
1E
06
86
FE
7C
ENDCHAR
STARTCHAR uni0161
COMMENT "Index: 0 Size: 20"
ENCODING 353
SWIDTH 500 0
DWIDTH 6 0
BBX 8 14 0 0
BITMAP
24
7E
3C
18
00
3F
FF
C1
E0
7E
0F
83
FF
7E
ENDCHAR
STARTCHAR uni016A
COMMENT "Index: 0 Size: 19"
ENCODING 362
SWIDTH 500 0
DWIDTH 6 0
BBX 8 15 0 0
BITMAP
3E
3E
00
C3
C3
C3
C3
C3
C3
C3
C3
C3
C3
7E
3C
ENDCHAR
STARTCHAR uni016B
COMMENT "Index: 0 Size: 20"
ENCODING 363
SWIDTH 500 0
DWIDTH 6 0
BBX 8 13 0 0
BITMAP
7E
7E
00
00
C3
C3
C3
C3
C3
C3
E3
7F
3F
ENDCHAR
STARTCHAR uni0170
COMMENT "Index: 0 Size: 18"
ENCODING 368
SWIDTH 500 0
DWIDTH 6 0
BBX 8 15 0 0
BITMAP
12
36
24
00
C6
C6
C6
C6
C6
C6
C6
C6
C6
FE
7C
ENDCHAR
STARTCHAR uni0171
COMMENT "Index: 0 Size: 20"
ENCODING 369
SWIDTH 500 0
DWIDTH 6 0
BBX 9 14 0 0
BITMAP
1100
3300
7700
4400
0000
C300
C300
C300
C300
C300
C300
E300
7F00
3F00
ENDCHAR
STARTCHAR uni0174
COMMENT "Index: 0 Size: 18"
ENCODING 372
SWIDTH 500 0
DWIDTH 6 0
BBX 8 15 0 0
BITMAP
08
1C
36
00
C3
C3
C3
C3
DB
DB
FF
FF
E7
E7
66
ENDCHAR
STARTCHAR uni0175
COMMENT "Index: 0 Size: 20"
ENCODING 373
SWIDTH 500 0
DWIDTH 6 0
BBX 10 14 0 0
BITMAP
0C00
1E00
3F00
1200
0000
C1C0
C1C0
CDC0
DDC0
7D80
7780
7780
7380
3300
ENDCHAR
STARTCHAR uni0176
COMMENT "Index: 0 Size: 18"
ENCODING 374
SWIDTH 500 0
DWIDTH 6 0
BBX 8 15 0 0
BITMAP
10
38
6C
00
E3
66
66
66
3C
3C
18
18
18
18
18
ENDCHAR
STARTCHAR uni0177
COMMENT "Index: 0 Size: 20"
ENCODING 375
SWIDTH 500 0
DWIDTH 6 0
BBX 9 17 0 -3
BITMAP
0C00
1E00
3F00
1200
0000
6180
6180
3300
3300
3300
1B00
1E00
1E00
0E00
1C00
F800
F000
ENDCHAR
STARTCHAR uni017D
COMMENT "Index: 0 Size: 18"
ENCODING 381
SWIDTH 500 0
DWIDTH 6 0
BBX 7 15 0 0
BITMAP
6C
38
10
00
FE
FE
0E
1C
18
38
30
60
60
FE
FE
ENDCHAR
STARTCHAR uni017E
COMMENT "Index: 0 Size: 20"
ENCODING 382
SWIDTH 500 0
DWIDTH 6 0
BBX 8 14 0 0
BITMAP
24
7E
3C
18
00
7F
7F
0F
1E
1C
38
70
FF
FF
ENDCHAR
STARTCHAR uni0218
COMMENT "Index: 0 Size: 20"
ENCODING 536
SWIDTH 500 0
DWIDTH 6 0
BBX 8 15 0 -3
BITMAP
3E
7F
C2
C0
E0
7C
1E
07
03
43
FE
7C
18
38
38
ENDCHAR
STARTCHAR uni0219
COMMENT "Index: 0 Size: 20"
ENCODING 537
SWIDTH 500 0
DWIDTH 6 0
BBX 8 12 0 -3
BITMAP
3F
FF
C1
E0
7E
0F
83
FF
7E
18
38
38
ENDCHAR
STARTCHAR uni021A
COMMENT "Index: 0 Size: 20"
ENCODING 538
SWIDTH 500 0
DWIDTH 6 0
BBX 8 15 0 -3
BITMAP
FF
FF
18
18
18
18
18
18
18
18
18
18
18
38
38
ENDCHAR
STARTCHAR uni021B
COMMENT "Index: 0 Size: 20"
ENCODING 539
SWIDTH 500 0
DWIDTH 6 0
BBX 8 15 0 -3
BITMAP
30
30
30
FF
FF
30
30
30
30
30
3F
1F
0C
1C
18
ENDCHAR
STARTCHAR uni0400
COMMENT "Index: 0 Size: 18"
ENCODING 1024
SWIDTH 500 0
DWIDTH 6 0
BBX 7 15 0 0
BITMAP
20
70
18
00
FE
FE
C0
C0
FC
FC
C0
C0
C0
FE
FE
ENDCHAR
STARTCHAR uni0401
COMMENT "Index: 0 Size: 18"
ENCODING 1025
SWIDTH 500 0
DWIDTH 6 0
BBX 7 15 0 0
BITMAP
6C
6C
00
00
FE
FE
C0
C0
FC
FC
C0
C0
C0
FE
FE
ENDCHAR
STARTCHAR uni0402
COMMENT "Index: 0 Size: 20"
ENCODING 1026
SWIDTH 500 0
DWIDTH 6 0
BBX 9 12 0 0
BITMAP
FE00
FE00
3000
3000
3000
3E00
3F00
3180
3180
3180
3780
3700
ENDCHAR
STARTCHAR uni0403
COMMENT "Index: 0 Size: 18"
ENCODING 1027
SWIDTH 500 0
DWIDTH 6 0
BBX 8 15 0 0
BITMAP
04
0E
08
00
3F
3F
30
30
30
30
30
30
30
FC
FC
ENDCHAR
STARTCHAR uni0404
COMMENT "Index: 0 Size: 20"
ENCODING 1028
SWIDTH 500 0
DWIDTH 6 0
BBX 8 12 0 0
BITMAP
1E
3F
61
C0
C0
FC
FC
C0
C0
61
7F
1E
ENDCHAR
STARTCHAR uni0405
COMMENT "Index: 0 Size: 20"
ENCODING 1029
SWIDTH 500 0
DWIDTH 6 0
BBX 8 12 0 0
BITMAP
3E
7F
C2
C0
E0
7C
1E
07
03
43
FE
7C
ENDCHAR
STARTCHAR uni0406
COMMENT "Index: 0 Size: 20"
ENCODING 1030
SWIDTH 500 0
DWIDTH 6 0
BBX 8 12 0 0
BITMAP
FF
FF
18
18
18
18
18
18
18
18
FF
FF
ENDCHAR
STARTCHAR uni0407
COMMENT "Index: 0 Size: 18"
ENCODING 1031
SWIDTH 500 0
DWIDTH 6 0
BBX 6 15 0 0
BITMAP
6C
6C
00
00
FC
FC
30
30
30
30
30
30
30
FC
FC
ENDCHAR
STARTCHAR uni0408
COMMENT "Index: 0 Size: 20"
ENCODING 1032
SWIDTH 500 0
DWIDTH 6 0
BBX 8 12 0 0
BITMAP
3F
3F
03
03
03
03
03
03
03
47
FE
7C
ENDCHAR
STARTCHAR uni0409
COMMENT "Index: 0 Size: 20"
ENCODING 1033
SWIDTH 500 0
DWIDTH 6 0
BBX 10 12 0 0
BITMAP
7C00
7C00
6C00
6C00
6F80
6F80
6CC0
6CC0
6CC0
6CC0
CF80
CF00
ENDCHAR
STARTCHAR uni040A
COMMENT "Index: 0 Size: 20"
ENCODING 1034
SWIDTH 500 0
DWIDTH 6 0
BBX 9 12 0 0
BITMAP
D800
D800
D800
D800
DF00
FF00
F980
D980
D980
D980
DF00
DE00
ENDCHAR
STARTCHAR uni040B
COMMENT "Index: 0 Size: 20"
ENCODING 1035
SWIDTH 500 0
DWIDTH 6 0
BBX 9 12 0 0
BITMAP
FE00
FE00
3000
3000
3F00
3F80
3180
3180
3180
3180
3180
3180
ENDCHAR
STARTCHAR uni040C
COMMENT "Index: 0 Size: 18"
ENCODING 1036
SWIDTH 500 0
DWIDTH 6 0
BBX 8 15 0 0
BITMAP
08
1C
30
00
C3
C6
CC
D8
F8
F0
D8
CC
C6
C6
C3
ENDCHAR
STARTCHAR uni040D
COMMENT "Index: 0 Size: 18"
ENCODING 1037
SWIDTH 500 0
DWIDTH 6 0
BBX 7 15 0 0
BITMAP
10
38
0C
00
C6
CE
CE
DE
DE
D6
F6
E6
E6
C6
C6
ENDCHAR
STARTCHAR uni040E
COMMENT "Index: 0 Size: 18"
ENCODING 1038
SWIDTH 500 0
DWIDTH 6 0
BBX 9 15 0 0
BITMAP
3300
3F00
1E00
0000
E380
7300
7300
3700
3E00
1E00
0E00
0C00
1C00
F800
F000
ENDCHAR
STARTCHAR uni040F
COMMENT "Index: 0 Size: 20"
ENCODING 1039
SWIDTH 500 0
DWIDTH 6 0
BBX 8 15 0 -3
BITMAP
C3
C3
C3
C3
C3
C3
C3
C3
C3
C3
FF
FF
18
18
18
ENDCHAR
STARTCHAR uni0410
COMMENT "Index: 0 Size: 20"
ENCODING 1040
SWIDTH 500 0
DWIDTH 6 0
BBX 10 12 0 0
BITMAP
0E00
1E00
1E00
1F00
3300
3300
3380
7F80
7F80
6180
E1C0
E1C0
ENDCHAR
STARTCHAR uni0411
COMMENT "Index: 0 Size: 20"
ENCODING 1041
SWIDTH 500 0
DWIDTH 6 0
BBX 8 12 0 0
BITMAP
FE
FE
C0
C0
FC
FE
C7
C3
C3
C7
FE
FC
ENDCHAR
STARTCHAR uni0412
COMMENT "Index: 0 Size: 20"
ENCODING 1042
SWIDTH 500 0
DWIDTH 6 0
BBX 8 12 0 0
BITMAP
F8
FE
C6
C6
C6
FC
FE
C3
C3
C3
FE
FC
ENDCHAR
STARTCHAR uni0413
COMMENT "Index: 0 Size: 20"
ENCODING 1043
SWIDTH 500 0
DWIDTH 6 0
BBX 9 12 0 0
BITMAP
3F80
3F80
3000
3000
3000
3000
3000
3000
3000
3000
FE00
FE00
ENDCHAR
STARTCHAR uni0414
COMMENT "Index: 0 Size: 20"
ENCODING 1044
SWIDTH 500 0
DWIDTH 6 0
BBX 10 15 0 -3
BITMAP
3F80
3F80
3180
3180
3180
3180
3180
3180
6180
6180
FFC0
FFC0
C0C0
C0C0
C0C0
ENDCHAR
STARTCHAR uni0415
COMMENT "Index: 0 Size: 20"
ENCODING 1045
SWIDTH 500 0
DWIDTH 6 0
BBX 8 12 0 0
BITMAP
FF
FF
C0
C0
C0
FE
FE
C0
C0
C0
FF
FF
ENDCHAR
STARTCHAR uni0416
COMMENT "Index: 0 Size: 20"
ENCODING 1046
SWIDTH 500 0
DWIDTH 6 0
BBX 10 12 0 0
BITMAP
CCC0
6D80
6D80
6D80
3F00
3F00
3F00
2D00
6D80
6D80
CCC0
CCC0
ENDCHAR
STARTCHAR uni0417
COMMENT "Index: 0 Size: 20"
ENCODING 1047
SWIDTH 500 0
DWIDTH 6 0
BBX 9 12 0 0
BITMAP
7C00
FF00
4300
0300
0300
3C00
3F00
0180
0180
4380
FF00
7E00
ENDCHAR
STARTCHAR uni0418
COMMENT "Index: 0 Size: 20"
ENCODING 1048
SWIDTH 500 0
DWIDTH 6 0
BBX 8 12 0 0
BITMAP
C3
C7
CF
CF
DF
DB
FB
F3
F3
E3
E3
C3
ENDCHAR
STARTCHAR uni0419
COMMENT "Index: 0 Size: 18"
ENCODING 1049
SWIDTH 500 0
DWIDTH 6 0
BBX 7 15 0 0
BITMAP
CC
FC
78
00
C6
CE
CE
DE
DE
D6
F6
E6
E6
C6
C6
ENDCHAR
STARTCHAR uni041A
COMMENT "Index: 0 Size: 20"
ENCODING 1050
SWIDTH 500 0
DWIDTH 6 0
BBX 9 12 0 0
BITMAP
C180
C300
C600
CC00
D800
F000
F800
DC00
CE00
C700
C300
C180
ENDCHAR
STARTCHAR uni041B
COMMENT "Index: 0 Size: 20"
ENCODING 1051
SWIDTH 500 0
DWIDTH 6 0
BBX 9 12 0 0
BITMAP
1F80
1F80
1980
1980
1980
1980
1980
3980
3180
7180
E180
C180
ENDCHAR
STARTCHAR uni041C
COMMENT "Index: 0 Size: 20"
ENCODING 1052
SWIDTH 500 0
DWIDTH 6 0
BBX 9 12 0 0
BITMAP
6300
6300
F700
F700
D580
DD80
DD80
DD80
C180
C180
C180
C180
ENDCHAR
STARTCHAR uni041D
COMMENT "Index: 0 Size: 20"
ENCODING 1053
SWIDTH 500 0
DWIDTH 6 0
BBX 8 12 0 0
BITMAP
C3
C3
C3
C3
C3
FF
FF
C3
C3
C3
C3
C3
ENDCHAR
STARTCHAR uni041E
COMMENT "Index: 0 Size: 20"
ENCODING 1054
SWIDTH 500 0
DWIDTH 6 0
BBX 8 12 0 0
BITMAP
3C
7E
66
C3
C3
C3
C3
C3
C3
66
7E
3C
ENDCHAR
STARTCHAR uni041F
COMMENT "Index: 0 Size: 20"
ENCODING 1055
SWIDTH 500 0
DWIDTH 6 0
BBX 7 12 0 0
BITMAP
FE
FE
C6
C6
C6
C6
C6
C6
C6
C6
C6
C6
ENDCHAR
STARTCHAR uni0420
COMMENT "Index: 0 Size: 20"
ENCODING 1056
SWIDTH 500 0
DWIDTH 6 0
BBX 8 12 0 0
BITMAP
FC
FE
C7
C3
C3
C7
FE
FC
C0
C0
C0
C0
ENDCHAR
STARTCHAR uni0421
COMMENT "Index: 0 Size: 20"
ENCODING 1057
SWIDTH 500 0
DWIDTH 6 0
BBX 8 12 0 0
BITMAP
1E
3F
61
C0
C0
C0
C0
C0
C0
61
7F
1E
ENDCHAR
STARTCHAR uni0422
COMMENT "Index: 0 Size: 20"
ENCODING 1058
SWIDTH 500 0
DWIDTH 6 0
BBX 8 12 0 0
BITMAP
FF
FF
18
18
18
18
18
18
18
18
18
18
ENDCHAR
STARTCHAR uni0423
COMMENT "Index: 0 Size: 20"
ENCODING 1059
SWIDTH 500 0
DWIDTH 6 0
BBX 9 12 0 0
BITMAP
E380
6300
7700
7700
3600
3600
1E00
1C00
1C00
1800
F800
F000
ENDCHAR
STARTCHAR uni0424
COMMENT "Index: 0 Size: 20"
ENCODING 1060
SWIDTH 500 0
DWIDTH 6 0
BBX 8 13 0 0
BITMAP
18
3C
7E
DB
DB
DB
DB
DB
DB
DB
7E
3C
18
ENDCHAR
STARTCHAR uni0425
COMMENT "Index: 0 Size: 20"
ENCODING 1061
SWIDTH 500 0
DWIDTH 6 0
BBX 10 12 0 0
BITMAP
E1C0
7380
3300
3F00
1E00
1E00
1E00
3F00
3300
7380
6180
E1C0
ENDCHAR
STARTCHAR uni0426
COMMENT "Index: 0 Size: 20"
ENCODING 1062
SWIDTH 500 0
DWIDTH 6 0
BBX 8 15 0 -3
BITMAP
C6
C6
C6
C6
C6
C6
C6
C6
C6
C6
FF
FF
03
03
03
ENDCHAR
STARTCHAR uni0427
COMMENT "Index: 0 Size: 20"
ENCODING 1063
SWIDTH 500 0
DWIDTH 6 0
BBX 8 12 0 0
BITMAP
C7
C7
C7
C7
C7
C7
7F
7F
07
07
07
07
ENDCHAR
STARTCHAR uni0428
COMMENT "Index: 0 Size: 20"
ENCODING 1064
SWIDTH 500 0
DWIDTH 6 0
BBX 10 12 0 0
BITMAP
C0C0
C0C0
C0C0
C0C0
CCC0
CCC0
CCC0
CCC0
CCC0
CCC0
FFC0
FFC0
ENDCHAR
STARTCHAR uni0429
COMMENT "Index: 0 Size: 20"
ENCODING 1065
SWIDTH 500 0
DWIDTH 6 0
BBX 9 15 0 -3
BITMAP
C300
C300
C300
C300
DB00
DB00
DB00
DB00
DB00
DB00
FF80
FF80
0180
0180
0180
ENDCHAR
STARTCHAR uni042A
COMMENT "Index: 0 Size: 20"
ENCODING 1066
SWIDTH 500 0
DWIDTH 6 0
BBX 9 12 0 0
BITMAP
F000
F000
3000
3000
3E00
3F00
3380
3180
3180
3380
3F00
3E00
ENDCHAR
STARTCHAR uni042B
COMMENT "Index: 0 Size: 20"
ENCODING 1067
SWIDTH 500 0
DWIDTH 6 0
BBX 8 12 0 0
BITMAP
C3
C3
C3
C3
F3
FB
DB
DB
DB
DB
FB
F3
ENDCHAR
STARTCHAR uni042C
COMMENT "Index: 0 Size: 20"
ENCODING 1068
SWIDTH 500 0
DWIDTH 6 0
BBX 8 12 0 0
BITMAP
C0
C0
C0
C0
FC
FE
C7
C3
C3
C7
FE
FC
ENDCHAR
STARTCHAR uni042D
COMMENT "Index: 0 Size: 20"
ENCODING 1069
SWIDTH 500 0
DWIDTH 6 0
BBX 9 12 0 0
BITMAP
7C00
FE00
4300
0180
0180
1F80
1F80
0180
0180
8300
FE00
7C00
ENDCHAR
STARTCHAR uni042E
COMMENT "Index: 0 Size: 20"
ENCODING 1070
SWIDTH 500 0
DWIDTH 6 0
BBX 9 12 0 0
BITMAP
CF00
CF00
D980
D980
D980
F980
F980
D980
D980
D980
CF00
CF00
ENDCHAR
STARTCHAR uni042F
COMMENT "Index: 0 Size: 20"
ENCODING 1071
SWIDTH 500 0
DWIDTH 6 0
BBX 9 12 0 0
BITMAP
1F80
3F80
7180
6180
6180
7180
3F80
3F80
3180
6180
6180
C180
ENDCHAR
STARTCHAR uni0430
COMMENT "Index: 0 Size: 20"
ENCODING 1072
SWIDTH 500 0
DWIDTH 6 0
BBX 8 9 0 0
BITMAP
7E
7F
03
3F
FF
C3
C3
FF
7F
ENDCHAR
STARTCHAR uni0431
COMMENT "Index: 0 Size: 20"
ENCODING 1073
SWIDTH 500 0
DWIDTH 6 0
BBX 8 14 0 0
BITMAP
07
1F
78
60
E0
FC
FE
C7
C3
C3
C3
E7
7E
3C
ENDCHAR
STARTCHAR uni0432
COMMENT "Index: 0 Size: 20"
ENCODING 1074
SWIDTH 500 0
DWIDTH 6 0
BBX 8 9 0 0
BITMAP
FE
FF
C3
C3
FF
FF
C3
FF
FC
ENDCHAR
STARTCHAR uni0433
COMMENT "Index: 0 Size: 20"
ENCODING 1075
SWIDTH 500 0
DWIDTH 6 0
BBX 7 9 0 0
BITMAP
FE
FE
C0
C0
C0
C0
C0
C0
C0
ENDCHAR
STARTCHAR uni0434
COMMENT "Index: 0 Size: 20"
ENCODING 1076
SWIDTH 500 0
DWIDTH 6 0
BBX 9 12 0 -3
BITMAP
3F00
3F00
3300
3300
3300
7300
6300
FF80
FF80
C180
C180
C180
ENDCHAR
STARTCHAR uni0435
COMMENT "Index: 0 Size: 20"
ENCODING 1077
SWIDTH 500 0
DWIDTH 6 0
BBX 8 9 0 0
BITMAP
3C
7E
E7
C3
FF
FF
C0
7E
3E
ENDCHAR
STARTCHAR uni0436
COMMENT "Index: 0 Size: 20"
ENCODING 1078
SWIDTH 500 0
DWIDTH 6 0
BBX 10 9 0 0
BITMAP
CCC0
6D80
6D80
3F00
3F00
3F00
6D80
6D80
CCC0
ENDCHAR
STARTCHAR uni0437
COMMENT "Index: 0 Size: 20"
ENCODING 1079
SWIDTH 500 0
DWIDTH 6 0
BBX 8 9 0 0
BITMAP
FE
FF
03
7F
7E
03
C3
FF
7E
ENDCHAR
STARTCHAR uni0438
COMMENT "Index: 0 Size: 20"
ENCODING 1080
SWIDTH 500 0
DWIDTH 6 0
BBX 7 9 0 0
BITMAP
C6
CE
DE
DE
F6
F6
E6
E6
C6
ENDCHAR
STARTCHAR uni0439
COMMENT "Index: 0 Size: 20"
ENCODING 1081
SWIDTH 500 0
DWIDTH 6 0
BBX 7 14 0 0
BITMAP
CC
FC
78
00
00
C6
CE
DE
DE
F6
F6
E6
E6
C6
ENDCHAR
STARTCHAR uni043A
COMMENT "Index: 0 Size: 20"
ENCODING 1082
SWIDTH 500 0
DWIDTH 6 0
BBX 8 9 0 0
BITMAP
C7
CE
DC
F8
F8
D8
CC
C6
C3
ENDCHAR
STARTCHAR uni043B
COMMENT "Index: 0 Size: 20"
ENCODING 1083
SWIDTH 500 0
DWIDTH 6 0
BBX 8 9 0 0
BITMAP
3F
3F
33
33
33
33
63
E3
C3
ENDCHAR
STARTCHAR uni043C
COMMENT "Index: 0 Size: 20"
ENCODING 1084
SWIDTH 500 0
DWIDTH 6 0
BBX 10 9 0 0
BITMAP
6180
7380
7380
F3C0
FFC0
EDC0
EDC0
E1C0
E1C0
ENDCHAR
STARTCHAR uni043D
COMMENT "Index: 0 Size: 20"
ENCODING 1085
SWIDTH 500 0
DWIDTH 6 0
BBX 7 9 0 0
BITMAP
C6
C6
C6
C6
FE
FE
C6
C6
C6
ENDCHAR
STARTCHAR uni043E
COMMENT "Index: 0 Size: 20"
ENCODING 1086
SWIDTH 500 0
DWIDTH 6 0
BBX 8 9 0 0
BITMAP
3C
7E
E7
C3
C3
C3
E7
7E
3C
ENDCHAR
STARTCHAR uni043F
COMMENT "Index: 0 Size: 20"
ENCODING 1087
SWIDTH 500 0
DWIDTH 6 0
BBX 8 9 0 0
BITMAP
FF
FF
E7
E7
E7
E7
E7
E7
E7
ENDCHAR
STARTCHAR uni0440
COMMENT "Index: 0 Size: 20"
ENCODING 1088
SWIDTH 500 0
DWIDTH 6 0
BBX 8 12 0 -3
BITMAP
FC
FE
C7
C3
C3
C3
C7
FE
FC
C0
C0
C0
ENDCHAR
STARTCHAR uni0441
COMMENT "Index: 0 Size: 20"
ENCODING 1089
SWIDTH 500 0
DWIDTH 6 0
BBX 8 9 0 0
BITMAP
1F
7F
E0
C0
C0
C0
E0
7F
3F
ENDCHAR
STARTCHAR uni0442
COMMENT "Index: 0 Size: 20"
ENCODING 1090
SWIDTH 500 0
DWIDTH 6 0
BBX 8 9 0 0
BITMAP
FF
FF
18
18
18
18
18
18
18
ENDCHAR
STARTCHAR uni0443
COMMENT "Index: 0 Size: 20"
ENCODING 1091
SWIDTH 500 0
DWIDTH 6 0
BBX 9 12 0 -3
BITMAP
6180
6180
3300
3300
3300
1B00
1E00
1E00
0E00
1C00
F800
F000
ENDCHAR
STARTCHAR uni0444
COMMENT "Index: 0 Size: 20"
ENCODING 1092
SWIDTH 500 0
DWIDTH 6 0
BBX 10 17 0 -3
BITMAP
0400
0C00
0C00
0C00
0C00
3F00
7F80
EDC0
CCC0
CCC0
CCC0
EDC0
7F80
3F00
0C00
0C00
0C00
ENDCHAR
STARTCHAR uni0445
COMMENT "Index: 0 Size: 20"
ENCODING 1093
SWIDTH 500 0
DWIDTH 6 0
BBX 10 9 0 0
BITMAP
E1C0
7380
3B00
1E00
0E00
1F00
3B00
7380
E1C0
ENDCHAR
STARTCHAR uni0446
COMMENT "Index: 0 Size: 20"
ENCODING 1094
SWIDTH 500 0
DWIDTH 6 0
BBX 7 12 0 -3
BITMAP
CC
CC
CC
CC
CC
CC
CC
FE
FE
06
06
06
ENDCHAR
STARTCHAR uni0447
COMMENT "Index: 0 Size: 20"
ENCODING 1095
SWIDTH 500 0
DWIDTH 6 0
BBX 8 9 0 0
BITMAP
C3
C3
C3
C3
FF
7F
03
03
03
ENDCHAR
STARTCHAR uni0448
COMMENT "Index: 0 Size: 20"
ENCODING 1096
SWIDTH 500 0
DWIDTH 6 0
BBX 8 9 0 0
BITMAP
C3
C3
DB
DB
DB
DB
DB
FF
FF
ENDCHAR
STARTCHAR uni0449
COMMENT "Index: 0 Size: 20"
ENCODING 1097
SWIDTH 500 0
DWIDTH 6 0
BBX 9 12 0 -3
BITMAP
C300
C300
DB00
DB00
DB00
DB00
DB00
FF80
FF80
0180
0180
0180
ENDCHAR
STARTCHAR uni044A
COMMENT "Index: 0 Size: 20"
ENCODING 1098
SWIDTH 500 0
DWIDTH 6 0
BBX 9 9 0 0
BITMAP
F000
F000
3000
3F00
3F80
3180
3180
3F80
3F00
ENDCHAR
STARTCHAR uni044B
COMMENT "Index: 0 Size: 20"
ENCODING 1099
SWIDTH 500 0
DWIDTH 6 0
BBX 8 9 0 0
BITMAP
C3
C3
C3
F3
FB
DB
DB
FB
F3
ENDCHAR
STARTCHAR uni044C
COMMENT "Index: 0 Size: 20"
ENCODING 1100
SWIDTH 500 0
DWIDTH 6 0
BBX 8 9 0 0
BITMAP
C0
C0
C0
FC
FF
C3
C3
FF
FE
ENDCHAR
STARTCHAR uni044D
COMMENT "Index: 0 Size: 20"
ENCODING 1101
SWIDTH 500 0
DWIDTH 6 0
BBX 8 9 0 0
BITMAP
FC
FE
03
3F
3F
03
07
FE
FC
ENDCHAR
STARTCHAR uni044E
COMMENT "Index: 0 Size: 20"
ENCODING 1102
SWIDTH 500 0
DWIDTH 6 0
BBX 9 9 0 0
BITMAP
CF00
CF80
D980
D980
F980
F980
D980
DF00
CF00
ENDCHAR
STARTCHAR uni044F
COMMENT "Index: 0 Size: 20"
ENCODING 1103
SWIDTH 500 0
DWIDTH 6 0
BBX 9 9 0 0
BITMAP
1F80
7F80
6180
6180
7F80
3F80
7180
6180
C180
ENDCHAR
STARTCHAR uni0450
COMMENT "Index: 0 Size: 20"
ENCODING 1104
SWIDTH 500 0
DWIDTH 6 0
BBX 8 14 0 0
BITMAP
20
38
3C
08
00
3C
7E
E7
C3
FF
FF
C0
7E
3E
ENDCHAR
STARTCHAR uni0451
COMMENT "Index: 0 Size: 20"
ENCODING 1105
SWIDTH 500 0
DWIDTH 6 0
BBX 8 14 0 0
BITMAP
77
77
77
00
00
3C
7E
E7
C3
FF
FF
C0
7E
3E
ENDCHAR
STARTCHAR uni0452
COMMENT "Index: 0 Size: 20"
ENCODING 1106
SWIDTH 500 0
DWIDTH 6 0
BBX 8 17 0 -3
BITMAP
20
60
FC
FC
60
7E
7E
63
63
63
63
63
63
63
03
1F
1E
ENDCHAR
STARTCHAR uni0453
COMMENT "Index: 0 Size: 20"
ENCODING 1107
SWIDTH 500 0
DWIDTH 6 0
BBX 7 14 0 0
BITMAP
08
18
38
20
00
FE
FE
C0
C0
C0
C0
C0
C0
C0
ENDCHAR
STARTCHAR uni0454
COMMENT "Index: 0 Size: 20"
ENCODING 1108
SWIDTH 500 0
DWIDTH 6 0
BBX 8 9 0 0
BITMAP
1F
7F
E0
C0
FC
FC
C0
7F
3F
ENDCHAR
STARTCHAR uni0455
COMMENT "Index: 0 Size: 20"
ENCODING 1109
SWIDTH 500 0
DWIDTH 6 0
BBX 8 9 0 0
BITMAP
3F
FF
C1
E0
7E
0F
83
FF
7E
ENDCHAR
STARTCHAR uni0456
COMMENT "Index: 0 Size: 20"
ENCODING 1110
SWIDTH 500 0
DWIDTH 6 0
BBX 9 14 0 0
BITMAP
3000
3000
0000
F800
F800
1800
1800
1800
1800
1800
1800
1800
1F00
0F80
ENDCHAR
STARTCHAR uni0457
COMMENT "Index: 0 Size: 20"
ENCODING 1111
SWIDTH 500 0
DWIDTH 6 0
BBX 8 14 0 0
BITMAP
CC
EE
CC
00
00
F8
F8
18
18
18
18
19
1F
0F
ENDCHAR
STARTCHAR uni0458
COMMENT "Index: 0 Size: 20"
ENCODING 1112
SWIDTH 500 0
DWIDTH 6 0
BBX 7 17 0 -3
BITMAP
0C
0C
00
7E
7E
06
06
06
06
06
06
06
06
06
46
7C
7C
ENDCHAR
STARTCHAR uni0459
COMMENT "Index: 0 Size: 20"
ENCODING 1113
SWIDTH 500 0
DWIDTH 6 0
BBX 10 9 0 0
BITMAP
7C00
7C00
6C00
6F80
6FC0
6CC0
6CC0
EFC0
CF80
ENDCHAR
STARTCHAR uni045A
COMMENT "Index: 0 Size: 20"
ENCODING 1114
SWIDTH 500 0
DWIDTH 6 0
BBX 9 9 0 0
BITMAP
D800
D800
D800
DF00
FF80
F980
D980
DF80
DF00
ENDCHAR
STARTCHAR uni045B
COMMENT "Index: 0 Size: 20"
ENCODING 1115
SWIDTH 500 0
DWIDTH 6 0
BBX 8 14 0 0
BITMAP
60
60
FC
FC
60
7E
7E
63
63
63
63
63
63
63
ENDCHAR
STARTCHAR uni045C
COMMENT "Index: 0 Size: 20"
ENCODING 1116
SWIDTH 500 0
DWIDTH 6 0
BBX 8 14 0 0
BITMAP
08
1C
3C
10
00
C7
CE
DC
F8
F8
D8
CC
C6
C3
ENDCHAR
STARTCHAR uni045D
COMMENT "Index: 0 Size: 20"
ENCODING 1117
SWIDTH 500 0
DWIDTH 6 0
BBX 7 14 0 0
BITMAP
20
38
3C
08
00
C6
CE
DE
DE
F6
F6
E6
E6
C6
ENDCHAR
STARTCHAR uni045E
COMMENT "Index: 0 Size: 20"
ENCODING 1118
SWIDTH 500 0
DWIDTH 6 0
BBX 9 17 0 -3
BITMAP
3300
3F00
1E00
0000
0000
6180
6180
3300
3300
3300
1B00
1E00
1E00
0E00
1C00
F800
F000
ENDCHAR
STARTCHAR uni045F
COMMENT "Index: 0 Size: 20"
ENCODING 1119
SWIDTH 500 0
DWIDTH 6 0
BBX 6 12 0 -3
BITMAP
CC
CC
CC
CC
CC
CC
CC
FC
FC
30
30
30
ENDCHAR
STARTCHAR uni1E80
COMMENT "Index: 0 Size: 18"
ENCODING 7808
SWIDTH 500 0
DWIDTH 6 0
BBX 8 15 0 0
BITMAP
20
38
08
00
C3
C3
C3
C3
DB
DB
FF
FF
E7
E7
66
ENDCHAR
STARTCHAR uni1E81
COMMENT "Index: 0 Size: 20"
ENCODING 7809
SWIDTH 500 0
DWIDTH 6 0
BBX 10 14 0 0
BITMAP
1000
1800
1C00
0400
0000
C1C0
C1C0
CDC0
DDC0
7D80
7780
7780
7380
3300
ENDCHAR
STARTCHAR uni1E82
COMMENT "Index: 0 Size: 18"
ENCODING 7810
SWIDTH 500 0
DWIDTH 6 0
BBX 8 15 0 0
BITMAP
08
1C
30
00
C3
C3
C3
C3
DB
DB
FF
FF
E7
E7
66
ENDCHAR
STARTCHAR uni1E83
COMMENT "Index: 0 Size: 20"
ENCODING 7811
SWIDTH 500 0
DWIDTH 6 0
BBX 10 14 0 0
BITMAP
0400
0E00
1C00
0800
0000
C1C0
C1C0
CDC0
DDC0
7D80
7780
7780
7380
3300
ENDCHAR
STARTCHAR uni3041
COMMENT "Index: 1 Size: 13"
ENCODING 12353
SWIDTH 500 0
DWIDTH 6 0
BBX 7 7 0 -1
BITMAP
20
78
28
7C
72
A2
44
ENDCHAR
STARTCHAR uni3042
COMMENT "Index: 1 Size: 13"
ENCODING 12354
SWIDTH 500 0
DWIDTH 6 0
BBX 9 11 0 -1
BITMAP
2000
1600
F800
2400
3E00
2500
6880
A880
9080
A100
4600
ENDCHAR
STARTCHAR uni3043
COMMENT "Index: 1 Size: 13"
ENCODING 12355
SWIDTH 500 0
DWIDTH 6 0
BBX 6 5 0 0
BITMAP
40
48
84
A4
40
ENDCHAR
STARTCHAR uni3044
COMMENT "Index: 1 Size: 13"
ENCODING 12356
SWIDTH 500 0
DWIDTH 6 0
BBX 10 8 0 0
BITMAP
8000
4300
4080
4040
4840
50C0
3040
1000
ENDCHAR
STARTCHAR uni3045
COMMENT "Index: 1 Size: 13"
ENCODING 12357
SWIDTH 500 0
DWIDTH 6 0
BBX 5 7 0 -1
BITMAP
40
30
70
88
08
10
20
ENDCHAR
STARTCHAR uni3046
COMMENT "Index: 1 Size: 13"
ENCODING 12358
SWIDTH 500 0
DWIDTH 6 0
BBX 7 12 0 -2
BITMAP
20
18
00
3C
C2
02
02
02
04
04
08
10
ENDCHAR
STARTCHAR uni3047
COMMENT "Index: 1 Size: 13"
ENCODING 12359
SWIDTH 500 0
DWIDTH 6 0
BBX 7 7 0 -1
BITMAP
20
10
7C
08
30
48
8E
ENDCHAR
STARTCHAR uni3048
COMMENT "Index: 1 Size: 13"
ENCODING 12360
SWIDTH 500 0
DWIDTH 6 0
BBX 9 11 0 -1
BITMAP
1000
0C00
0000
4E00
3200
0400
0800
1800
2400
4400
8380
ENDCHAR
STARTCHAR uni3049
COMMENT "Index: 1 Size: 13"
ENCODING 12361
SWIDTH 500 0
DWIDTH 6 0
BBX 7 7 0 -1
BITMAP
20
34
E2
38
64
A4
48
ENDCHAR
STARTCHAR uni304A
COMMENT "Index: 1 Size: 13"
ENCODING 12362
SWIDTH 500 0
DWIDTH 6 0
BBX 10 11 0 -1
BITMAP
1000
1000
1500
78C0
1040
1700
1880
7040
D240
3180
1000
ENDCHAR
STARTCHAR uni304B
COMMENT "Index: 1 Size: 13"
ENCODING 12363
SWIDTH 500 0
DWIDTH 6 0
BBX 10 10 0 -1
BITMAP
2000
1100
9C80
7240
1240
12C0
2200
2200
4A00
4400
ENDCHAR
STARTCHAR uni304C
COMMENT "Index: 1 Size: 13"
ENCODING 12364
SWIDTH 500 0
DWIDTH 6 0
BBX 11 11 0 -1
BITMAP
00A0
20A0
1100
9C80
7240
1240
12C0
2200
2200
4A00
4400
ENDCHAR
STARTCHAR uni304D
COMMENT "Index: 1 Size: 13"
ENCODING 12365
SWIDTH 500 0
DWIDTH 6 0
BBX 7 11 0 -1
BITMAP
10
1C
F0
0E
F8
04
3A
46
80
40
3C
ENDCHAR
STARTCHAR uni304E
COMMENT "Index: 1 Size: 13"
ENCODING 12366
SWIDTH 500 0
DWIDTH 6 0
BBX 8 11 0 -1
BITMAP
15
1D
F0
0E
F8
04
3A
46
80
40
3C
ENDCHAR
STARTCHAR uni304F
COMMENT "Index: 1 Size: 13"
ENCODING 12367
SWIDTH 500 0
DWIDTH 6 0
BBX 5 11 0 -1
BITMAP
10
08
10
20
40
80
40
20
10
08
08
ENDCHAR
STARTCHAR uni3050
COMMENT "Index: 1 Size: 13"
ENCODING 12368
SWIDTH 500 0
DWIDTH 6 0
BBX 8 11 0 -1
BITMAP
10
08
15
25
40
80
40
20
10
08
08
ENDCHAR
STARTCHAR uni3051
COMMENT "Index: 1 Size: 13"
ENCODING 12369
SWIDTH 500 0
DWIDTH 6 0
BBX 10 11 0 -1
BITMAP
0200
8100
41C0
5F00
8100
8100
8100
8100
6200
4200
0400
ENDCHAR
STARTCHAR uni3052
COMMENT "Index: 1 Size: 13"
ENCODING 12370
SWIDTH 500 0
DWIDTH 6 0
BBX 11 11 0 -1
BITMAP
04A0
82A0
41C0
5F00
8100
8100
8100
8100
6200
4200
0400
ENDCHAR
STARTCHAR uni3053
COMMENT "Index: 1 Size: 13"
ENCODING 12371
SWIDTH 500 0
DWIDTH 6 0
BBX 8 9 0 0
BITMAP
40
3E
04
00
00
80
80
41
3E
ENDCHAR
STARTCHAR uni3054
COMMENT "Index: 1 Size: 13"
ENCODING 12372
SWIDTH 500 0
DWIDTH 6 0
BBX 9 9 0 0
BITMAP
4280
3E80
0400
0000
0000
8000
8000
4100
3E00
ENDCHAR
STARTCHAR uni3055
COMMENT "Index: 1 Size: 13"
ENCODING 12373
SWIDTH 500 0
DWIDTH 6 0
BBX 7 11 0 -1
BITMAP
20
10
8E
78
04
04
7A
86
80
60
1C
ENDCHAR
STARTCHAR uni3056
COMMENT "Index: 1 Size: 13"
ENCODING 12374
SWIDTH 500 0
DWIDTH 6 0
BBX 9 11 0 -1
BITMAP
2280
1280
8E00
7800
0400
0400
7A00
8600
8000
6000
1C00
ENDCHAR
STARTCHAR uni3057
COMMENT "Index: 1 Size: 13"
ENCODING 12375
SWIDTH 500 0
DWIDTH 6 0
BBX 8 10 0 -1
BITMAP
80
40
40
40
40
40
40
41
26
18
ENDCHAR
STARTCHAR uni3058
COMMENT "Index: 1 Size: 13"
ENCODING 12376
SWIDTH 500 0
DWIDTH 6 0
BBX 8 10 0 -1
BITMAP
80
45
45
40
40
40
40
41
26
18
ENDCHAR
STARTCHAR uni3059
COMMENT "Index: 1 Size: 13"
ENCODING 12377
SWIDTH 500 0
DWIDTH 6 0
BBX 10 12 0 -2
BITMAP
0400
0200
83C0
7E00
0A00
1600
1200
0E00
0200
0200
0400
0800
ENDCHAR
STARTCHAR uni305A
COMMENT "Index: 1 Size: 13"
ENCODING 12378
SWIDTH 500 0
DWIDTH 6 0
BBX 11 12 0 -2
BITMAP
04A0
02A0
83C0
7E00
0A00
1600
1200
0E00
0200
0200
0400
0800
ENDCHAR
STARTCHAR uni305B
COMMENT "Index: 1 Size: 13"
ENCODING 12379
SWIDTH 500 0
DWIDTH 6 0
BBX 11 10 0 -1
BITMAP
0200
2100
11E0
9700
7900
1100
1300
1000
0800
0780
ENDCHAR
STARTCHAR uni305C
COMMENT "Index: 1 Size: 13"
ENCODING 12380
SWIDTH 500 0
DWIDTH 6 0
BBX 12 10 0 -1
BITMAP
0250
2150
11E0
9700
7900
1100
1300
1000
0800
0780
ENDCHAR
STARTCHAR uni305D
COMMENT "Index: 1 Size: 13"
ENCODING 12381
SWIDTH 500 0
DWIDTH 6 0
BBX 9 10 0 -1
BITMAP
4E00
3400
0800
1380
FC00
0800
1000
1000
0800
0600
ENDCHAR
STARTCHAR uni305E
COMMENT "Index: 1 Size: 13"
ENCODING 12382
SWIDTH 500 0
DWIDTH 6 0
BBX 10 10 0 -1
BITMAP
4D40
3540
0800
1380
FC00
0800
1000
1000
0800
0600
ENDCHAR
STARTCHAR uni305F
COMMENT "Index: 1 Size: 13"
ENCODING 12383
SWIDTH 500 0
DWIDTH 6 0
BBX 9 11 0 -1
BITMAP
2000
1000
1C00
E000
2700
2180
4200
4000
4800
8800
8780
ENDCHAR
STARTCHAR uni3060
COMMENT "Index: 1 Size: 13"
ENCODING 12384
SWIDTH 500 0
DWIDTH 6 0
BBX 10 11 0 -1
BITMAP
2000
1140
1D40
E000
2700
2180
4200
4000
4800
8800
8780
ENDCHAR
STARTCHAR uni3061
COMMENT "Index: 1 Size: 13"
ENCODING 12385
SWIDTH 500 0
DWIDTH 6 0
BBX 9 11 0 -1
BITMAP
1000
0800
8F00
7800
1000
1600
3900
2080
0080
0300
1C00
ENDCHAR
STARTCHAR uni3062
COMMENT "Index: 1 Size: 13"
ENCODING 12386
SWIDTH 500 0
DWIDTH 6 0
BBX 11 11 0 -1
BITMAP
1000
08A0
8FA0
7800
1000
1600
3900
2080
0080
0300
1C00
ENDCHAR
STARTCHAR uni3063
COMMENT "Index: 1 Size: 13"
ENCODING 12387
SWIDTH 500 0
DWIDTH 6 0
BBX 6 5 0 -1
BITMAP
38
C4
04
08
30
ENDCHAR
STARTCHAR uni3064
COMMENT "Index: 1 Size: 13"
ENCODING 12388
SWIDTH 500 0
DWIDTH 6 0
BBX 10 7 0 1
BITMAP
0F00
B080
4040
0040
0080
0300
0C00
ENDCHAR
STARTCHAR uni3065
COMMENT "Index: 1 Size: 13"
ENCODING 12389
SWIDTH 500 0
DWIDTH 6 0
BBX 11 8 0 1
BITMAP
00A0
0FA0
B080
4040
0040
0080
0300
0C00
ENDCHAR
STARTCHAR uni3066
COMMENT "Index: 1 Size: 13"
ENCODING 12390
SWIDTH 500 0
DWIDTH 6 0
BBX 9 9 0 0
BITMAP
8380
7C00
0400
0800
1000
1000
1000
0800
0700
ENDCHAR
STARTCHAR uni3067
COMMENT "Index: 1 Size: 13"
ENCODING 12391
SWIDTH 500 0
DWIDTH 6 0
BBX 10 9 0 0
BITMAP
8380
7C00
0540
0940
1000
1000
1000
0800
0700
ENDCHAR
STARTCHAR uni3068
COMMENT "Index: 1 Size: 13"
ENCODING 12392
SWIDTH 500 0
DWIDTH 6 0
BBX 7 9 0 0
BITMAP
40
20
26
28
30
40
80
40
3E
ENDCHAR
STARTCHAR uni3069
COMMENT "Index: 1 Size: 13"
ENCODING 12393
SWIDTH 500 0
DWIDTH 6 0
BBX 9 9 0 0
BITMAP
4280
2280
2600
2800
3000
4000
8000
4000
3E00
ENDCHAR
STARTCHAR uni306A
COMMENT "Index: 1 Size: 13"
ENCODING 12394
SWIDTH 500 0
DWIDTH 6 0
BBX 9 11 0 -1
BITMAP
2000
1400
FB00
2180
2200
4200
4200
9E00
2300
2280
1C00
ENDCHAR
STARTCHAR uni306B
COMMENT "Index: 1 Size: 13"
ENCODING 12395
SWIDTH 500 0
DWIDTH 6 0
BBX 9 10 0 -1
BITMAP
8000
4700
5980
8200
8000
8000
8800
A800
C780
4000
ENDCHAR
STARTCHAR uni306C
COMMENT "Index: 1 Size: 13"
ENCODING 12396
SWIDTH 500 0
DWIDTH 6 0
BBX 10 11 0 -1
BITMAP
0800
0400
0400
4F00
5480
6440
6840
A840
9340
A480
4380
ENDCHAR
STARTCHAR uni306D
COMMENT "Index: 1 Size: 13"
ENCODING 12397
SWIDTH 500 0
DWIDTH 6 0
BBX 11 11 0 -1
BITMAP
2000
1000
1000
9B80
7440
1840
3040
3040
51C0
B260
1180
ENDCHAR
STARTCHAR uni306E
COMMENT "Index: 1 Size: 13"
ENCODING 12398
SWIDTH 500 0
DWIDTH 6 0
BBX 9 9 0 0
BITMAP
1C00
2A00
4900
8880
9080
9080
A100
4200
0C00
ENDCHAR
STARTCHAR uni306F
COMMENT "Index: 1 Size: 13"
ENCODING 12399
SWIDTH 500 0
DWIDTH 6 0
BBX 10 11 0 -1
BITMAP
0200
8100
51C0
4F00
8100
8100
8100
8F00
B180
D140
4E00
ENDCHAR
STARTCHAR uni3070
COMMENT "Index: 1 Size: 13"
ENCODING 12400
SWIDTH 500 0
DWIDTH 6 0
BBX 11 11 0 -1
BITMAP
02A0
81A0
51C0
4F00
8100
8100
8100
8F00
B180
D140
4E00
ENDCHAR
STARTCHAR uni3071
COMMENT "Index: 1 Size: 13"
ENCODING 12401
SWIDTH 500 0
DWIDTH 6 0
BBX 11 11 0 -1
BITMAP
02C0
8120
51C0
4F00
8100
8100
8100
8F00
B180
D140
4E00
ENDCHAR
STARTCHAR uni3072
COMMENT "Index: 1 Size: 13"
ENCODING 12402
SWIDTH 500 0
DWIDTH 6 0
BBX 10 10 0 -1
BITMAP
0200
1200
F100
2100
2180
4140
4100
4100
2200
1C00
ENDCHAR
STARTCHAR uni3073
COMMENT "Index: 1 Size: 13"
ENCODING 12403
SWIDTH 500 0
DWIDTH 6 0
BBX 11 10 0 -1
BITMAP
02A0
12A0
F100
2100
2180
4140
4100
4100
2200
1C00
ENDCHAR
STARTCHAR uni3074
COMMENT "Index: 1 Size: 13"
ENCODING 12404
SWIDTH 500 0
DWIDTH 6 0
BBX 11 11 0 -1
BITMAP
00C0
0320
12C0
F100
2100
2180
4140
4100
4100
2200
1C00
ENDCHAR
STARTCHAR uni3075
COMMENT "Index: 1 Size: 13"
ENCODING 12405
SWIDTH 500 0
DWIDTH 6 0
BBX 11 10 0 -1
BITMAP
1000
0E00
0400
0800
0800
0580
A440
C2E0
9200
0C00
ENDCHAR
STARTCHAR uni3076
COMMENT "Index: 1 Size: 13"
ENCODING 12406
SWIDTH 500 0
DWIDTH 6 0
BBX 11 10 0 -1
BITMAP
1140
0F40
0400
0800
0800
0580
A440
C2E0
9200
0C00
ENDCHAR
STARTCHAR uni3077
COMMENT "Index: 1 Size: 13"
ENCODING 12407
SWIDTH 500 0
DWIDTH 6 0
BBX 11 10 0 -1
BITMAP
10C0
0F20
04C0
0800
0800
0580
A440
C2E0
9200
0C00
ENDCHAR
STARTCHAR uni3078
COMMENT "Index: 1 Size: 13"
ENCODING 12408
SWIDTH 500 0
DWIDTH 6 0
BBX 11 6 0 1
BITMAP
1800
2400
C200
0100
0080
0060
ENDCHAR
STARTCHAR uni3079
COMMENT "Index: 1 Size: 13"
ENCODING 12409
SWIDTH 500 0
DWIDTH 6 0
BBX 11 8 0 1
BITMAP
0140
0140
1800
2400
C200
0100
0080
0060
ENDCHAR
STARTCHAR uni307A
COMMENT "Index: 1 Size: 13"
ENCODING 12410
SWIDTH 500 0
DWIDTH 6 0
BBX 11 8 0 1
BITMAP
00C0
0120
18C0
2400
C200
0100
0080
0060
ENDCHAR
STARTCHAR uni307B
COMMENT "Index: 1 Size: 13"
ENCODING 12411
SWIDTH 500 0
DWIDTH 6 0
BBX 10 10 0 -1
BITMAP
91C0
4F00
4140
8F80
8100
8100
8F00
B180
5140
4E00
ENDCHAR
STARTCHAR uni307C
COMMENT "Index: 1 Size: 13"
ENCODING 12412
SWIDTH 500 0
DWIDTH 6 0
BBX 11 11 0 -1
BITMAP
00A0
91A0
4F00
4140
8F80
8100
8100
8F00
B180
5140
4E00
ENDCHAR
STARTCHAR uni307D
COMMENT "Index: 1 Size: 13"
ENCODING 12413
SWIDTH 500 0
DWIDTH 6 0
BBX 11 11 0 -1
BITMAP
00C0
9120
4FC0
4100
8FC0
8100
8100
8F00
B180
5140
4E00
ENDCHAR
STARTCHAR uni307E
COMMENT "Index: 1 Size: 13"
ENCODING 12414
SWIDTH 500 0
DWIDTH 6 0
BBX 8 11 0 -1
BITMAP
10
8F
78
08
8E
78
08
78
8E
89
70
ENDCHAR
STARTCHAR uni307F
COMMENT "Index: 1 Size: 13"
ENCODING 12415
SWIDTH 500 0
DWIDTH 6 0
BBX 10 11 0 -1
BITMAP
4400
3C00
0800
0800
0900
3E80
5180
9140
A100
4200
0400
ENDCHAR
STARTCHAR uni3080
COMMENT "Index: 1 Size: 13"
ENCODING 12416
SWIDTH 500 0
DWIDTH 6 0
BBX 10 11 0 -1
BITMAP
2000
9C00
7180
1040
7000
9000
9000
A100
6080
2080
1F00
ENDCHAR
STARTCHAR uni3081
COMMENT "Index: 1 Size: 13"
ENCODING 12417
SWIDTH 500 0
DWIDTH 6 0
BBX 10 11 0 -1
BITMAP
0800
0400
4E00
5500
6480
4840
A840
9040
9080
6100
0600
ENDCHAR
STARTCHAR uni3082
COMMENT "Index: 1 Size: 13"
ENCODING 12418
SWIDTH 500 0
DWIDTH 6 0
BBX 8 11 0 -1
BITMAP
20
10
70
1C
28
E2
39
21
21
12
0C
ENDCHAR
STARTCHAR uni3083
COMMENT "Index: 1 Size: 13"
ENCODING 12419
SWIDTH 500 0
DWIDTH 6 0
BBX 8 7 0 -1
BITMAP
28
2E
F5
21
16
10
10
ENDCHAR
STARTCHAR uni3084
COMMENT "Index: 1 Size: 13"
ENCODING 12420
SWIDTH 500 0
DWIDTH 6 0
BBX 11 11 0 -1
BITMAP
0200
3700
2000
13C0
9C20
7020
09C0
0800
0800
0400
0400
ENDCHAR
STARTCHAR uni3085
COMMENT "Index: 1 Size: 13"
ENCODING 12421
SWIDTH 500 0
DWIDTH 6 0
BBX 7 7 0 -1
BITMAP
10
9C
B2
D2
9C
10
20
ENDCHAR
STARTCHAR uni3086
COMMENT "Index: 1 Size: 13"
ENCODING 12422
SWIDTH 500 0
DWIDTH 6 0
BBX 11 11 0 -1
BITMAP
0400
8200
4780
4A40
5220
6220
6A40
4780
4200
0400
0800
ENDCHAR
STARTCHAR uni3087
COMMENT "Index: 1 Size: 13"
ENCODING 12423
SWIDTH 500 0
DWIDTH 6 0
BBX 7 7 0 -1
BITMAP
10
1C
10
10
78
96
60
ENDCHAR
STARTCHAR uni3088
COMMENT "Index: 1 Size: 13"
ENCODING 12424
SWIDTH 500 0
DWIDTH 6 0
BBX 9 11 0 -1
BITMAP
1000
0800
0980
0E00
0800
0800
0800
7800
8E00
8980
7000
ENDCHAR
STARTCHAR uni3089
COMMENT "Index: 1 Size: 13"
ENCODING 12425
SWIDTH 500 0
DWIDTH 6 0
BBX 7 11 0 -1
BITMAP
20
18
40
80
80
BC
C2
82
02
0C
70
ENDCHAR
STARTCHAR uni308A
COMMENT "Index: 1 Size: 13"
ENCODING 12426
SWIDTH 500 0
DWIDTH 6 0
BBX 7 11 0 -1
BITMAP
88
54
52
62
62
42
42
04
04
08
10
ENDCHAR
STARTCHAR uni308B
COMMENT "Index: 1 Size: 13"
ENCODING 12427
SWIDTH 500 0
DWIDTH 6 0
BBX 8 10 0 -1
BITMAP
4E
34
08
10
3E
61
81
19
26
1C
ENDCHAR
STARTCHAR uni308C
COMMENT "Index: 1 Size: 13"
ENCODING 12428
SWIDTH 500 0
DWIDTH 6 0
BBX 11 11 0 -1
BITMAP
2000
1000
1300
3480
D880
1080
1080
3080
5080
B060
1000
ENDCHAR
STARTCHAR uni308D
COMMENT "Index: 1 Size: 13"
ENCODING 12429
SWIDTH 500 0
DWIDTH 6 0
BBX 8 10 0 -1
BITMAP
4E
34
08
10
3E
61
81
01
06
18
ENDCHAR
STARTCHAR uni308E
COMMENT "Index: 1 Size: 13"
ENCODING 12430
SWIDTH 500 0
DWIDTH 6 0
BBX 8 7 0 -1
BITMAP
40
30
EE
31
61
A2
24
ENDCHAR
STARTCHAR uni308F
COMMENT "Index: 1 Size: 13"
ENCODING 12431
SWIDTH 500 0
DWIDTH 6 0
BBX 11 11 0 -1
BITMAP
2000
1000
1000
9B80
7C40
1020
1020
3020
5040
B180
1000
ENDCHAR
STARTCHAR uni3090
COMMENT "Index: 1 Size: 13"
ENCODING 12432
SWIDTH 500 0
DWIDTH 6 0
BBX 10 10 0 -1
BITMAP
4E00
3400
0400
1F00
2880
4840
9040
9640
6980
4700
ENDCHAR
STARTCHAR uni3091
COMMENT "Index: 1 Size: 13"
ENCODING 12433
SWIDTH 500 0
DWIDTH 6 0
BBX 10 11 0 -1
BITMAP
2000
1F00
0400
1F00
2080
4C80
1300
0C00
0000
5980
8640
ENDCHAR
STARTCHAR uni3092
COMMENT "Index: 1 Size: 13"
ENCODING 12434
SWIDTH 500 0
DWIDTH 6 0
BBX 9 11 0 -1
BITMAP
0800
0800
9E00
7000
2180
7200
8C00
1400
2400
2000
1F00
ENDCHAR
STARTCHAR uni3093
COMMENT "Index: 1 Size: 13"
ENCODING 12435
SWIDTH 500 0
DWIDTH 6 0
BBX 10 10 0 -1
BITMAP
1000
0800
0800
1000
1000
3800
2400
4440
4480
8300
ENDCHAR
STARTCHAR uni30A1
COMMENT "Index: 1 Size: 13"
ENCODING 12449
SWIDTH 500 0
DWIDTH 6 0
BBX 7 6 0 -1
BITMAP
9E
72
1C
10
10
20
ENDCHAR
STARTCHAR uni30A2
COMMENT "Index: 1 Size: 13"
ENCODING 12450
SWIDTH 500 0
DWIDTH 6 0
BBX 10 9 0 -1
BITMAP
87C0
7840
0480
0700
0400
0400
0800
0800
1000
ENDCHAR
STARTCHAR uni30A3
COMMENT "Index: 1 Size: 13"
ENCODING 12451
SWIDTH 500 0
DWIDTH 6 0
BBX 5 7 0 -1
BITMAP
08
10
30
D0
10
10
10
ENDCHAR
STARTCHAR uni30A4
COMMENT "Index: 1 Size: 13"
ENCODING 12452
SWIDTH 500 0
DWIDTH 6 0
BBX 7 10 0 -1
BITMAP
02
02
04
08
30
C8
08
08
08
08
ENDCHAR
STARTCHAR uni30A5
COMMENT "Index: 1 Size: 13"
ENCODING 12453
SWIDTH 500 0
DWIDTH 6 0
BBX 6 7 0 -1
BITMAP
20
20
FC
84
88
10
60
ENDCHAR
STARTCHAR uni30A6
COMMENT "Index: 1 Size: 13"
ENCODING 12454
SWIDTH 500 0
DWIDTH 6 0
BBX 9 11 0 -1
BITMAP
0800
0800
0800
8F80
7880
4080
4100
0100
0200
0400
1800
ENDCHAR
STARTCHAR uni30A7
COMMENT "Index: 1 Size: 13"
ENCODING 12455
SWIDTH 500 0
DWIDTH 6 0
BBX 7 5 0 0
BITMAP
0C
70
10
1C
F2
ENDCHAR
STARTCHAR uni30A8
COMMENT "Index: 1 Size: 13"
ENCODING 12456
SWIDTH 500 0
DWIDTH 6 0
BBX 10 7 0 0
BITMAP
0780
7800
0800
0800
0800
0F80
F040
ENDCHAR
STARTCHAR uni30A9
COMMENT "Index: 1 Size: 13"
ENCODING 12457
SWIDTH 500 0
DWIDTH 6 0
BBX 7 7 0 -1
BITMAP
08
08
FE
18
28
C8
18
ENDCHAR
STARTCHAR uni30AA
COMMENT "Index: 1 Size: 13"
ENCODING 12458
SWIDTH 500 0
DWIDTH 6 0
BBX 10 11 0 -1
BITMAP
0200
0200
83C0
7E00
0600
0A00
1200
2200
4200
8600
0200
ENDCHAR
STARTCHAR uni30AB
COMMENT "Index: 1 Size: 13"
ENCODING 12459
SWIDTH 500 0
DWIDTH 6 0
BBX 9 11 0 -1
BITMAP
1000
0800
0800
8F80
7880
0880
1080
1100
2100
4500
8200
ENDCHAR
STARTCHAR uni30AC
COMMENT "Index: 1 Size: 13"
ENCODING 12460
SWIDTH 500 0
DWIDTH 6 0
BBX 10 11 0 -1
BITMAP
1000
0940
0940
8F80
7880
0880
1080
1100
2100
4500
8200
ENDCHAR
STARTCHAR uni30AD
COMMENT "Index: 1 Size: 13"
ENCODING 12461
SWIDTH 500 0
DWIDTH 6 0
BBX 10 11 0 -1
BITMAP
0800
0800
0B80
7C00
0400
0FC0
F400
0400
0200
0200
0200
ENDCHAR
STARTCHAR uni30AE
COMMENT "Index: 1 Size: 13"
ENCODING 12462
SWIDTH 500 0
DWIDTH 6 0
BBX 11 11 0 -1
BITMAP
0800
08A0
0BA0
7C00
0400
0FC0
F400
0400
0200
0200
0200
ENDCHAR
STARTCHAR uni30AF
COMMENT "Index: 1 Size: 13"
ENCODING 12463
SWIDTH 500 0
DWIDTH 6 0
BBX 7 11 0 -1
BITMAP
40
26
3A
22
42
44
84
08
10
20
40
ENDCHAR
STARTCHAR uni30B0
COMMENT "Index: 1 Size: 13"
ENCODING 12464
SWIDTH 500 0
DWIDTH 6 0
BBX 10 11 0 -1
BITMAP
4140
2740
3A00
2200
4200
4400
8400
0800
1000
2000
4000
ENDCHAR
STARTCHAR uni30B1
COMMENT "Index: 1 Size: 13"
ENCODING 12465
SWIDTH 500 0
DWIDTH 6 0
BBX 10 11 0 -1
BITMAP
4000
2000
23C0
3C00
2200
2200
4200
8400
0400
0800
1000
ENDCHAR
STARTCHAR uni30B2
COMMENT "Index: 1 Size: 13"
ENCODING 12466
SWIDTH 500 0
DWIDTH 6 0
BBX 10 11 0 -1
BITMAP
4000
2140
2140
2380
3C00
2200
4200
8400
0400
0800
1000
ENDCHAR
STARTCHAR uni30B3
COMMENT "Index: 1 Size: 13"
ENCODING 12467
SWIDTH 500 0
DWIDTH 6 0
BBX 9 8 0 0
BITMAP
8F80
7080
0080
0080
0100
0100
0F00
7100
ENDCHAR
STARTCHAR uni30B4
COMMENT "Index: 1 Size: 13"
ENCODING 12468
SWIDTH 500 0
DWIDTH 6 0
BBX 10 10 0 0
BITMAP
0140
0140
8F80
7080
0080
0080
0100
0100
0F00
7100
ENDCHAR
STARTCHAR uni30B5
COMMENT "Index: 1 Size: 13"
ENCODING 12469
SWIDTH 500 0
DWIDTH 6 0
BBX 10 11 0 -1
BITMAP
0200
2100
1100
97C0
7900
1100
1100
1200
0200
0400
0800
ENDCHAR
STARTCHAR uni30B6
COMMENT "Index: 1 Size: 13"
ENCODING 12470
SWIDTH 500 0
DWIDTH 6 0
BBX 11 11 0 -1
BITMAP
02A0
21A0
1100
97C0
7900
1100
1100
1200
0200
0400
0800
ENDCHAR
STARTCHAR uni30B7
COMMENT "Index: 1 Size: 13"
ENCODING 12471
SWIDTH 500 0
DWIDTH 6 0
BBX 9 10 0 -1
BITMAP
6000
1000
0000
C000
2080
0100
0200
0400
9800
6000
ENDCHAR
STARTCHAR uni30B8
COMMENT "Index: 1 Size: 13"
ENCODING 12472
SWIDTH 500 0
DWIDTH 6 0
BBX 9 10 0 -1
BITMAP
6280
1280
0000
C000
2080
0100
0200
0400
9800
6000
ENDCHAR
STARTCHAR uni30B9
COMMENT "Index: 1 Size: 13"
ENCODING 12473
SWIDTH 500 0
DWIDTH 6 0
BBX 10 9 0 -1
BITMAP
4700
3900
0100
0200
0200
0500
0880
3040
C040
ENDCHAR
STARTCHAR uni30BA
COMMENT "Index: 1 Size: 13"
ENCODING 12474
SWIDTH 500 0
DWIDTH 6 0
BBX 10 10 0 -1
BITMAP
0140
4740
3900
0100
0200
0200
0500
0880
3040
C040
ENDCHAR
STARTCHAR uni30BB
COMMENT "Index: 1 Size: 13"
ENCODING 12475
SWIDTH 500 0
DWIDTH 6 0
BBX 10 10 0 -1
BITMAP
2000
1000
11C0
9E40
7080
1100
1200
1000
1000
0F80
ENDCHAR
STARTCHAR uni30BC
COMMENT "Index: 1 Size: 13"
ENCODING 12476
SWIDTH 500 0
DWIDTH 6 0
BBX 11 10 0 -1
BITMAP
20A0
10A0
11C0
9E40
7080
1100
1200
1000
1000
0F80
ENDCHAR
STARTCHAR uni30BD
COMMENT "Index: 1 Size: 13"
ENCODING 12477
SWIDTH 500 0
DWIDTH 6 0
BBX 8 10 0 -1
BITMAP
02
81
41
42
02
04
04
08
10
20
ENDCHAR
STARTCHAR uni30BE
COMMENT "Index: 1 Size: 13"
ENCODING 12478
SWIDTH 500 0
DWIDTH 6 0
BBX 10 10 0 -1
BITMAP
0540
8340
4100
4200
0200
0400
0400
0800
1000
2000
ENDCHAR
STARTCHAR uni30BF
COMMENT "Index: 1 Size: 13"
ENCODING 12479
SWIDTH 500 0
DWIDTH 6 0
BBX 9 11 0 -1
BITMAP
1000
0800
0F80
1080
1100
2900
4600
0400
0800
3000
C000
ENDCHAR
STARTCHAR uni30C0
COMMENT "Index: 1 Size: 13"
ENCODING 12480
SWIDTH 500 0
DWIDTH 6 0
BBX 11 11 0 -1
BITMAP
1000
08A0
0FA0
1080
1100
2900
4600
0400
0800
3000
C000
ENDCHAR
STARTCHAR uni30C1
COMMENT "Index: 1 Size: 13"
ENCODING 12481
SWIDTH 500 0
DWIDTH 6 0
BBX 11 11 0 -1
BITMAP
0100
0600
3C00
0200
87E0
7A00
0200
0200
0400
0400
0800
ENDCHAR
STARTCHAR uni30C2
COMMENT "Index: 1 Size: 13"
ENCODING 12482
SWIDTH 500 0
DWIDTH 6 0
BBX 11 11 0 -1
BITMAP
0100
06A0
3CA0
0200
87E0
7A00
0200
0200
0400
0400
0800
ENDCHAR
STARTCHAR uni30C3
COMMENT "Index: 1 Size: 13"
ENCODING 12483
SWIDTH 500 0
DWIDTH 6 0
BBX 7 7 0 -1
BITMAP
20
92
52
44
04
08
10
ENDCHAR
STARTCHAR uni30C4
COMMENT "Index: 1 Size: 13"
ENCODING 12484
SWIDTH 500 0
DWIDTH 6 0
BBX 9 10 0 -1
BITMAP
0100
1080
8880
4900
4100
0200
0200
0400
0800
1000
ENDCHAR
STARTCHAR uni30C5
COMMENT "Index: 1 Size: 13"
ENCODING 12485
SWIDTH 500 0
DWIDTH 6 0
BBX 10 11 0 -1
BITMAP
0140
1140
8800
4880
4880
4100
0100
0200
0400
1800
6000
ENDCHAR
STARTCHAR uni30C6
COMMENT "Index: 1 Size: 13"
ENCODING 12486
SWIDTH 500 0
DWIDTH 6 0
BBX 11 10 0 -1
BITMAP
2380
1C00
0000
87E0
7A00
0200
0200
0400
0800
1000
ENDCHAR
STARTCHAR uni30C7
COMMENT "Index: 1 Size: 13"
ENCODING 12487
SWIDTH 500 0
DWIDTH 6 0
BBX 11 11 0 -1
BITMAP
00A0
23A0
1C00
0000
87E0
7A00
0200
0200
0400
0800
1000
ENDCHAR
STARTCHAR uni30C8
COMMENT "Index: 1 Size: 13"
ENCODING 12488
SWIDTH 500 0
DWIDTH 6 0
BBX 7 11 0 -1
BITMAP
80
40
40
40
70
4C
42
40
40
40
40
ENDCHAR
STARTCHAR uni30C9
COMMENT "Index: 1 Size: 13"
ENCODING 12489
SWIDTH 500 0
DWIDTH 6 0
BBX 8 11 0 -1
BITMAP
80
45
45
40
70
4C
42
40
40
40
40
ENDCHAR
STARTCHAR uni30CA
COMMENT "Index: 1 Size: 13"
ENCODING 12490
SWIDTH 500 0
DWIDTH 6 0
BBX 10 11 0 -1
BITMAP
0800
0400
0400
87C0
7C00
0400
0400
0800
0800
1000
2000
ENDCHAR
STARTCHAR uni30CB
COMMENT "Index: 1 Size: 13"
ENCODING 12491
SWIDTH 500 0
DWIDTH 6 0
BBX 10 7 0 1
BITMAP
0700
7800
0000
0000
0000
0F80
F040
ENDCHAR
STARTCHAR uni30CC
COMMENT "Index: 1 Size: 13"
ENCODING 12492
SWIDTH 500 0
DWIDTH 6 0
BBX 10 9 0 -1
BITMAP
4780
3880
0100
1900
0600
0500
0880
3040
C000
ENDCHAR
STARTCHAR uni30CD
COMMENT "Index: 1 Size: 13"
ENCODING 12493
SWIDTH 500 0
DWIDTH 6 0
BBX 10 11 0 -1
BITMAP
0800
0400
0F00
7100
0200
0C00
3B00
C8C0
0800
0800
0800
ENDCHAR
STARTCHAR uni30CE
COMMENT "Index: 1 Size: 13"
ENCODING 12494
SWIDTH 500 0
DWIDTH 6 0
BBX 7 10 0 -1
BITMAP
04
02
02
04
04
08
10
20
40
80
ENDCHAR
STARTCHAR uni30CF
COMMENT "Index: 1 Size: 13"
ENCODING 12495
SWIDTH 500 0
DWIDTH 6 0
BBX 11 7 0 0
BITMAP
1100
0880
1040
1040
2020
4020
8020
ENDCHAR
STARTCHAR uni30D0
COMMENT "Index: 1 Size: 13"
ENCODING 12496
SWIDTH 500 0
DWIDTH 6 0
BBX 11 9 0 0
BITMAP
00A0
00A0
1100
0880
1040
1040
2020
4020
8020
ENDCHAR
STARTCHAR uni30D1
COMMENT "Index: 1 Size: 13"
ENCODING 12497
SWIDTH 500 0
DWIDTH 6 0
BBX 12 9 0 0
BITMAP
0060
0090
1160
0880
0840
1040
2020
4020
8020
ENDCHAR
STARTCHAR uni30D2
COMMENT "Index: 1 Size: 13"
ENCODING 12498
SWIDTH 500 0
DWIDTH 6 0
BBX 9 9 0 0
BITMAP
8000
4000
4000
4700
7800
4000
4000
4000
3F80
ENDCHAR
STARTCHAR uni30D3
COMMENT "Index: 1 Size: 13"
ENCODING 12499
SWIDTH 500 0
DWIDTH 6 0
BBX 10 9 0 0
BITMAP
8140
4140
4000
4700
7800
4000
4000
4000
3F80
ENDCHAR
STARTCHAR uni30D4
COMMENT "Index: 1 Size: 13"
ENCODING 12500
SWIDTH 500 0
DWIDTH 6 0
BBX 10 9 0 0
BITMAP
8180
4240
4180
4700
7800
4000
4000
4000
3F80
ENDCHAR
STARTCHAR uni30D5
COMMENT "Index: 1 Size: 13"
ENCODING 12501
SWIDTH 500 0
DWIDTH 6 0
BBX 9 9 0 -1
BITMAP
8780
7880
0080
0100
0100
0200
0400
0800
3000
ENDCHAR
STARTCHAR uni30D6
COMMENT "Index: 1 Size: 13"
ENCODING 12502
SWIDTH 500 0
DWIDTH 6 0
BBX 10 11 0 -1
BITMAP
0140
0140
8780
7880
0080
0100
0100
0200
0400
0800
3000
ENDCHAR
STARTCHAR uni30D7
COMMENT "Index: 1 Size: 13"
ENCODING 12503
SWIDTH 500 0
DWIDTH 6 0
BBX 11 11 0 -1
BITMAP
00C0
0120
87C0
7880
0080
0100
0100
0200
0400
0800
3000
ENDCHAR
STARTCHAR uni30D8
COMMENT "Index: 1 Size: 13"
ENCODING 12504
SWIDTH 500 0
DWIDTH 6 0
BBX 11 6 0 1
BITMAP
0800
1400
2200
C100
0080
0060
ENDCHAR
STARTCHAR uni30D9
COMMENT "Index: 1 Size: 13"
ENCODING 12505
SWIDTH 500 0
DWIDTH 6 0
BBX 11 8 0 1
BITMAP
00A0
00A0
0800
1400
2200
C100
0080
0060
ENDCHAR
STARTCHAR uni30DA
COMMENT "Index: 1 Size: 13"
ENCODING 12506
SWIDTH 500 0
DWIDTH 6 0
BBX 11 8 0 1
BITMAP
00C0
0120
08C0
1400
2200
C100
0080
0060
ENDCHAR
STARTCHAR uni30DB
COMMENT "Index: 1 Size: 13"
ENCODING 12507
SWIDTH 500 0
DWIDTH 6 0
BBX 9 11 0 -1
BITMAP
0800
0800
8F80
7800
0800
2A00
2900
4880
4880
9800
0800
ENDCHAR
STARTCHAR uni30DC
COMMENT "Index: 1 Size: 13"
ENCODING 12508
SWIDTH 500 0
DWIDTH 6 0
BBX 10 11 0 -1
BITMAP
0800
0940
8F40
7800
0800
2A00
2900
4880
4880
9800
0800
ENDCHAR
STARTCHAR uni30DD
COMMENT "Index: 1 Size: 13"
ENCODING 12509
SWIDTH 500 0
DWIDTH 6 0
BBX 11 11 0 -1
BITMAP
0800
08C0
8F20
78C0
0800
2A00
2900
4880
4880
9800
0800
ENDCHAR
STARTCHAR uni30DE
COMMENT "Index: 1 Size: 13"
ENCODING 12510
SWIDTH 500 0
DWIDTH 6 0
BBX 9 8 0 0
BITMAP
8780
7880
0100
0200
6400
1800
0400
0200
ENDCHAR
STARTCHAR uni30DF
COMMENT "Index: 1 Size: 13"
ENCODING 12511
SWIDTH 500 0
DWIDTH 6 0
BBX 7 10 0 -1
BITMAP
60
18
06
00
70
0C
00
E0
18
06
ENDCHAR
STARTCHAR uni30E0
COMMENT "Index: 1 Size: 13"
ENCODING 12512
SWIDTH 500 0
DWIDTH 6 0
BBX 9 10 0 -1
BITMAP
1000
0800
0800
1000
1400
2200
2100
4F00
F080
0080
ENDCHAR
STARTCHAR uni30E1
COMMENT "Index: 1 Size: 13"
ENCODING 12513
SWIDTH 500 0
DWIDTH 6 0
BBX 9 10 0 -1
BITMAP
0200
0100
0100
3100
0E00
0200
0500
0880
3000
C000
ENDCHAR
STARTCHAR uni30E2
COMMENT "Index: 1 Size: 13"
ENCODING 12514
SWIDTH 500 0
DWIDTH 6 0
BBX 10 8 0 0
BITMAP
8700
7800
1000
93C0
7C00
1000
1000
0F80
ENDCHAR
STARTCHAR uni30E3
COMMENT "Index: 1 Size: 13"
ENCODING 12515
SWIDTH 500 0
DWIDTH 6 0
BBX 8 7 0 -1
BITMAP
20
20
2F
F2
14
10
10
ENDCHAR
STARTCHAR uni30E4
COMMENT "Index: 1 Size: 13"
ENCODING 12516
SWIDTH 500 0
DWIDTH 6 0
BBX 11 10 0 -1
BITMAP
2000
1000
11E0
9E40
6880
0900
0800
0400
0400
0400
ENDCHAR
STARTCHAR uni30E5
COMMENT "Index: 1 Size: 13"
ENCODING 12517
SWIDTH 500 0
DWIDTH 6 0
BBX 7 4 0 0
BITMAP
7C
08
08
FE
ENDCHAR
STARTCHAR uni30E6
COMMENT "Index: 1 Size: 13"
ENCODING 12518
SWIDTH 500 0
DWIDTH 6 0
BBX 10 7 0 0
BITMAP
4700
3900
0100
0200
0200
0F80
F040
ENDCHAR
STARTCHAR uni30E7
COMMENT "Index: 1 Size: 13"
ENCODING 12519
SWIDTH 500 0
DWIDTH 6 0
BBX 7 6 0 -1
BITMAP
3C
C4
3C
04
1C
E2
ENDCHAR
STARTCHAR uni30E8
COMMENT "Index: 1 Size: 13"
ENCODING 12520
SWIDTH 500 0
DWIDTH 6 0
BBX 9 9 0 -1
BITMAP
0F80
F080
0080
0700
3900
0100
0100
0F00
7080
ENDCHAR
STARTCHAR uni30E9
COMMENT "Index: 1 Size: 13"
ENCODING 12521
SWIDTH 500 0
DWIDTH 6 0
BBX 9 10 0 -1
BITMAP
4E00
3000
8780
7880
0080
0100
0100
0200
0C00
3000
ENDCHAR
STARTCHAR uni30EA
COMMENT "Index: 1 Size: 13"
ENCODING 12522
SWIDTH 500 0
DWIDTH 6 0
BBX 7 11 0 -1
BITMAP
04
82
42
42
42
42
42
04
04
08
10
ENDCHAR
STARTCHAR uni30EB
COMMENT "Index: 1 Size: 13"
ENCODING 12523
SWIDTH 500 0
DWIDTH 6 0
BBX 10 10 0 -1
BITMAP
0800
4400
2400
2400
2440
2440
2480
4500
4600
8400
ENDCHAR
STARTCHAR uni30EC
COMMENT "Index: 1 Size: 13"
ENCODING 12524
SWIDTH 500 0
DWIDTH 6 0
BBX 8 10 0 -1
BITMAP
80
40
40
40
40
41
42
44
58
60
ENDCHAR
STARTCHAR uni30ED
COMMENT "Index: 1 Size: 13"
ENCODING 12525
SWIDTH 500 0
DWIDTH 6 0
BBX 10 8 0 0
BITMAP
87C0
7840
4040
4040
2080
2080
2F80
3040
ENDCHAR
STARTCHAR uni30EE
COMMENT "Index: 1 Size: 13"
ENCODING 12526
SWIDTH 500 0
DWIDTH 6 0
BBX 7 6 0 -1
BITMAP
8E
72
42
04
08
30
ENDCHAR
STARTCHAR uni30EF
COMMENT "Index: 1 Size: 13"
ENCODING 12527
SWIDTH 500 0
DWIDTH 6 0
BBX 9 9 0 -1
BITMAP
8780
7880
4080
4080
0100
0100
0200
0400
1800
ENDCHAR
STARTCHAR uni30F0
COMMENT "Index: 1 Size: 13"
ENCODING 12528
SWIDTH 500 0
DWIDTH 6 0
BBX 10 11 0 -1
BITMAP
0400
0200
0200
0F80
F200
2200
2780
FA40
0200
0200
0200
ENDCHAR
STARTCHAR uni30F1
COMMENT "Index: 1 Size: 13"
ENCODING 12529
SWIDTH 500 0
DWIDTH 6 0
BBX 10 8 0 0
BITMAP
0780
7880
0500
0600
0400
0400
0F80
F040
ENDCHAR
STARTCHAR uni30F2
COMMENT "Index: 1 Size: 13"
ENCODING 12530
SWIDTH 500 0
DWIDTH 6 0
BBX 8 10 0 -1
BITMAP
0F
F1
01
0F
72
02
04
08
30
C0
ENDCHAR
STARTCHAR uni30F3
COMMENT "Index: 1 Size: 13"
ENCODING 12531
SWIDTH 500 0
DWIDTH 6 0
BBX 9 9 0 -1
BITMAP
6000
1080
0080
0100
0100
0200
0400
9800
6000
ENDCHAR
STARTCHAR uni30F4
COMMENT "Index: 1 Size: 13"
ENCODING 12532
SWIDTH 500 0
DWIDTH 6 0
BBX 10 11 0 -1
BITMAP
0940
0940
0800
8F80
7880
4080
4100
0100
0200
0400
1800
ENDCHAR
STARTCHAR uni30F5
COMMENT "Index: 1 Size: 13"
ENCODING 12533
SWIDTH 500 0
DWIDTH 6 0
BBX 6 7 0 -1
BITMAP
20
20
FC
24
24
44
98
ENDCHAR
STARTCHAR uni30F6
COMMENT "Index: 1 Size: 13"
ENCODING 12534
SWIDTH 500 0
DWIDTH 6 0
BBX 7 7 0 -1
BITMAP
20
20
3E
48
88
10
20
ENDCHAR
STARTCHAR uni30FC
COMMENT "Index: 2 Size: 13"
ENCODING 12540
SWIDTH 500 0
DWIDTH 6 0
BBX 9 2 0 4
BITMAP
8780
7800
ENDCHAR
STARTCHAR uni4E00
COMMENT "Index: 1 Size: 13"
ENCODING 19968
SWIDTH 500 0
DWIDTH 6 0
BBX 12 2 0 5
BITMAP
0020
FFF0
ENDCHAR
STARTCHAR uni4E01
COMMENT "Index: 1 Size: 13"
ENCODING 19969
SWIDTH 500 0
DWIDTH 6 0
BBX 12 12 0 -1
BITMAP
0020
FFF0
0200
0200
0200
0200
0200
0200
0200
1200
0E00
0400
ENDCHAR
STARTCHAR uni4E03
COMMENT "Index: 1 Size: 13"
ENCODING 19971
SWIDTH 500 0
DWIDTH 6 0
BBX 12 12 0 -1
BITMAP
0400
0400
0400
0470
0780
FC00
0400
0400
0400
0410
0410
03F0
ENDCHAR
STARTCHAR uni4E07
COMMENT "Index: 1 Size: 13"
ENCODING 19975
SWIDTH 500 0
DWIDTH 6 0
BBX 12 12 0 -1
BITMAP
0020
FFF0
0800
0800
0FE0
0820
0820
0820
1020
2220
41C0
8080
ENDCHAR
STARTCHAR uni4E08
COMMENT "Index: 1 Size: 13"
ENCODING 19976
SWIDTH 500 0
DWIDTH 6 0
BBX 12 12 0 -1
BITMAP
0100
0100
0120
FFF0
0100
1100
1100
0A00
0400
0A00
3180
C070
ENDCHAR
STARTCHAR uni4E09
COMMENT "Index: 1 Size: 13"
ENCODING 19977
SWIDTH 500 0
DWIDTH 6 0
BBX 12 12 0 -1
BITMAP
0040
7FE0
0000
0000
0000
0080
3FC0
0000
0000
0000
0020
FFF0
ENDCHAR
STARTCHAR uni4E0A
COMMENT "Index: 1 Size: 13"
ENCODING 19978
SWIDTH 500 0
DWIDTH 6 0
BBX 12 12 0 -1
BITMAP
0400
0400
0400
0440
07E0
0400
0400
0400
0400
0400
0420
FFF0
ENDCHAR
STARTCHAR uni4E0B
COMMENT "Index: 1 Size: 13"
ENCODING 19979
SWIDTH 500 0
DWIDTH 6 0
BBX 12 12 0 -1
BITMAP
0020
FFF0
0400
0400
0600
0580
04C0
0440
0400
0400
0400
0400
ENDCHAR
STARTCHAR uni4E0C
COMMENT "Index: 1 Size: 13"
ENCODING 19980
SWIDTH 500 0
DWIDTH 6 0
BBX 12 12 0 -1
BITMAP
0020
FFF0
0880
0880
0880
0880
0880
0880
1080
1080
2080
C080
ENDCHAR
STARTCHAR uni4E0D
COMMENT "Index: 1 Size: 13"
ENCODING 19981
SWIDTH 500 0
DWIDTH 6 0
BBX 12 12 0 -1
BITMAP
0020
FFF0
0200
0400
0480
0C40
1420
2430
4410
8400
0400
0400
ENDCHAR
STARTCHAR uni4E0E
COMMENT "Index: 1 Size: 13"
ENCODING 19982
SWIDTH 500 0
DWIDTH 6 0
BBX 12 12 0 -1
BITMAP
1000
1020
1FF0
2000
2000
7FE0
0020
FF20
0020
0220
01C0
0080
ENDCHAR
STARTCHAR uni4E0F
COMMENT "Index: 1 Size: 13"
ENCODING 19983
SWIDTH 500 0
DWIDTH 6 0
BBX 12 12 0 -1
BITMAP
FFF0
0400
0420
27F0
2420
4420
7FE0
0020
0020
0420
03C0
0080
ENDCHAR
STARTCHAR uni4E10
COMMENT "Index: 1 Size: 13"
ENCODING 19984
SWIDTH 500 0
DWIDTH 6 0
BBX 12 12 0 -1
BITMAP
FFF0
0200
1200
13E0
1200
2220
7FF0
0020
0020
0220
01C0
0080
ENDCHAR
STARTCHAR uni4E11
COMMENT "Index: 1 Size: 13"
ENCODING 19985
SWIDTH 500 0
DWIDTH 6 0
BBX 12 12 0 -1
BITMAP
0080
7FC0
0880
0880
0880
0880
7F80
1080
1080
1080
1080
FFF0
ENDCHAR
STARTCHAR uni4E13
COMMENT "Index: 1 Size: 13"
ENCODING 19987
SWIDTH 500 0
DWIDTH 6 0
BBX 12 12 0 -1
BITMAP
0440
7FE0
0400
0420
FFF0
0800
1FC0
0080
0100
0E00
0100
0080
ENDCHAR
STARTCHAR uni4E14
COMMENT "Index: 1 Size: 13"
ENCODING 19988
SWIDTH 500 0
DWIDTH 6 0
BBX 12 12 0 -1
BITMAP
3F80
2080
2080
2080
3F80
2080
2080
3F80
2080
2080
20A0
FFF0
ENDCHAR
STARTCHAR uni4E15
COMMENT "Index: 1 Size: 13"
ENCODING 19989
SWIDTH 500 0
DWIDTH 6 0
BBX 12 12 0 -1
BITMAP
0040
FFE0
0400
0400
0C00
1480
2440
4420
0420
0400
0420
FFF0
ENDCHAR
STARTCHAR uni4E16
COMMENT "Index: 1 Size: 13"
ENCODING 19990
SWIDTH 500 0
DWIDTH 6 0
BBX 12 12 0 -1
BITMAP
0440
2440
2440
FFF0
2440
2440
2440
27C0
2440
2000
2020
1FF0
ENDCHAR
STARTCHAR uni4E18
COMMENT "Index: 1 Size: 13"
ENCODING 19992
SWIDTH 500 0
DWIDTH 6 0
BBX 12 12 0 -1
BITMAP
0080
21C0
3E00
2000
2040
3FE0
2100
2100
2100
2100
2100
FFF0
ENDCHAR
STARTCHAR uni4E19
COMMENT "Index: 1 Size: 13"
ENCODING 19993
SWIDTH 500 0
DWIDTH 6 0
BBX 12 12 0 -1
BITMAP
0020
FFF0
0200
0200
7FF0
4210
4310
4490
4850
5010
4070
4020
ENDCHAR
STARTCHAR uni4E1A
COMMENT "Index: 1 Size: 13"
ENCODING 19994
SWIDTH 500 0
DWIDTH 6 0
BBX 12 12 0 -1
BITMAP
0900
0900
0900
8920
8920
4940
4940
2980
2900
0900
0920
FFF0
ENDCHAR
STARTCHAR uni4E1B
COMMENT "Index: 1 Size: 13"
ENCODING 19995
SWIDTH 500 0
DWIDTH 6 0
BBX 12 12 0 -1
BITMAP
1080
1080
1080
1080
1880
2480
2340
2120
4210
8C10
0000
FFF0
ENDCHAR
STARTCHAR uni4E1C
COMMENT "Index: 1 Size: 13"
ENCODING 19996
SWIDTH 500 0
DWIDTH 6 0
BBX 12 12 0 -1
BITMAP
0800
0820
FFF0
1200
2240
7FE0
0200
1240
1240
2220
4E30
8410
ENDCHAR
STARTCHAR uni4E1D
COMMENT "Index: 1 Size: 13"
ENCODING 19997
SWIDTH 500 0
DWIDTH 6 0
BBX 12 12 0 -1
BITMAP
1040
2080
2080
4920
5140
F3C0
2080
4100
5930
E3C0
0000
FFF0
ENDCHAR
STARTCHAR uni4E1E
COMMENT "Index: 1 Size: 13"
ENCODING 19998
SWIDTH 500 0
DWIDTH 6 0
BBX 12 12 0 -1
BITMAP
7FE0
0040
0080
FB20
1240
1280
1280
2260
4E30
8410
0000
FFF0
ENDCHAR
STARTCHAR uni4E1F
COMMENT "Index: 1 Size: 13"
ENCODING 19999
SWIDTH 500 0
DWIDTH 6 0
BBX 12 12 0 -1
BITMAP
0020
7FF0
0200
0200
3FE0
0200
0200
FFF0
0400
0820
FFF0
6010
ENDCHAR
STARTCHAR uni4E22
COMMENT "Index: 1 Size: 13"
ENCODING 20002
SWIDTH 500 0
DWIDTH 6 0
BBX 12 12 0 -1
BITMAP
00E0
7F00
0200
0200
7FE0
0200
0200
FFF0
0800
1020
FFF0
6010
ENDCHAR
STARTCHAR uni4E24
COMMENT "Index: 1 Size: 13"
ENCODING 20004
SWIDTH 500 0
DWIDTH 6 0
BBX 12 12 0 -1
BITMAP
0020
FFF0
0900
7FE0
4920
4920
4DA0
5360
6220
4420
40E0
4040
ENDCHAR
STARTCHAR uni4E25
COMMENT "Index: 1 Size: 13"
ENCODING 20005
SWIDTH 500 0
DWIDTH 6 0
BBX 12 12 0 -1
BITMAP
7FF0
2520
1520
1540
7FF0
4000
4000
4000
4000
4000
4000
8000
ENDCHAR
STARTCHAR uni4E26
COMMENT "Index: 1 Size: 13"
ENCODING 20006
SWIDTH 500 0
DWIDTH 6 0
BBX 12 12 0 -1
BITMAP
20C0
1880
0900
FFF0
0900
0920
4920
2940
2940
0900
0900
FFF0
ENDCHAR
STARTCHAR uni4E27
COMMENT "Index: 1 Size: 13"
ENCODING 20007
SWIDTH 500 0
DWIDTH 6 0
BBX 12 12 0 -1
BITMAP
0400
0440
FFE0
2480
1500
FFF0
2420
2440
2280
2500
28C0
F030
ENDCHAR
STARTCHAR uni4E28
COMMENT "Index: 1 Size: 13"
ENCODING 20008
SWIDTH 500 0
DWIDTH 6 0
BBX 1 12 0 -1
BITMAP
80
80
80
80
80
80
80
80
80
80
80
80
ENDCHAR
STARTCHAR uni4E2A
COMMENT "Index: 1 Size: 13"
ENCODING 20010
SWIDTH 500 0
DWIDTH 6 0
BBX 12 12 0 -1
BITMAP
0600
0900
30C0
C030
0200
0200
0200
0200
0200
0200
0200
0200
ENDCHAR
STARTCHAR uni4E2B
COMMENT "Index: 1 Size: 13"
ENCODING 20011
SWIDTH 500 0
DWIDTH 6 0
BBX 10 12 0 -1
BITMAP
80C0
4080
2100
2200
0400
0400
0400
0400
0400
0400
0400
0400
ENDCHAR
STARTCHAR uni4E2C
COMMENT "Index: 1 Size: 13"
ENCODING 20012
SWIDTH 500 0
DWIDTH 6 0
BBX 5 12 0 -1
BITMAP
08
48
28
28
08
08
28
C8
88
08
08
08
ENDCHAR
STARTCHAR uni4E2D
COMMENT "Index: 1 Size: 13"
ENCODING 20013
SWIDTH 500 0
DWIDTH 6 0
BBX 12 12 0 -1
BITMAP
0400
0400
8420
FFF0
8420
8420
8420
FFE0
8420
0400
0400
0400
ENDCHAR
STARTCHAR uni4E2E
COMMENT "Index: 1 Size: 13"
ENCODING 20014
SWIDTH 500 0
DWIDTH 6 0
BBX 12 12 0 -1
BITMAP
FF80
1080
1080
1080
7E80
1080
1080
FF80
2090
2050
4030
8010
ENDCHAR
STARTCHAR uni4E30
COMMENT "Index: 1 Size: 13"
ENCODING 20016
SWIDTH 500 0
DWIDTH 6 0
BBX 11 12 0 -1
BITMAP
0400
0440
FFE0
0400
0400
7FC0
0400
0440
FFE0
0400
0400
0400
ENDCHAR
STARTCHAR uni4E31
COMMENT "Index: 1 Size: 13"
ENCODING 20017
SWIDTH 500 0
DWIDTH 6 0
BBX 10 12 0 -1
BITMAP
1200
1200
9240
9240
9240
9240
F3C0
9240
1200
2200
4200
8200
ENDCHAR
STARTCHAR uni4E32
COMMENT "Index: 1 Size: 13"
ENCODING 20018
SWIDTH 500 0
DWIDTH 6 0
BBX 12 12 0 -1
BITMAP
0400
0440
7FE0
4440
7FC0
0420
FFF0
8420
FFE0
8420
0400
0400
ENDCHAR
STARTCHAR uni4E33
COMMENT "Index: 1 Size: 13"
ENCODING 20019
SWIDTH 500 0
DWIDTH 6 0
BBX 11 12 0 -1
BITMAP
0A00
0A00
7FC0
4A40
7FC0
0A00
FFE0
8A20
FFE0
8A20
1200
6200
ENDCHAR
STARTCHAR uni4E34
COMMENT "Index: 1 Size: 13"
ENCODING 20020
SWIDTH 500 0
DWIDTH 6 0
BBX 12 12 0 -1
BITMAP
2200
2420
A7F0
A800
B100
A080
AFE0
A920
A920
2920
2FE0
2820
ENDCHAR
STARTCHAR uni4E36
COMMENT "Index: 1 Size: 13"
ENCODING 20022
SWIDTH 500 0
DWIDTH 6 0
BBX 4 5 0 3
BITMAP
80
40
20
10
10
ENDCHAR
STARTCHAR uni4E38
COMMENT "Index: 1 Size: 13"
ENCODING 20024
SWIDTH 500 0
DWIDTH 6 0
BBX 12 12 0 -1
BITMAP
0800
0800
0900
7F80
0900
2900
1900
0900
1500
2110
4110
80F0
ENDCHAR
STARTCHAR uni4E39
COMMENT "Index: 1 Size: 13"
ENCODING 20025
SWIDTH 500 0
DWIDTH 6 0
BBX 12 12 0 -1
BITMAP
0040
1FE0
1040
1240
1140
1040
7FF0
1040
1040
1040
2040
C180
ENDCHAR
STARTCHAR uni4E3A
COMMENT "Index: 1 Size: 13"
ENCODING 20026
SWIDTH 500 0
DWIDTH 6 0
BBX 11 12 0 -1
BITMAP
0400
2400
1400
0440
FFE0
0840
0840
0A40
1140
1040
2040
C180
ENDCHAR
STARTCHAR uni4E3B
COMMENT "Index: 1 Size: 13"
ENCODING 20027
SWIDTH 500 0
DWIDTH 6 0
BBX 11 12 0 -1
BITMAP
0800
0440
FFE0
0400
0400
0480
7FC0
0400
0400
0400
0440
FFE0
ENDCHAR
STARTCHAR uni4E3C
COMMENT "Index: 1 Size: 13"
ENCODING 20028
SWIDTH 500 0
DWIDTH 6 0
BBX 12 12 0 -1
BITMAP
1080
1080
FFF0
1080
1480
1280
1080
FFF0
2080
2080
4080
8080
ENDCHAR
STARTCHAR uni4E3D
COMMENT "Index: 1 Size: 13"
ENCODING 20029
SWIDTH 500 0
DWIDTH 6 0
BBX 11 12 0 -1
BITMAP
0040
FFE0
0000
7BC0
4A40
4A40
6B40
5AC0
4A40
4A40
4A40
5AC0
ENDCHAR
STARTCHAR uni4E3E
COMMENT "Index: 1 Size: 13"
ENCODING 20030
SWIDTH 500 0
DWIDTH 6 0
BBX 12 12 0 -1
BITMAP
4880
4880
2500
FFE0
1500
2480
5F70
8400
0440
FFE0
0400
0400
ENDCHAR
STARTCHAR uni4E3F
COMMENT "Index: 1 Size: 13"
ENCODING 20031
SWIDTH 500 0
DWIDTH 6 0
BBX 5 12 0 -1
BITMAP
08
08
08
08
08
08
08
08
10
10
20
C0
ENDCHAR
STARTCHAR uni4E42
COMMENT "Index: 1 Size: 13"
ENCODING 20034
SWIDTH 500 0
DWIDTH 6 0
BBX 12 12 0 -1
BITMAP
0040
1040
1040
1080
1080
0880
0900
0500
0200
0500
18C0
E030
ENDCHAR
STARTCHAR uni4E43
COMMENT "Index: 1 Size: 13"
ENCODING 20035
SWIDTH 500 0
DWIDTH 6 0
BBX 12 12 0 -1
BITMAP
0080
FFC0
0880
0900
0920
09F0
1020
1020
2020
2220
41C0
8080
ENDCHAR
STARTCHAR uni4E45
COMMENT "Index: 1 Size: 13"
ENCODING 20037
SWIDTH 500 0
DWIDTH 6 0
BBX 12 12 0 -1
BITMAP
0800
0880
0FC0
1080
2080
4080
8100
0300
0480
0860
3030
C010
ENDCHAR
STARTCHAR uni4E47
COMMENT "Index: 1 Size: 13"
ENCODING 20039
SWIDTH 500 0
DWIDTH 6 0
BBX 12 12 0 -1
BITMAP
00C0
0700
7C00
0400
0400
0470
0780
FC00
0400
0410
0410
03F0
ENDCHAR
STARTCHAR uni4E48
COMMENT "Index: 1 Size: 13"
ENCODING 20040
SWIDTH 500 0
DWIDTH 6 0
BBX 12 12 0 -1
BITMAP
0400
0400
0800
08C0
1080
2100
4200
0400
0840
1020
FFF0
6010
ENDCHAR
STARTCHAR uni4E49
COMMENT "Index: 1 Size: 13"
ENCODING 20041
SWIDTH 500 0
DWIDTH 6 0
BBX 12 12 0 -1
BITMAP
0440
1240
1240
1080
1080
0880
0900
0500
0200
0500
18C0
E030
ENDCHAR
STARTCHAR uni4E4B
COMMENT "Index: 1 Size: 13"
ENCODING 20043
SWIDTH 500 0
DWIDTH 6 0
BBX 12 12 0 -1
BITMAP
0400
0200
0240
7FE0
0080
0100
0200
0400
0800
3000
C810
87E0
ENDCHAR
STARTCHAR uni4E4C
COMMENT "Index: 1 Size: 13"
ENCODING 20044
SWIDTH 500 0
DWIDTH 6 0
BBX 12 12 0 -1
BITMAP
0C00
0800
3FC0
2040
2380
2000
3FF0
0010
FF90
0110
00E0
0040
ENDCHAR
STARTCHAR uni4E4D
COMMENT "Index: 1 Size: 13"
ENCODING 20045
SWIDTH 500 0
DWIDTH 6 0
BBX 12 12 0 -1
BITMAP
1000
1020
1FF0
2400
4400
87E0
0400
0420
07F0
0400
0400
0400
ENDCHAR
STARTCHAR uni4E4E
COMMENT "Index: 1 Size: 13"
ENCODING 20046
SWIDTH 500 0
DWIDTH 6 0
BBX 12 12 0 -1
BITMAP
01C0
7E00
2260
1240
1280
0200
FFF0
0200
0200
1200
0E00
0400
ENDCHAR
STARTCHAR uni4E4F
COMMENT "Index: 1 Size: 13"
ENCODING 20047
SWIDTH 500 0
DWIDTH 6 0
BBX 12 12 0 -1
BITMAP
01C0
7E00
0400
0200
7FC0
0080
0100
0200
0C00
3000
CC30
83C0
ENDCHAR
STARTCHAR uni4E50
COMMENT "Index: 1 Size: 13"
ENCODING 20048
SWIDTH 500 0
DWIDTH 6 0
BBX 12 12 0 -1
BITMAP
11C0
1E00
1000
2200
2220
FFF0
0200
1280
1280
2260
4E30
8410
ENDCHAR
STARTCHAR uni4E52
COMMENT "Index: 1 Size: 13"
ENCODING 20050
SWIDTH 500 0
DWIDTH 6 0
BBX 12 12 0 -1
BITMAP
20C0
3F00
2000
3FE0
2100
2100
2120
FFF0
0000
0800
3000
C000
ENDCHAR
STARTCHAR uni4E53
COMMENT "Index: 1 Size: 13"
ENCODING 20051
SWIDTH 500 0
DWIDTH 6 0
BBX 12 12 0 -1
BITMAP
20C0
3F00
2000
3FE0
2100
2100
2120
FFF0
0000
0100
00C0
0030
ENDCHAR
STARTCHAR uni4E54
COMMENT "Index: 1 Size: 13"
ENCODING 20052
SWIDTH 500 0
DWIDTH 6 0
BBX 12 12 0 -1
BITMAP
01C0
7E00
0820
FFF0
1080
2040
D0B0
1080
1080
1080
2080
C080
ENDCHAR
STARTCHAR uni4E56
COMMENT "Index: 1 Size: 13"
ENCODING 20054
SWIDTH 500 0
DWIDTH 6 0
BBX 12 12 0 -1
BITMAP
01C0
7E00
0420
FFF0
1500
F520
15C0
1510
3510
C4F0
0400
0400
ENDCHAR
STARTCHAR uni4E58
COMMENT "Index: 1 Size: 13"
ENCODING 20056
SWIDTH 500 0
DWIDTH 6 0
BBX 12 12 0 -1
BITMAP
0380
7C00
0400
FFF0
14A0
F4C0
1490
EEF0
1500
2480
4470
8420
ENDCHAR
STARTCHAR uni4E59
COMMENT "Index: 1 Size: 13"
ENCODING 20057
SWIDTH 500 0
DWIDTH 6 0
BBX 12 12 0 -1
BITMAP
0200
FF00
0200
0400
0800
1000
2000
4000
4020
8020
8030
7FE0
ENDCHAR
STARTCHAR uni4E5C
COMMENT "Index: 1 Size: 13"
ENCODING 20060
SWIDTH 500 0
DWIDTH 6 0
BBX 12 12 0 -1
BITMAP
1000
1000
1040
11E0
1640
1840
F040
5040
1080
1010
1010
0FF0
ENDCHAR
STARTCHAR uni4E5D
COMMENT "Index: 1 Size: 13"
ENCODING 20061
SWIDTH 500 0
DWIDTH 6 0
BBX 12 12 0 -1
BITMAP
0800
0800
0880
FFC0
0880
0880
0880
0880
1090
1090
2090
C070
ENDCHAR
STARTCHAR uni4E5E
COMMENT "Index: 1 Size: 13"
ENCODING 20062
SWIDTH 500 0
DWIDTH 6 0
BBX 12 12 0 -1
BITMAP
2000
2020
3FF0
4000
8000
3F00
0400
0800
1020
2020
2030
1FE0
ENDCHAR
STARTCHAR uni4E5F
COMMENT "Index: 1 Size: 13"
ENCODING 20063
SWIDTH 500 0
DWIDTH 6 0
BBX 12 12 0 -1
BITMAP
0200
0200
1220
12F0
1320
1E20
F220
12C0
1200
1010
1010
0FF0
ENDCHAR
STARTCHAR uni4E60
COMMENT "Index: 1 Size: 13"
ENCODING 20064
SWIDTH 500 0
DWIDTH 6 0
BBX 12 12 0 -1
BITMAP
0020
7FF0
0020
1020
0820
0820
0120
0620
1820
E220
41C0
0080
ENDCHAR
STARTCHAR uni4E61
COMMENT "Index: 1 Size: 13"
ENCODING 20065
SWIDTH 500 0
DWIDTH 6 0
BBX 11 12 0 -1
BITMAP
0800
0800
1180
1100
7E60
0440
0880
7F80
2100
0200
0C00
F000
ENDCHAR
STARTCHAR uni4E66
COMMENT "Index: 1 Size: 13"
ENCODING 20070
SWIDTH 500 0
DWIDTH 6 0
BBX 12 12 0 -1
BITMAP
0440
0430
0410
7FC0
0440
0440
FFF0
0410
0410
04E0
0400
0400
ENDCHAR
STARTCHAR uni4E69
COMMENT "Index: 1 Size: 13"
ENCODING 20073
SWIDTH 500 0
DWIDTH 6 0
BBX 12 12 0 -1
BITMAP
2080
2080
2480
3E80
2080
2080
FC80
8480
8490
8490
FC90
8470
ENDCHAR
STARTCHAR uni4E70
COMMENT "Index: 1 Size: 13"
ENCODING 20080
SWIDTH 500 0
DWIDTH 6 0
BBX 12 12 0 -1
BITMAP
FFF0
0010
0920
0500
2500
1100
1120
FFF0
0500
0880
3040
C030
ENDCHAR
STARTCHAR uni4E71
COMMENT "Index: 1 Size: 13"
ENCODING 20081
SWIDTH 500 0
DWIDTH 6 0
BBX 12 12 0 -1
BITMAP
1A00
E200
2200
2200
FE00
2200
FA00
8A00
8A20
8A20
FA30
89E0
ENDCHAR
STARTCHAR uni4E73
COMMENT "Index: 1 Size: 13"
ENCODING 20083
SWIDTH 500 0
DWIDTH 6 0
BBX 12 12 0 -1
BITMAP
0D00
F100
A300
5500
7D00
0900
1100
FD00
5120
1120
7130
20E0
ENDCHAR
STARTCHAR uni4E7E
COMMENT "Index: 1 Size: 13"
ENCODING 20094
SWIDTH 500 0
DWIDTH 6 0
BBX 12 12 0 -1
BITMAP
1100
FD00
11F0
FE00
85E0
FC20
8440
FC80
1080
FF10
1110
10F0
ENDCHAR
STARTCHAR uni4E7F
COMMENT "Index: 1 Size: 13"
ENCODING 20095
SWIDTH 500 0
DWIDTH 6 0
BBX 12 12 0 -1
BITMAP
0C80
F280
9280
5480
2480
7880
2280
FD80
0890
2C90
4A90
9970
ENDCHAR
STARTCHAR uni4E82
COMMENT "Index: 1 Size: 13"
ENCODING 20098
SWIDTH 500 0
DWIDTH 6 0
BBX 12 12 0 -1
BITMAP
0C80
F280
5480
FC80
1080
FE80
AA80
FE80
AA90
9290
AA90
8670
ENDCHAR
STARTCHAR uni4E83
COMMENT "Index: 1 Size: 13"
ENCODING 20099
SWIDTH 500 0
DWIDTH 6 0
BBX 12 12 0 -1
BITMAP
9280
5480
FE80
5480
9280
4080
7F80
9280
5A90
2F90
4290
8270
ENDCHAR
STARTCHAR uni4E84
COMMENT "Index: 1 Size: 13"
ENCODING 20100
SWIDTH 500 0
DWIDTH 6 0
BBX 12 12 0 -1
BITMAP
1080
FF80
1080
FE80
8280
BA80
0080
7C80
4490
7C90
2890
FE70
ENDCHAR
STARTCHAR uni4E85
COMMENT "Index: 1 Size: 13"
ENCODING 20101
SWIDTH 500 0
DWIDTH 6 0
BBX 4 12 0 -1
BITMAP
10
10
10
10
10
10
10
10
10
90
70
20
ENDCHAR
STARTCHAR uni4E86
COMMENT "Index: 1 Size: 13"
ENCODING 20102
SWIDTH 500 0
DWIDTH 6 0
BBX 10 12 0 -1
BITMAP
FFC0
0080
0100
0600
0400
0400
0400
0400
0400
2400
1C00
0800
ENDCHAR
STARTCHAR uni4E88
COMMENT "Index: 1 Size: 13"
ENCODING 20104
SWIDTH 500 0
DWIDTH 6 0
BBX 12 12 0 -1
BITMAP
7FE0
0080
0D00
0220
FFF0
0220
0240
0200
0200
1200
0E00
0400
ENDCHAR
STARTCHAR uni4E89
COMMENT "Index: 1 Size: 13"
ENCODING 20105
SWIDTH 500 0
DWIDTH 6 0
BBX 12 12 0 -1
BITMAP
1100
1F80
2100
7FC0
0440
FFF0
0440
7FC0
0440
2400
1C00
0800
ENDCHAR
STARTCHAR uni4E8B
COMMENT "Index: 1 Size: 13"
ENCODING 20107
SWIDTH 500 0
DWIDTH 6 0
BBX 12 12 0 -1
BITMAP
0400
FFF0
0400
3F80
2480
7FC0
0440
FFF0
0440
7FC0
0400
1C00
ENDCHAR
STARTCHAR uni4E8C
COMMENT "Index: 1 Size: 13"
ENCODING 20108
SWIDTH 500 0
DWIDTH 6 0
BBX 12 12 0 -1
BITMAP
0080
3FC0
0000
0000
0000
0000
0000
0000
0000
0000
0020
FFF0
ENDCHAR
STARTCHAR uni4E8D
COMMENT "Index: 1 Size: 13"
ENCODING 20109
SWIDTH 500 0
DWIDTH 6 0
BBX 12 12 0 -1
BITMAP
0080
3FC0
0000
0020
FFF0
0200
0200
0200
0200
1200
0E00
0400
ENDCHAR
STARTCHAR uni4E8E
COMMENT "Index: 1 Size: 13"
ENCODING 20110
SWIDTH 500 0
DWIDTH 6 0
BBX 12 12 0 -1
BITMAP
0040
3FE0
0200
0200
0220
FFF0
0200
0200
0200
1200
0E00
0400
ENDCHAR
STARTCHAR uni4E8F
COMMENT "Index: 1 Size: 13"
ENCODING 20111
SWIDTH 500 0
DWIDTH 6 0
BBX 12 12 0 -1
BITMAP
3FC0
0000
0000
FFF0
0400
0800
1FC0
0040
0040
0440
0380
0100
ENDCHAR
STARTCHAR uni4E91
COMMENT "Index: 1 Size: 13"
ENCODING 20113
SWIDTH 500 0
DWIDTH 6 0
BBX 12 12 0 -1
BITMAP
0080
3FC0
0000
0000
0020
FFF0
0400
0880
1040
23E0
FC10
4010
ENDCHAR
STARTCHAR uni4E92
COMMENT "Index: 1 Size: 13"
ENCODING 20114
SWIDTH 500 0
DWIDTH 6 0
BBX 12 12 0 -1
BITMAP
FFF0
1000
1000
1080
1FC0
2080
2080
3F80
2100
0100
0100
FFF0
ENDCHAR
STARTCHAR uni4E93
COMMENT "Index: 1 Size: 13"
ENCODING 20115
SWIDTH 500 0
DWIDTH 6 0
BBX 12 12 0 -1
BITMAP
0080
3FC0
0000
0020
FFF0
0880
0880
0880
0880
1080
2080
C080
ENDCHAR
STARTCHAR uni4E94
COMMENT "Index: 1 Size: 13"
ENCODING 20116
SWIDTH 500 0
DWIDTH 6 0
BBX 12 12 0 -1
BITMAP
0040
FFE0
0400
0400
0440
7FE0
0840
0840
0840
1040
1040
FFF0
ENDCHAR
STARTCHAR uni4E95
COMMENT "Index: 1 Size: 13"
ENCODING 20117
SWIDTH 500 0
DWIDTH 6 0
BBX 12 12 0 -1
BITMAP
1080
1080
1080
7FE0
1080
1080
1080
FFF0
1080
1080
2080
C080
ENDCHAR
STARTCHAR uni4E98
COMMENT "Index: 1 Size: 13"
ENCODING 20120
SWIDTH 500 0
DWIDTH 6 0
BBX 12 12 0 -1
BITMAP
FFF0
0000
1FC0
1040
1040
1FC0
1040
1040
1FC0
1040
0020
FFF0
ENDCHAR
STARTCHAR uni4E99
COMMENT "Index: 1 Size: 13"
ENCODING 20121
SWIDTH 500 0
DWIDTH 6 0
BBX 12 12 0 -1
BITMAP
FFF0
0800
0800
0FC0
1040
1440
1280
2A80
2480
0500
0100
FFF0
ENDCHAR
STARTCHAR uni4E9A
COMMENT "Index: 1 Size: 13"
ENCODING 20122
SWIDTH 500 0
DWIDTH 6 0
BBX 12 12 0 -1
BITMAP
7FF0
0900
0900
0900
4920
4920
2940
2940
0900
0900
0920
FFF0
ENDCHAR
STARTCHAR uni4E9B
COMMENT "Index: 1 Size: 13"
ENCODING 20123
SWIDTH 500 0
DWIDTH 6 0
BBX 12 12 0 -1
BITMAP
1100
1110
5D20
51C0
5110
5D10
F0F0
4000
3FC0
0000
0020
FFF0
ENDCHAR
STARTCHAR uni4E9E
COMMENT "Index: 1 Size: 13"
ENCODING 20126
SWIDTH 500 0
DWIDTH 6 0
BBX 12 12 0 -1
BITMAP
FFF0
0900
0900
0900
79E0
4020
4020
79E0
4920
0900
0900
FFF0
ENDCHAR
STARTCHAR uni4E9F
COMMENT "Index: 1 Size: 13"
ENCODING 20127
SWIDTH 500 0
DWIDTH 6 0
BBX 12 12 0 -1
BITMAP
7FE0
0400
0800
1E00
72E0
52A0
52A0
7240
52A0
0F10
0400
FFF0
ENDCHAR
STARTCHAR uni4EA0
COMMENT "Index: 1 Size: 13"
ENCODING 20128
SWIDTH 500 0
DWIDTH 6 0
BBX 12 4 0 5
BITMAP
0400
0200
0220
FFF0
ENDCHAR
STARTCHAR uni4EA1
COMMENT "Index: 1 Size: 13"
ENCODING 20129
SWIDTH 500 0
DWIDTH 6 0
BBX 12 12 0 -1
BITMAP
0400
0200
0220
FFF0
1000
1000
1000
1000
1000
1000
1040
1FE0
ENDCHAR
STARTCHAR uni4EA2
COMMENT "Index: 1 Size: 13"
ENCODING 20130
SWIDTH 500 0
DWIDTH 6 0
BBX 12 12 0 -1
BITMAP
0600
0200
FFF0
0000
1F80
1080
1080
1080
1080
1090
2090
C070
ENDCHAR
STARTCHAR uni4EA4
COMMENT "Index: 1 Size: 13"
ENCODING 20132
SWIDTH 500 0
DWIDTH 6 0
BBX 12 12 0 -1
BITMAP
0600
0220
FFF0
0880
1040
20B0
C890
0500
0200
0500
18C0
E030
ENDCHAR
STARTCHAR uni4EA5
COMMENT "Index: 1 Size: 13"
ENCODING 20133
SWIDTH 500 0
DWIDTH 6 0
BBX 12 12 0 -1
BITMAP
0600
0220
FFF0
0800
1080
3F20
0240
0480
1900
6280
0C60
F030
ENDCHAR
STARTCHAR uni4EA6
COMMENT "Index: 1 Size: 13"
ENCODING 20134
SWIDTH 500 0
DWIDTH 6 0
BBX 12 12 0 -1
BITMAP
0600
0200
FFF0
0880
0880
28A0
28A0
4890
8890
1090
2380
C100
ENDCHAR
STARTCHAR uni4EA7
COMMENT "Index: 1 Size: 13"
ENCODING 20135
SWIDTH 500 0
DWIDTH 6 0
BBX 12 12 0 -1
BITMAP
0600
0220
7FF0
0840
0480
3FF0
2000
2000
2000
2000
4000
8000
ENDCHAR
STARTCHAR uni4EA8
COMMENT "Index: 1 Size: 13"
ENCODING 20136
SWIDTH 500 0
DWIDTH 6 0
BBX 12 12 0 -1
BITMAP
0200
FFF0
0000
1FC0
1040
1FC0
0000
7FE0
0100
0200
0E00
0400
ENDCHAR
STARTCHAR uni4EA9
COMMENT "Index: 1 Size: 13"
ENCODING 20137
SWIDTH 500 0
DWIDTH 6 0
BBX 12 12 0 -1
BITMAP
0600
0220
FFF0
0000
7FE0
4220
4220
7FE0
4220
4220
7FE0
4020
ENDCHAR
STARTCHAR uni4EAB
COMMENT "Index: 1 Size: 13"
ENCODING 20139
SWIDTH 500 0
DWIDTH 6 0
BBX 12 12 0 -1
BITMAP
0200
FFF0
0000
1FC0
1040
1FC0
0000
3FC0
0100
FFF0
0200
0E00
ENDCHAR
STARTCHAR uni4EAC
COMMENT "Index: 1 Size: 13"
ENCODING 20140
SWIDTH 500 0
DWIDTH 6 0
BBX 12 12 0 -1
BITMAP
0200
FFF0
0000
1FC0
1040
1040
1FC0
0200
1280
2260
4E30
8410
ENDCHAR
STARTCHAR uni4EAD
COMMENT "Index: 1 Size: 13"
ENCODING 20141
SWIDTH 500 0
DWIDTH 6 0
BBX 12 12 0 -1
BITMAP
0200
FFF0
1040
1FC0
0000
FFF0
8010
3FC0
0200
1200
0E00
0400
ENDCHAR
STARTCHAR uni4EAE
COMMENT "Index: 1 Size: 13"
ENCODING 20142
SWIDTH 500 0
DWIDTH 6 0
BBX 12 12 0 -1
BITMAP
0400
FFF0
1040
1FC0
0000
FFF0
8010
9F90
1080
1090
2090
C070
ENDCHAR
STARTCHAR uni4EB2
COMMENT "Index: 1 Size: 13"
ENCODING 20146
SWIDTH 500 0
DWIDTH 6 0
BBX 12 12 0 -1
BITMAP
0200
7FE0
1080
0880
0500
FFF0
0200
7FE0
1280
1260
2230
C610
ENDCHAR
STARTCHAR uni4EB3
COMMENT "Index: 1 Size: 13"
ENCODING 20147
SWIDTH 500 0
DWIDTH 6 0
BBX 12 12 0 -1
BITMAP
0200
FFF0
0000
1F80
1080
FFF0
8010
3F80
0400
7FD0
0410
03F0
ENDCHAR
STARTCHAR uni4EB5
COMMENT "Index: 1 Size: 13"
ENCODING 20149
SWIDTH 500 0
DWIDTH 6 0
BBX 12 12 0 -1
BITMAP
0400
FFF0
2100
FFC0
2540
F350
24B0
6C50
1280
F100
14C0
3830
ENDCHAR
STARTCHAR uni4EB6
COMMENT "Index: 1 Size: 13"
ENCODING 20150
SWIDTH 500 0
DWIDTH 6 0
BBX 12 12 0 -1
BITMAP
0200
FFF0
28A0
2FA0
2020
3FE0
1040
1FC0
1040
1FC0
0000
FFF0
ENDCHAR
STARTCHAR uni4EB9
COMMENT "Index: 1 Size: 13"
ENCODING 20153
SWIDTH 500 0
DWIDTH 6 0
BBX 12 12 0 -1
BITMAP
0200
FFF0
48A0
7FE0
48A0
7FE0
4AA0
FFF0
A050
3FC0
2040
FFF0
ENDCHAR
STARTCHAR uni4EBA
COMMENT "Index: 1 Size: 13"
ENCODING 20154
SWIDTH 500 0
DWIDTH 6 0
BBX 12 12 0 -1
BITMAP
0200
0200
0200
0200
0200
0200
0200
0500
0880
1060
2030
C010
ENDCHAR
STARTCHAR uni4EBB
COMMENT "Index: 1 Size: 13"
ENCODING 20155
SWIDTH 500 0
DWIDTH 6 0
BBX 4 12 0 -1
BITMAP
10
10
20
20
60
A0
20
20
20
20
20
20
ENDCHAR
STARTCHAR uni4EBF
COMMENT "Index: 1 Size: 13"
ENCODING 20159
SWIDTH 500 0
DWIDTH 6 0
BBX 12 12 0 -1
BITMAP
1000
17E0
2040
2080
6100
A200
2200
2400
2410
2810
2810
27F0
ENDCHAR
STARTCHAR uni4EC0
COMMENT "Index: 1 Size: 13"
ENCODING 20160
SWIDTH 500 0
DWIDTH 6 0
BBX 12 12 0 -1
BITMAP
1080
1080
2080
2080
6FF0
A080
2080
2080
2080
2080
2080
2080
ENDCHAR
STARTCHAR uni4EC1
COMMENT "Index: 1 Size: 13"
ENCODING 20161
SWIDTH 500 0
DWIDTH 6 0
BBX 12 12 0 -1
BITMAP
1000
1040
27E0
2000
6000
A000
2000
2000
2000
2000
2020
2FF0
ENDCHAR
STARTCHAR uni4EC2
COMMENT "Index: 1 Size: 13"
ENCODING 20162
SWIDTH 500 0
DWIDTH 6 0
BBX 12 12 0 -1
BITMAP
1100
1100
1120
2FF0
2120
6120
A120
2120
2220
2220
24A0
2840
ENDCHAR
STARTCHAR uni4EC3
COMMENT "Index: 1 Size: 13"
ENCODING 20163
SWIDTH 500 0
DWIDTH 6 0
BBX 12 12 0 -1
BITMAP
1020
1FF0
2080
2080
6080
A080
2080
2080
2080
2480
2380
2100
ENDCHAR
STARTCHAR uni4EC4
COMMENT "Index: 1 Size: 13"
ENCODING 20164
SWIDTH 500 0
DWIDTH 6 0
BBX 12 12 0 -1
BITMAP
2020
3FF0
2000
2200
2200
2200
2200
2300
2480
4860
9030
2010
ENDCHAR
STARTCHAR uni4EC5
COMMENT "Index: 1 Size: 13"
ENCODING 20165
SWIDTH 500 0
DWIDTH 6 0
BBX 12 12 0 -1
BITMAP
1020
1FF0
2420
2420
6240
A240
2180
2180
2240
2420
2830
3010
ENDCHAR
STARTCHAR uni4EC6
COMMENT "Index: 1 Size: 13"
ENCODING 20166
SWIDTH 500 0
DWIDTH 6 0
BBX 12 12 0 -1
BITMAP
0900
0900
1100
1100
3180
5160
9130
1110
1100
1100
1100
1100
ENDCHAR
STARTCHAR uni4EC7
COMMENT "Index: 1 Size: 13"
ENCODING 20167
SWIDTH 500 0
DWIDTH 6 0
BBX 12 12 0 -1
BITMAP
1200
1200
2240
2FE0
6240
A240
2240
2240
2240
2450
2850
3030
ENDCHAR
STARTCHAR uni4EC8
COMMENT "Index: 1 Size: 13"
ENCODING 20168
SWIDTH 500 0
DWIDTH 6 0
BBX 12 12 0 -1
BITMAP
1080
1280
2280
2280
6280
A480
2440
2440
2840
2820
3020
2010
ENDCHAR
STARTCHAR uni4EC9
COMMENT "Index: 1 Size: 13"
ENCODING 20169
SWIDTH 500 0
DWIDTH 6 0
BBX 12 12 0 -1
BITMAP
1040
13E0
2240
2240
6240
A240
2240
2240
2440
2450
2850
3070
ENDCHAR
STARTCHAR uni4ECA
COMMENT "Index: 1 Size: 13"
ENCODING 20170
SWIDTH 500 0
DWIDTH 6 0
BBX 11 12 0 -1
BITMAP
0400
0400
0A00
1100
2480
C460
0080
7FC0
0100
0100
0200
0400
ENDCHAR
STARTCHAR uni4ECB
COMMENT "Index: 1 Size: 13"
ENCODING 20171
SWIDTH 500 0
DWIDTH 6 0
BBX 12 12 0 -1
BITMAP
0600
0900
1080
2040
4030
9090
1080
1080
1080
1080
2080
C080
ENDCHAR
STARTCHAR uni4ECD
COMMENT "Index: 1 Size: 13"
ENCODING 20173
SWIDTH 500 0
DWIDTH 6 0
BBX 12 12 0 -1
BITMAP
17E0
1220
2220
2240
6240
A2F0
2210
2210
2210
2410
2490
2860
ENDCHAR
STARTCHAR uni4ECE
COMMENT "Index: 1 Size: 13"
ENCODING 20174
SWIDTH 500 0
DWIDTH 6 0
BBX 12 12 0 -1
BITMAP
1100
1100
1100
1100
1100
1100
1900
1500
2280
4460
8830
1010
ENDCHAR
STARTCHAR uni4ED1
COMMENT "Index: 1 Size: 13"
ENCODING 20177
SWIDTH 500 0
DWIDTH 6 0
BBX 11 12 0 -1
BITMAP
0400
0A00
1100
2080
4040
9020
1180
1600
1800
1040
1040
0FC0
ENDCHAR
STARTCHAR uni4ED3
COMMENT "Index: 1 Size: 13"
ENCODING 20179
SWIDTH 500 0
DWIDTH 6 0
BBX 11 12 0 -1
BITMAP
0400
0A00
1100
2080
4040
9FA0
1080
1080
1300
1020
1020
0FE0
ENDCHAR
STARTCHAR uni4ED4
COMMENT "Index: 1 Size: 13"
ENCODING 20180
SWIDTH 500 0
DWIDTH 6 0
BBX 12 12 0 -1
BITMAP
17F0
1020
2040
2080
6080
AFF0
2080
2080
2080
2480
2380
2100
ENDCHAR
STARTCHAR uni4ED5
COMMENT "Index: 1 Size: 13"
ENCODING 20181
SWIDTH 500 0
DWIDTH 6 0
BBX 12 12 0 -1
BITMAP
1100
1100
2100
2120
6FF0
A100
2100
2100
2100
2100
2100
27E0
ENDCHAR
STARTCHAR uni4ED6
COMMENT "Index: 1 Size: 13"
ENCODING 20182
SWIDTH 500 0
DWIDTH 6 0
BBX 12 12 0 -1
BITMAP
1100
1100
2520
25F0
6720
BD20
2520
2560
2500
2510
2410
23F0
ENDCHAR
STARTCHAR uni4ED7
COMMENT "Index: 1 Size: 13"
ENCODING 20183
SWIDTH 500 0
DWIDTH 6 0
BBX 12 12 0 -1
BITMAP
1080
1080
20A0
2FF0
6080
A480
2280
2280
2100
2180
2240
2C30
ENDCHAR
STARTCHAR uni4ED8
COMMENT "Index: 1 Size: 13"
ENCODING 20184
SWIDTH 500 0
DWIDTH 6 0
BBX 12 12 0 -1
BITMAP
1040
1040
2040
2FF0
6040
A440
2240
2240
2040
2240
21C0
2080
ENDCHAR
STARTCHAR uni4ED9
COMMENT "Index: 1 Size: 13"
ENCODING 20185
SWIDTH 500 0
DWIDTH 6 0
BBX 12 12 0 -1
BITMAP
1080
1080
2080
2490
6490
A490
2490
2490
2490
2490
27F0
2410
ENDCHAR
STARTCHAR uni4EDA
COMMENT "Index: 1 Size: 13"
ENCODING 20186
SWIDTH 500 0
DWIDTH 6 0
BBX 11 12 0 -1
BITMAP
0400
0400
0A00
1100
2480
C460
0400
4440
4440
4440
7FC0
4040
ENDCHAR
STARTCHAR uni4EDC
COMMENT "Index: 1 Size: 13"
ENCODING 20188
SWIDTH 500 0
DWIDTH 6 0
BBX 12 12 0 -1
BITMAP
1000
1040
27E0
2100
6100
A100
2100
2100
2100
2100
2120
2FF0
ENDCHAR
STARTCHAR uni4EDD
COMMENT "Index: 1 Size: 13"
ENCODING 20189
SWIDTH 500 0
DWIDTH 6 0
BBX 12 12 0 -1
BITMAP
0200
0500
0880
3040
C030
0000
3FC0
0200
0200
0200
0220
FFF0
ENDCHAR
STARTCHAR uni4EDE
COMMENT "Index: 1 Size: 13"
ENCODING 20190
SWIDTH 500 0
DWIDTH 6 0
BBX 12 12 0 -1
BITMAP
1000
17F0
2090
2090
6490
A490
2490
2910
2110
2210
2410
2860
ENDCHAR
STARTCHAR uni4EDF
COMMENT "Index: 1 Size: 13"
ENCODING 20191
SWIDTH 500 0
DWIDTH 6 0
BBX 12 12 0 -1
BITMAP
1020
13C0
2080
2080
6080
AFF0
2080
2080
2080
2080
2080
2080
ENDCHAR
STARTCHAR uni4EE1
COMMENT "Index: 1 Size: 13"
ENCODING 20193
SWIDTH 500 0
DWIDTH 6 0
BBX 12 12 0 -1
BITMAP
1200
1220
23F0
2400
6800
A7E0
2040
2080
2100
2210
2410
23F0
ENDCHAR
STARTCHAR uni4EE3
COMMENT "Index: 1 Size: 13"
ENCODING 20195
SWIDTH 500 0
DWIDTH 6 0
BBX 12 12 0 -1
BITMAP
1280
1240
2200
2220
6FC0
A200
2200
2200
2100
2110
2090
2070
ENDCHAR
STARTCHAR uni4EE4
COMMENT "Index: 1 Size: 13"
ENCODING 20196
SWIDTH 500 0
DWIDTH 6 0
BBX 12 12 0 -1
BITMAP
0600
0900
30C0
C430
0200
0200
7FE0
0040
0080
0D00
0200
0180
ENDCHAR
STARTCHAR uni4EE5
COMMENT "Index: 1 Size: 13"
ENCODING 20197
SWIDTH 500 0
DWIDTH 6 0
BBX 12 12 0 -1
BITMAP
0040
2040
2440
2240
2240
2040
2040
2240
2CC0
F120
4230
0C10
ENDCHAR
STARTCHAR uni4EE8
COMMENT "Index: 1 Size: 13"
ENCODING 20200
SWIDTH 500 0
DWIDTH 6 0
BBX 12 12 0 -1
BITMAP
1020
1FF0
2000
2000
6000
A000
23E0
2000
2000
2000
2000
2FF0
ENDCHAR
STARTCHAR uni4EE9
COMMENT "Index: 1 Size: 13"
ENCODING 20201
SWIDTH 500 0
DWIDTH 6 0
BBX 12 12 0 -1
BITMAP
1100
1100
2100
2100
61F0
A100
2100
2100
2100
2100
2100
2FF0
ENDCHAR
STARTCHAR uni4EEA
COMMENT "Index: 1 Size: 13"
ENCODING 20202
SWIDTH 500 0
DWIDTH 6 0
BBX 12 12 0 -1
BITMAP
1200
1120
2520
2420
6440
A440
2280
2280
2100
2280
2440
2830
ENDCHAR
STARTCHAR uni4EEB
COMMENT "Index: 1 Size: 13"
ENCODING 20203
SWIDTH 500 0
DWIDTH 6 0
BBX 12 12 0 -1
BITMAP
1100
1100
2200
2200
6480
A880
2100
2100
2240
2420
2FD0
2410
ENDCHAR
STARTCHAR uni4EEC
COMMENT "Index: 1 Size: 13"
ENCODING 20204
SWIDTH 500 0
DWIDTH 6 0
BBX 12 12 0 -1
BITMAP
14F0
1210
2010
2410
6410
A410
2410
2410
2410
2490
2470
2420
ENDCHAR
STARTCHAR uni4EF0
COMMENT "Index: 1 Size: 13"
ENCODING 20208
SWIDTH 500 0
DWIDTH 6 0
BBX 12 12 0 -1
BITMAP
1100
12F0
2490
2490
6490
A490
2490
2590
2690
28B0
2080
2080
ENDCHAR
STARTCHAR uni4EF1
COMMENT "Index: 1 Size: 13"
ENCODING 20209
SWIDTH 500 0
DWIDTH 6 0
BBX 12 12 0 -1
BITMAP
1100
1100
2280
2440
2920
6090
A000
27E0
2040
2080
2080
2100
ENDCHAR
STARTCHAR uni4EF2
COMMENT "Index: 1 Size: 13"
ENCODING 20210
SWIDTH 500 0
DWIDTH 6 0
BBX 12 12 0 -1
BITMAP
1080
1080
2080
27F0
6490
A490
2490
27F0
2490
2080
2080
2080
ENDCHAR
STARTCHAR uni4EF3
COMMENT "Index: 1 Size: 13"
ENCODING 20211
SWIDTH 500 0
DWIDTH 6 0
BBX 12 12 0 -1
BITMAP
1480
1480
2480
24B0
67C0
A480
2480
2480
2480
2580
2690
2470
ENDCHAR
STARTCHAR uni4EF4
COMMENT "Index: 1 Size: 13"
ENCODING 20212
SWIDTH 500 0
DWIDTH 6 0
BBX 11 12 0 -1
BITMAP
17E0
1420
2420
27E0
6420
A420
27E0
2420
2420
2420
28E0
3040
ENDCHAR
STARTCHAR uni4EF5
COMMENT "Index: 1 Size: 13"
ENCODING 20213
SWIDTH 500 0
DWIDTH 6 0
BBX 12 12 0 -1
BITMAP
1200
1200
23F0
2480
6080
A080
2FF0
2080
2080
2080
2080
2080
ENDCHAR
STARTCHAR uni4EF6
COMMENT "Index: 1 Size: 13"
ENCODING 20214
SWIDTH 500 0
DWIDTH 6 0
BBX 12 12 0 -1
BITMAP
1080
1480
2480
27E0
6880
A080
2080
2FF0
2080
2080
2080
2080
ENDCHAR
STARTCHAR uni4EF7
COMMENT "Index: 1 Size: 13"
ENCODING 20215
SWIDTH 500 0
DWIDTH 6 0
BBX 12 12 0 -1
BITMAP
1100
1100
2280
2440
6830
A240
2240
2240
2240
2240
2440
2840
ENDCHAR
STARTCHAR uni4EFB
COMMENT "Index: 1 Size: 13"
ENCODING 20219
SWIDTH 500 0
DWIDTH 6 0
BBX 12 12 0 -1
BITMAP
1060
1180
2F00
2100
6100
A120
2FF0
2100
2100
2100
2100
27E0
ENDCHAR
STARTCHAR uni4EFD
COMMENT "Index: 1 Size: 13"
ENCODING 20221
SWIDTH 500 0
DWIDTH 6 0
BBX 12 12 0 -1
BITMAP
1080
1280
2440
2420
6810
A7E0
2120
2120
2120
2220
2420
28C0
ENDCHAR
STARTCHAR uni4EFF
COMMENT "Index: 1 Size: 13"
ENCODING 20223
SWIDTH 500 0
DWIDTH 6 0
BBX 12 12 0 -1
BITMAP
1200
1180
2080
2FF0
6100
A1E0
2120
2120
2220
2220
24A0
2840
ENDCHAR
STARTCHAR uni4F00
COMMENT "Index: 1 Size: 13"
ENCODING 20224
SWIDTH 500 0
DWIDTH 6 0
BBX 12 12 0 -1
BITMAP
1080
1280
2280
2440
6440
A920
2110
2200
2240
2440
2FE0
2420
ENDCHAR
STARTCHAR uni4F01
COMMENT "Index: 1 Size: 13"
ENCODING 20225
SWIDTH 500 0
DWIDTH 6 0
BBX 12 12 0 -1
BITMAP
0400
0400
0A00
1100
2480
C460
0400
2780
2400
2400
2420
FFF0
ENDCHAR
STARTCHAR uni4F02
COMMENT "Index: 1 Size: 13"
ENCODING 20226
SWIDTH 500 0
DWIDTH 6 0
BBX 12 12 0 -1
BITMAP
1080
1080
2FF0
2080
67F0
A490
2490
2490
2490
24B0
2080
2080
ENDCHAR
STARTCHAR uni4F04
COMMENT "Index: 1 Size: 13"
ENCODING 20228
SWIDTH 500 0
DWIDTH 6 0
BBX 12 12 0 -1
BITMAP
17E0
1120
2120
27E0
6500
A500
2FF0
2110
2110
2160
2100
2100
ENDCHAR
STARTCHAR uni4F05
COMMENT "Index: 1 Size: 13"
ENCODING 20229
SWIDTH 500 0
DWIDTH 6 0
BBX 12 12 0 -1
BITMAP
1100
1100
2FF0
2100
6920
A920
2920
2FE0
2920
2110
2110
20F0
ENDCHAR
STARTCHAR uni4F08
COMMENT "Index: 1 Size: 13"
ENCODING 20232
SWIDTH 500 0
DWIDTH 6 0
BBX 12 12 0 -1
BITMAP
1100
1080
2040
2200
6200
A220
2A10
2A10
3200
2220
2220
21E0
ENDCHAR
STARTCHAR uni4F09
COMMENT "Index: 1 Size: 13"
ENCODING 20233
SWIDTH 500 0
DWIDTH 6 0
BBX 12 12 0 -1
BITMAP
1100
1080
2FF0
2000
6380
A280
2280
2280
2280
2290
2490
2870
ENDCHAR
STARTCHAR uni4F0A
COMMENT "Index: 1 Size: 13"
ENCODING 20234
SWIDTH 500 0
DWIDTH 6 0
BBX 12 12 0 -1
BITMAP
1000
17E0
2220
2220
2FF0
6220
A220
2FE0
2220
2200
2400
3800
ENDCHAR
STARTCHAR uni4F0B
COMMENT "Index: 1 Size: 13"
ENCODING 20235
SWIDTH 500 0
DWIDTH 6 0
BBX 12 12 0 -1
BITMAP
1040
17E0
2240
2280
62F0
A220
2220
2320
24C0
24C0
2920
3210
ENDCHAR
STARTCHAR uni4F0D
COMMENT "Index: 1 Size: 13"
ENCODING 20237
SWIDTH 500 0
DWIDTH 6 0
BBX 12 12 0 -1
BITMAP
1020
1FF0
2100
2100
6120
AFF0
2120
2120
2220
2220
2220
2FF0
ENDCHAR
STARTCHAR uni4F0E
COMMENT "Index: 1 Size: 13"
ENCODING 20238
SWIDTH 500 0
DWIDTH 6 0
BBX 12 12 0 -1
BITMAP
1100
1100
2FF0
2100
6100
AFE0
2440
2280
2100
2280
2440
2830
ENDCHAR
STARTCHAR uni4F0F
COMMENT "Index: 1 Size: 13"
ENCODING 20239
SWIDTH 500 0
DWIDTH 6 0
BBX 12 12 0 -1
BITMAP
1100
1140
2120
2100
6FF0
A100
2100
2100
2280
2440
2820
3010
ENDCHAR
STARTCHAR uni4F10
COMMENT "Index: 1 Size: 13"
ENCODING 20240
SWIDTH 500 0
DWIDTH 6 0
BBX 12 12 0 -1
BITMAP
1280
1240
2200
2230
7FC0
A220
2240
2280
2100
2290
2450
2830
ENDCHAR
STARTCHAR uni4F11
COMMENT "Index: 1 Size: 13"
ENCODING 20241
SWIDTH 500 0
DWIDTH 6 0
BBX 11 12 0 -1
BITMAP
1100
1100
2100
3FE0
6100
A100
2380
2540
2920
3120
2100
2100
ENDCHAR
STARTCHAR uni4F12
COMMENT "Index: 1 Size: 13"
ENCODING 20242
SWIDTH 500 0
DWIDTH 6 0
BBX 12 12 0 -1
BITMAP
1030
17C0
2400
2420
67F0
A440
2440
2440
2440
2440
2840
3040
ENDCHAR
STARTCHAR uni4F13
COMMENT "Index: 1 Size: 13"
ENCODING 20243
SWIDTH 500 0
DWIDTH 6 0
BBX 12 12 0 -1
BITMAP
1000
17F0
2080
2100
6100
A320
2510
2910
2100
2100
2100
2100
ENDCHAR
STARTCHAR uni4F14
COMMENT "Index: 1 Size: 13"
ENCODING 20244
SWIDTH 500 0
DWIDTH 6 0
BBX 12 12 0 -1
BITMAP
1000
17F0
2410
2000
63C0
A240
2240
2240
2240
2250
2450
2830
ENDCHAR
STARTCHAR uni4F15
COMMENT "Index: 1 Size: 13"
ENCODING 20245
SWIDTH 500 0
DWIDTH 6 0
BBX 12 12 0 -1
BITMAP
1100
1100
2FE0
2100
6100
BFF0
2100
2100
2180
2240
2420
2810
ENDCHAR
STARTCHAR uni4F17
COMMENT "Index: 1 Size: 13"
ENCODING 20247
SWIDTH 500 0
DWIDTH 6 0
BBX 11 12 0 -1
BITMAP
0400
0A00
1100
2080
4140
9120
1100
1100
2A80
4A80
8440
0820
ENDCHAR
STARTCHAR uni4F18
COMMENT "Index: 1 Size: 13"
ENCODING 20248
SWIDTH 500 0
DWIDTH 6 0
BBX 12 12 0 -1
BITMAP
1140
1120
2100
2FF0
6100
A180
2180
2280
2280
2290
2490
2870
ENDCHAR
STARTCHAR uni4F19
COMMENT "Index: 1 Size: 13"
ENCODING 20249
SWIDTH 500 0
DWIDTH 6 0
BBX 12 12 0 -1
BITMAP
1100
1100
2130
2520
6540
A580
2900
2100
2180
2260
2430
3810
ENDCHAR
STARTCHAR uni4F1A
COMMENT "Index: 1 Size: 13"
ENCODING 20250
SWIDTH 500 0
DWIDTH 6 0
BBX 12 12 0 -1
BITMAP
0400
0A00
1100
2080
5F40
8030
0000
7FC0
0800
1080
3F80
0040
ENDCHAR
STARTCHAR uni4F1B
COMMENT "Index: 1 Size: 13"
ENCODING 20251
SWIDTH 500 0
DWIDTH 6 0
BBX 12 12 0 -1
BITMAP
1020
1FF0
2800
2C40
2A40
6980
A880
2940
2A20
2800
2820
2FF0
ENDCHAR
STARTCHAR uni4F1D
COMMENT "Index: 1 Size: 13"
ENCODING 20253
SWIDTH 500 0
DWIDTH 6 0
BBX 12 12 0 -1
BITMAP
1040
17E0
2000
2000
2020
6FF0
A100
2200
2240
2420
2FD0
2410
ENDCHAR
STARTCHAR uni4F1E
COMMENT "Index: 1 Size: 13"
ENCODING 20254
SWIDTH 500 0
DWIDTH 6 0
BBX 11 12 0 -1
BITMAP
0400
0A00
1100
2080
4440
A4A0
1500
0400
FFE0
0400
0400
0400
ENDCHAR
STARTCHAR uni4F1F
COMMENT "Index: 1 Size: 13"
ENCODING 20255
SWIDTH 500 0
DWIDTH 6 0
BBX 12 12 0 -1
BITMAP
1100
1100
2FF0
2100
67E0
A100
2FF0
2110
2110
2160
2100
2100
ENDCHAR
STARTCHAR uni4F20
COMMENT "Index: 1 Size: 13"
ENCODING 20256
SWIDTH 500 0
DWIDTH 6 0
BBX 12 12 0 -1
BITMAP
1100
1100
27E0
2100
6FF0
A200
27E0
2040
2080
2300
2080
2040
ENDCHAR
STARTCHAR uni4F22
COMMENT "Index: 1 Size: 13"
ENCODING 20258
SWIDTH 500 0
DWIDTH 6 0
BBX 12 12 0 -1
BITMAP
1020
17F0
2240
2240
6440
AFF0
2140
2140
2240
2440
29C0
2080
ENDCHAR
STARTCHAR uni4F24
COMMENT "Index: 1 Size: 13"
ENCODING 20260
SWIDTH 500 0
DWIDTH 6 0
BBX 12 12 0 -1
BITMAP
1400
1420
27F0
2900
6100
A7F0
2110
2110
2110
2210
24E0
2840
ENDCHAR
STARTCHAR uni4F25
COMMENT "Index: 1 Size: 13"
ENCODING 20261
SWIDTH 500 0
DWIDTH 6 0
BBX 12 12 0 -1
BITMAP
1400
1440
2480
2500
6600
BFF0
2480
2480
2480
2440
2520
2210
ENDCHAR
STARTCHAR uni4F26
COMMENT "Index: 1 Size: 13"
ENCODING 20262
SWIDTH 500 0
DWIDTH 6 0
BBX 12 12 0 -1
BITMAP
1100
1100
2280
2440
6820
B210
2240
2280
2300
2210
2210
21F0
ENDCHAR
STARTCHAR uni4F27
COMMENT "Index: 1 Size: 13"
ENCODING 20263
SWIDTH 500 0
DWIDTH 6 0
BBX 12 12 0 -1
BITMAP
1100
1100
2280
2440
6820
A7D0
2440
2440
25C0
2410
2410
23F0
ENDCHAR
STARTCHAR uni4F2A
COMMENT "Index: 1 Size: 13"
ENCODING 20266
SWIDTH 500 0
DWIDTH 6 0
BBX 12 12 0 -1
BITMAP
1080
1480
2280
2080
6FF0
A110
2190
2150
2250
2210
2410
2860
ENDCHAR
STARTCHAR uni4F2B
COMMENT "Index: 1 Size: 13"
ENCODING 20267
SWIDTH 500 0
DWIDTH 6 0
BBX 12 12 0 -1
BITMAP
1100
1080
27F0
2410
6820
A000
2000
2000
2000
2020
27F0
2000
ENDCHAR
STARTCHAR uni4F2C
COMMENT "Index: 1 Size: 13"
ENCODING 20268
SWIDTH 500 0
DWIDTH 6 0
BBX 12 12 0 -1
BITMAP
1020
17F0
2420
2420
6420
A7E0
2480
2480
2480
2440
2820
3010
ENDCHAR
STARTCHAR uni4F2D
COMMENT "Index: 1 Size: 13"
ENCODING 20269
SWIDTH 500 0
DWIDTH 6 0
BBX 12 12 0 -1
BITMAP
1180
1080
2FF0
2100
2200
6440
AF80
2080
2100
2220
2FD0
2410
ENDCHAR
STARTCHAR uni4F2F
COMMENT "Index: 1 Size: 13"
ENCODING 20271
SWIDTH 500 0
DWIDTH 6 0
BBX 12 12 0 -1
BITMAP
1180
1100
27F0
2410
6410
A410
27F0
2410
2410
2410
27F0
2410
ENDCHAR
STARTCHAR uni4F30
COMMENT "Index: 1 Size: 13"
ENCODING 20272
SWIDTH 500 0
DWIDTH 6 0
BBX 12 12 0 -1
BITMAP
1100
1100
2100
2FF0
6100
A120
2FF0
2820
2820
2820
2FE0
2820
ENDCHAR
STARTCHAR uni4F32
COMMENT "Index: 1 Size: 13"
ENCODING 20274
SWIDTH 500 0
DWIDTH 6 0
BBX 12 12 0 -1
BITMAP
17E0
1420
1420
27E0
2420
6500
A520
2540
2580
2510
2910
30F0
ENDCHAR
STARTCHAR uni4F33
COMMENT "Index: 1 Size: 13"
ENCODING 20275
SWIDTH 500 0
DWIDTH 6 0
BBX 12 12 0 -1
BITMAP
1520
1520
2520
2FF0
6520
A520
2520
25E0
2520
2400
2400
27F0
ENDCHAR
STARTCHAR uni4F34
COMMENT "Index: 1 Size: 13"
ENCODING 20276
SWIDTH 500 0
DWIDTH 6 0
BBX 12 12 0 -1
BITMAP
1100
1100
2520
2340
6100
AFE0
2100
2100
3FF0
2100
2100
2100
ENDCHAR
STARTCHAR uni4F36
COMMENT "Index: 1 Size: 13"
ENCODING 20278
SWIDTH 500 0
DWIDTH 6 0
BBX 12 12 0 -1
BITMAP
1100
1100
2280
2440
6920
A090
2000
27E0
2040
2080
2300
20C0
ENDCHAR
STARTCHAR uni4F38
COMMENT "Index: 1 Size: 13"
ENCODING 20280
SWIDTH 500 0
DWIDTH 6 0
BBX 12 12 0 -1
BITMAP
1080
1080
27F0
2490
6490
A7F0
2490
2490
27F0
2490
2080
2080
ENDCHAR
STARTCHAR uni4F3A
COMMENT "Index: 1 Size: 13"
ENCODING 20282
SWIDTH 500 0
DWIDTH 6 0
BBX 12 12 0 -1
BITMAP
0800
0BF0
1010
1FD0
3010
5790
9490
1490
1790
1490
1010
1070
ENDCHAR
STARTCHAR uni4F3B
COMMENT "Index: 1 Size: 13"
ENCODING 20283
SWIDTH 500 0
DWIDTH 6 0
BBX 12 12 0 -1
BITMAP
1020
17F0
2080
2490
62A0
A2A0
2FF0
2080
2080
2080
2080
2080
ENDCHAR
STARTCHAR uni4F3C
COMMENT "Index: 1 Size: 13"
ENCODING 20284
SWIDTH 500 0
DWIDTH 6 0
BBX 12 12 0 -1
BITMAP
1000
1020
2520
24A0
24A0
6420
A420
2520
2640
2C60
2190
2610
ENDCHAR
STARTCHAR uni4F3D
COMMENT "Index: 1 Size: 13"
ENCODING 20285
SWIDTH 500 0
DWIDTH 6 0
BBX 12 12 0 -1
BITMAP
1400
1400
2F70
2550
6550
A550
2550
2550
2550
2950
3170
2350
ENDCHAR
STARTCHAR uni4F3E
COMMENT "Index: 1 Size: 13"
ENCODING 20286
SWIDTH 500 0
DWIDTH 6 0
BBX 12 12 0 -1
BITMAP
1020
1FF0
2080
2100
6340
A520
2910
2110
2100
2100
2100
2FF0
ENDCHAR
STARTCHAR uni4F3F
COMMENT "Index: 1 Size: 13"
ENCODING 20287
SWIDTH 500 0
DWIDTH 6 0
BBX 12 12 0 -1
BITMAP
1020
17F0
2420
2420
6420
A420
27E0
2420
2140
2220
2410
2810
ENDCHAR
STARTCHAR uni4F41
COMMENT "Index: 1 Size: 13"
ENCODING 20289
SWIDTH 500 0
DWIDTH 6 0
BBX 12 12 0 -1
BITMAP
1100
1100
2200
2420
6FD0
A010
27E0
2420
2420
2420
27E0
2420
ENDCHAR
STARTCHAR uni4F43
COMMENT "Index: 1 Size: 13"
ENCODING 20291
SWIDTH 500 0
DWIDTH 6 0
BBX 12 12 0 -1
BITMAP
1000
17F0
2490
2490
6490
A490
27F0
2490
2490
2490
27F0
2410
ENDCHAR
STARTCHAR uni4F46
COMMENT "Index: 1 Size: 13"
ENCODING 20294
SWIDTH 500 0
DWIDTH 6 0
BBX 12 12 0 -1
BITMAP
1020
17F0
2420
2420
67E0
A420
2420
27E0
2420
2000
2000
2FF0
ENDCHAR
STARTCHAR uni4F47
COMMENT "Index: 1 Size: 13"
ENCODING 20295
SWIDTH 500 0
DWIDTH 6 0
BBX 12 12 0 -1
BITMAP
1100
1080
2FF0
2810
6000
AFF0
2080
2080
2080
2080
2380
2100
ENDCHAR
STARTCHAR uni4F48
COMMENT "Index: 1 Size: 13"
ENCODING 20296
SWIDTH 500 0
DWIDTH 6 0
BBX 12 12 0 -1
BITMAP
1100
1120
2FF0
2280
6480
A7F0
2C90
3490
2490
24B0
2080
2080
ENDCHAR
STARTCHAR uni4F49
COMMENT "Index: 1 Size: 13"
ENCODING 20297
SWIDTH 500 0
DWIDTH 6 0
BBX 12 12 0 -1
BITMAP
1080
1080
27F0
2080
6080
A080
2FF0
2100
2140
2220
27D0
2210
ENDCHAR
STARTCHAR uni4F4C
COMMENT "Index: 1 Size: 13"
ENCODING 20300
SWIDTH 500 0
DWIDTH 6 0
BBX 12 12 0 -1
BITMAP
1240
1240
2240
2A50
6B60
AA40
2A40
2A40
2A40
2B50
2C50
2070
ENDCHAR
STARTCHAR uni4F4D
COMMENT "Index: 1 Size: 13"
ENCODING 20301
SWIDTH 500 0
DWIDTH 6 0
BBX 12 12 0 -1
BITMAP
1100
1080
2000
2FF0
6000
A440
2440
2240
2280
2080
2100
2FF0
ENDCHAR
STARTCHAR uni4F4E
COMMENT "Index: 1 Size: 13"
ENCODING 20302
SWIDTH 500 0
DWIDTH 6 0
BBX 12 12 0 -1
BITMAP
1030
17C0
2480
2480
6480
A7F0
2480
2480
2490
2550
26B0
2490
ENDCHAR
STARTCHAR uni4F4F
COMMENT "Index: 1 Size: 13"
ENCODING 20303
SWIDTH 500 0
DWIDTH 6 0
BBX 12 12 0 -1
BITMAP
1200
1100
2100
2FF0
6100
A100
2100
27E0
2100
2100
2100
2FF0
ENDCHAR
STARTCHAR uni4F50
COMMENT "Index: 1 Size: 13"
ENCODING 20304
SWIDTH 500 0
DWIDTH 6 0
BBX 12 12 0 -1
BITMAP
1100
1120
2FF0
2100
6200
A200
27E0
2880
2080
2080
2080
2FF0
ENDCHAR
STARTCHAR uni4F51
COMMENT "Index: 1 Size: 13"
ENCODING 20305
SWIDTH 500 0
DWIDTH 6 0
BBX 12 12 0 -1
BITMAP
1100
1120
2FF0
2100
6200
A420
2BF0
2220
2220
2220
23E0
2220
ENDCHAR
STARTCHAR uni4F52
COMMENT "Index: 1 Size: 13"
ENCODING 20306
SWIDTH 500 0
DWIDTH 6 0
BBX 12 12 0 -1
BITMAP
1100
1100
2FE0
2920
6920
A920
3FF0
2100
2100
2280
2440
2830
ENDCHAR
STARTCHAR uni4F53
COMMENT "Index: 1 Size: 13"
ENCODING 20307
SWIDTH 500 0
DWIDTH 6 0
BBX 12 12 0 -1
BITMAP
1100
1100
1FF0
2100
2540
6540
A920
2920
37D0
3110
2100
2100
ENDCHAR
STARTCHAR uni4F54
COMMENT "Index: 1 Size: 13"
ENCODING 20308
SWIDTH 500 0
DWIDTH 6 0
BBX 12 12 0 -1
BITMAP
1100
1100
2120
21F0
6100
A100
27E0
2420
2420
2420
27E0
2420
ENDCHAR
STARTCHAR uni4F55
COMMENT "Index: 1 Size: 13"
ENCODING 20309
SWIDTH 500 0
DWIDTH 6 0
BBX 12 12 0 -1
BITMAP
1000
17F0
2020
2020
67A0
A4A0
24A0
27A0
24A0
2020
20E0
2040
ENDCHAR
STARTCHAR uni4F56
COMMENT "Index: 1 Size: 13"
ENCODING 20310
SWIDTH 500 0
DWIDTH 6 0
BBX 12 12 0 -1
BITMAP
1000
1120
20A0
2240
6240
A640
2AA0
2A90
2310
2220
2620
29E0
ENDCHAR
STARTCHAR uni4F57
COMMENT "Index: 1 Size: 13"
ENCODING 20311
SWIDTH 500 0
DWIDTH 6 0
BBX 12 12 0 -1
BITMAP
1100
1080
2FF0
2810
6200
A220
2240
2380
2200
2210
2210
21F0
ENDCHAR
STARTCHAR uni4F58
COMMENT "Index: 1 Size: 13"
ENCODING 20312
SWIDTH 500 0
DWIDTH 6 0
BBX 12 12 0 -1
BITMAP
0200
0500
0880
3070
CFA0
0000
7FE0
0200
2240
2220
4E30
8410
ENDCHAR
STARTCHAR uni4F59
COMMENT "Index: 1 Size: 13"
ENCODING 20313
SWIDTH 500 0
DWIDTH 6 0
BBX 12 12 0 -1
BITMAP
0200
0500
0880
3070
CFA0
0200
7FE0
0200
2240
2220
4E30
8410
ENDCHAR
STARTCHAR uni4F5A
COMMENT "Index: 1 Size: 13"
ENCODING 20314
SWIDTH 500 0
DWIDTH 6 0
BBX 12 12 0 -1
BITMAP
1100
1500
2500
27E0
2900
6100
AFF0
2100
2280
2440
2820
3010
ENDCHAR
STARTCHAR uni4F5B
COMMENT "Index: 1 Size: 13"
ENCODING 20315
SWIDTH 500 0
DWIDTH 6 0
BBX 12 12 0 -1
BITMAP
1280
1280
1FE0
22A0
2FE0
6A80
AA80
2FF0
2290
2290
24E0
2880
ENDCHAR
STARTCHAR uni4F5C
COMMENT "Index: 1 Size: 13"
ENCODING 20316
SWIDTH 500 0
DWIDTH 6 0
BBX 12 12 0 -1
BITMAP
1200
1220
23F0
2500
6900
A1E0
2100
2120
21F0
2100
2100
2100
ENDCHAR
STARTCHAR uni4F5D
COMMENT "Index: 1 Size: 13"
ENCODING 20317
SWIDTH 500 0
DWIDTH 6 0
BBX 12 12 0 -1
BITMAP
1200
1200
13F0
2410
2810
6790
A490
2490
2790
2010
20E0
2040
ENDCHAR
STARTCHAR uni4F5E
COMMENT "Index: 1 Size: 13"
ENCODING 20318
SWIDTH 500 0
DWIDTH 6 0
BBX 12 12 0 -1
BITMAP
17E0
1000
1000
2FF0
2100
6100
BFF0
2240
2440
2280
2140
2E30
ENDCHAR
STARTCHAR uni4F5F
COMMENT "Index: 1 Size: 13"
ENCODING 20319
SWIDTH 500 0
DWIDTH 6 0
BBX 12 12 0 -1
BITMAP
1400
17E0
2420
3420
6A40
A180
2240
2520
2890
2000
2180
2040
ENDCHAR
STARTCHAR uni4F60
COMMENT "Index: 1 Size: 13"
ENCODING 20320
SWIDTH 500 0
DWIDTH 6 0
BBX 12 12 0 -1
BITMAP
1200
1200
13F0
2490
28A0
6080
A2A0
22A0
2490
2890
2390
2100
ENDCHAR
STARTCHAR uni4F61
COMMENT "Index: 1 Size: 13"
ENCODING 20321
SWIDTH 500 0
DWIDTH 6 0
BBX 12 12 0 -1
BITMAP
1100
1100
2280
2440
6920
B110
2920
2920
2920
2920
2FE0
2820
ENDCHAR
STARTCHAR uni4F62
COMMENT "Index: 1 Size: 13"
ENCODING 20322
SWIDTH 500 0
DWIDTH 6 0
BBX 12 12 0 -1
BITMAP
1020
17F0
2400
2400
67E0
A420
2420
27E0
2420
2400
2420
27F0
ENDCHAR
STARTCHAR uni4F63
COMMENT "Index: 1 Size: 13"
ENCODING 20323
SWIDTH 500 0
DWIDTH 6 0
BBX 12 12 0 -1
BITMAP
1000
17F0
2490
2490
67F0
A490
2490
27F0
2490
2490
2890
30B0
ENDCHAR
STARTCHAR uni4F64
COMMENT "Index: 1 Size: 13"
ENCODING 20324
SWIDTH 500 0
DWIDTH 6 0
BBX 12 12 0 -1
BITMAP
1020
1FF0
2400
2440
67E0
A440
2540
24C0
2440
2450
2750
2830
ENDCHAR
STARTCHAR uni4F65
COMMENT "Index: 1 Size: 13"
ENCODING 20325
SWIDTH 500 0
DWIDTH 6 0
BBX 11 12 0 -1
BITMAP
0400
0A00
1100
2080
4060
BF80
0000
4880
2500
1500
1200
FFE0
ENDCHAR
STARTCHAR uni4F67
COMMENT "Index: 1 Size: 13"
ENCODING 20327
SWIDTH 500 0
DWIDTH 6 0
BBX 12 12 0 -1
BITMAP
1200
1240
23E0
2200
6220
AFF0
2280
2240
2220
2220
2200
2200
ENDCHAR
STARTCHAR uni4F69
COMMENT "Index: 1 Size: 13"
ENCODING 20329
SWIDTH 500 0
DWIDTH 6 0
BBX 12 12 0 -1
BITMAP
2FE0
2820
2FE0
2920
2FE0
6D60
AD60
2D60
2D60
2D50
35D0
2110
ENDCHAR
STARTCHAR uni4F6A
COMMENT "Index: 1 Size: 13"
ENCODING 20330
SWIDTH 500 0
DWIDTH 6 0
BBX 12 12 0 -1
BITMAP
1000
17F0
2410
2410
65D0
A550
2550
25D0
2550
2410
27F0
2410
ENDCHAR
STARTCHAR uni4F6B
COMMENT "Index: 1 Size: 13"
ENCODING 20331
SWIDTH 500 0
DWIDTH 6 0
BBX 12 12 0 -1
BITMAP
1200
13E0
2620
2540
6880
A360
2410
23E0
2220
2220
23E0
2220
ENDCHAR
STARTCHAR uni4F6C
COMMENT "Index: 1 Size: 13"
ENCODING 20332
SWIDTH 500 0
DWIDTH 6 0
BBX 12 12 0 -1
BITMAP
1100
1110
27E0
2120
6140
AFF0
2100
2240
2680
2B10
2210
21F0
ENDCHAR
STARTCHAR uni4F6E
COMMENT "Index: 1 Size: 13"
ENCODING 20334
SWIDTH 500 0
DWIDTH 6 0
BBX 12 12 0 -1
BITMAP
1100
1180
1240
2420
2BD0
7000
A000
27E0
2420
2420
27E0
2420
ENDCHAR
STARTCHAR uni4F6F
COMMENT "Index: 1 Size: 13"
ENCODING 20335
SWIDTH 500 0
DWIDTH 6 0
BBX 12 12 0 -1
BITMAP
1440
1240
2080
2FF0
6100
A100
2FE0
2100
2100
3FF0
2100
2100
ENDCHAR
STARTCHAR uni4F70
COMMENT "Index: 1 Size: 13"
ENCODING 20336
SWIDTH 500 0
DWIDTH 6 0
BBX 12 12 0 -1
BITMAP
1020
1FF0
2080
2100
6FE0
A820
2820
2FE0
2820
2820
2FE0
2820
ENDCHAR
STARTCHAR uni4F73
COMMENT "Index: 1 Size: 13"
ENCODING 20339
SWIDTH 500 0
DWIDTH 6 0
BBX 12 12 0 -1
BITMAP
1100
1100
27E0
2100
6100
AFF0
2100
2100
27E0
2100
2100
2FF0
ENDCHAR
STARTCHAR uni4F74
COMMENT "Index: 1 Size: 13"
ENCODING 20340
SWIDTH 500 0
DWIDTH 6 0
BBX 12 12 0 -1
BITMAP
1020
1FF0
2440
27C0
6440
A440
27C0
2440
2470
2FC0
2040
2040
ENDCHAR
STARTCHAR uni4F75
COMMENT "Index: 1 Size: 13"
ENCODING 20341
SWIDTH 500 0
DWIDTH 6 0
BBX 12 12 0 -1
BITMAP
1420
1240
2280
2FF0
6240
A240
3FF0
2240
2240
2240
2440
2840
ENDCHAR
STARTCHAR uni4F76
COMMENT "Index: 1 Size: 13"
ENCODING 20342
SWIDTH 500 0
DWIDTH 6 0
BBX 12 12 0 -1
BITMAP
1100
1120
2FF0
2100
6100
A7E0
2000
27E0
2420
2420
27E0
2420
ENDCHAR
STARTCHAR uni4F77
COMMENT "Index: 1 Size: 13"
ENCODING 20343
SWIDTH 500 0
DWIDTH 6 0
BBX 12 12 0 -1
BITMAP
17E0
1420
27E0
2420
67E0
A480
2490
24A0
2440
2440
2720
2C10
ENDCHAR
STARTCHAR uni4F78
COMMENT "Index: 1 Size: 13"
ENCODING 20344
SWIDTH 500 0
DWIDTH 6 0
BBX 12 12 0 -1
BITMAP
1020
17C0
2100
2120
6FF0
A100
27E0
2420
2420
2420
27E0
2420
ENDCHAR
STARTCHAR uni4F79
COMMENT "Index: 1 Size: 13"
ENCODING 20345
SWIDTH 500 0
DWIDTH 6 0
BBX 12 12 0 -1
BITMAP
1200
13E0
2480
27F0
6C00
A5E0
2520
2520
2560
2510
2910
30F0
ENDCHAR
STARTCHAR uni4F7A
COMMENT "Index: 1 Size: 13"
ENCODING 20346
SWIDTH 500 0
DWIDTH 6 0
BBX 12 12 0 -1
BITMAP
1100
1180
2240
2420
6810
A7E0
2100
2100
27E0
2100
2100
2FF0
ENDCHAR
STARTCHAR uni4F7B
COMMENT "Index: 1 Size: 13"
ENCODING 20347
SWIDTH 500 0
DWIDTH 6 0
BBX 12 12 0 -1
BITMAP
1280
1280
2290
2AA0
66C0
A280
22E0
2E90
2280
2290
2490
2870
ENDCHAR
STARTCHAR uni4F7C
COMMENT "Index: 1 Size: 13"
ENCODING 20348
SWIDTH 500 0
DWIDTH 6 0
BBX 12 12 0 -1
BITMAP
1100
1080
2FF0
2240
6420
AA30
3250
2280
2100
2280
2440
3830
ENDCHAR
STARTCHAR uni4F7D
COMMENT "Index: 1 Size: 13"
ENCODING 20349
SWIDTH 500 0
DWIDTH 6 0
BBX 12 12 0 -1
BITMAP
1100
1100
29F0
2620
6080
A480
2880
3880
2880
2940
2220
2410
ENDCHAR
STARTCHAR uni4F7E
COMMENT "Index: 1 Size: 13"
ENCODING 20350
SWIDTH 500 0
DWIDTH 6 0
BBX 12 12 0 -1
BITMAP
1280
3280
2440
6830
A7C0
2440
27C0
2440
27C0
2440
2840
30C0
ENDCHAR
STARTCHAR uni4F7F
COMMENT "Index: 1 Size: 13"
ENCODING 20351
SWIDTH 500 0
DWIDTH 6 0
BBX 12 12 0 -1
BITMAP
1080
1FF0
1080
27F0
2490
6490
A7F0
2480
2280
2100
2280
3C70
ENDCHAR
STARTCHAR uni4F80
COMMENT "Index: 1 Size: 13"
ENCODING 20352
SWIDTH 500 0
DWIDTH 6 0
BBX 12 12 0 -1
BITMAP
1010
1F90
2550
2550
6550
BFD0
2550
2550
2550
2510
2970
3110
ENDCHAR
STARTCHAR uni4F81
COMMENT "Index: 1 Size: 13"
ENCODING 20353
SWIDTH 500 0
DWIDTH 6 0
BBX 12 12 0 -1
BITMAP
1480
1480
27F0
2880
6080
AFF0
2280
2280
2280
2290
2490
2870
ENDCHAR
STARTCHAR uni4F82
COMMENT "Index: 1 Size: 13"
ENCODING 20354
SWIDTH 500 0
DWIDTH 6 0
BBX 12 12 0 -1
BITMAP
1100
10A0
27F0
2400
65E0
A480
2480
27F0
2480
2490
2890
3070
ENDCHAR
STARTCHAR uni4F83
COMMENT "Index: 1 Size: 13"
ENCODING 20355
SWIDTH 500 0
DWIDTH 6 0
BBX 12 12 0 -1
BITMAP
17E0
1420
2420
27E0
6420
A100
2540
2540
2540
2540
2950
3130
ENDCHAR
STARTCHAR uni4F84
COMMENT "Index: 1 Size: 13"
ENCODING 20356
SWIDTH 500 0
DWIDTH 6 0
BBX 12 12 0 -1
BITMAP
1020
1FF0
2200
2440
6FE0
A410
2100
2100
2FE0
2100
2100
3FF0
ENDCHAR
STARTCHAR uni4F85
COMMENT "Index: 1 Size: 13"
ENCODING 20357
SWIDTH 500 0
DWIDTH 6 0
BBX 12 12 0 -1
BITMAP
1100
1080
2FF0
2200
6240
A790
2120
2240
2480
2140
2220
2C30
ENDCHAR
STARTCHAR uni4F86
COMMENT "Index: 1 Size: 13"
ENCODING 20358
SWIDTH 500 0
DWIDTH 6 0
BBX 12 12 0 -1
BITMAP
0400
0420
FFF0
0400
2440
2440
54A0
8F10
1500
2480
4470
8420
ENDCHAR
STARTCHAR uni4F87
COMMENT "Index: 1 Size: 13"
ENCODING 20359
SWIDTH 500 0
DWIDTH 6 0
BBX 12 12 0 -1
BITMAP
1100
1FF0
2100
27E0
6120
AFE0
2900
2FF0
2110
22B0
2440
2830
ENDCHAR
STARTCHAR uni4F88
COMMENT "Index: 1 Size: 13"
ENCODING 20360
SWIDTH 500 0
DWIDTH 6 0
BBX 12 12 0 -1
BITMAP
1100
13E0
2440
2A80
6100
A200
2CF0
2110
22A0
2440
2080
2F00
ENDCHAR
STARTCHAR uni4F89
COMMENT "Index: 1 Size: 13"
ENCODING 20361
SWIDTH 500 0
DWIDTH 6 0
BBX 12 12 0 -1
BITMAP
1100
17F0
2280
2440
6BB0
B000
2FF0
2200
27E0
2040
21C0
2080
ENDCHAR
STARTCHAR uni4F8B
COMMENT "Index: 1 Size: 13"
ENCODING 20363
SWIDTH 500 0
DWIDTH 6 0
BBX 12 12 0 -1
BITMAP
1010
1F90
2450
2450
2750
6950
B550
2350
2150
2210
2470
3820
ENDCHAR
STARTCHAR uni4F8D
COMMENT "Index: 1 Size: 13"
ENCODING 20365
SWIDTH 500 0
DWIDTH 6 0
BBX 12 12 0 -1
BITMAP
1100
1100
27E0
2100
6FF0
A040
2FF0
2440
2240
2040
21C0
2080
ENDCHAR
STARTCHAR uni4F8F
COMMENT "Index: 1 Size: 13"
ENCODING 20367
SWIDTH 500 0
DWIDTH 6 0
BBX 12 12 0 -1
BITMAP
1100
1900
2FE0
3100
6100
AFF0
2100
2540
2520
2920
2910
3110
ENDCHAR
STARTCHAR uni4F90
COMMENT "Index: 1 Size: 13"
ENCODING 20368
SWIDTH 500 0
DWIDTH 6 0
BBX 12 12 0 -1
BITMAP
1000
1100
2200
2FE0
6AA0
AAA0
2AA0
2AA0
2AA0
2AA0
2AA0
3FF0
ENDCHAR
STARTCHAR uni4F91
COMMENT "Index: 1 Size: 13"
ENCODING 20369
SWIDTH 500 0
DWIDTH 6 0
BBX 12 12 0 -1
BITMAP
1100
1120
2FF0
2200
63E0
A620
2BE0
2220
23E0
2220
2220
2260
ENDCHAR
STARTCHAR uni4F92
COMMENT "Index: 1 Size: 13"
ENCODING 20370
SWIDTH 500 0
DWIDTH 6 0
BBX 12 12 0 -1
BITMAP
1180
1080
2FF0
2910
6100
AFF0
2240
2240
2640
2180
2340
2C30
ENDCHAR
STARTCHAR uni4F94
COMMENT "Index: 1 Size: 13"
ENCODING 20372
SWIDTH 500 0
DWIDTH 6 0
BBX 12 12 0 -1
BITMAP
1100
1220
27D0
2010
6480
AFF0
2880
2080
2FF0
2080
2080
2080
ENDCHAR
STARTCHAR uni4F95
COMMENT "Index: 1 Size: 13"
ENCODING 20373
SWIDTH 500 0
DWIDTH 6 0
BBX 12 12 0 -1
BITMAP
1020
1FF0
2100
2FF0
6A90
AA90
2A90
2A90
2A90
2A90
2A90
2830
ENDCHAR
STARTCHAR uni4F96
COMMENT "Index: 1 Size: 13"
ENCODING 20374
SWIDTH 500 0
DWIDTH 6 0
BBX 11 12 0 -1
BITMAP
0400
0A00
1100
2E80
4040
FFE0
4A40
4A40
7FC0
4A40
4A40
40C0
ENDCHAR
STARTCHAR uni4F97
COMMENT "Index: 1 Size: 13"
ENCODING 20375
SWIDTH 500 0
DWIDTH 6 0
BBX 12 12 0 -1
BITMAP
1000
1FF0
2810
2BD0
6810
ABD0
2A50
2A50
2BD0
2810
2870
2820
ENDCHAR
STARTCHAR uni4F98
COMMENT "Index: 1 Size: 13"
ENCODING 20376
SWIDTH 500 0
DWIDTH 6 0
BBX 12 12 0 -1
BITMAP
1100
1080
2FF0
2810
60C0
AF00
2100
2FF0
2100
2110
2110
20F0
ENDCHAR
STARTCHAR uni4F9A
COMMENT "Index: 1 Size: 13"
ENCODING 20378
SWIDTH 500 0
DWIDTH 6 0
BBX 12 12 0 -1
BITMAP
1200
1400
27F0
2810
6790
A490
2790
2490
2790
2490
2070
2020
ENDCHAR
STARTCHAR uni4F9B
COMMENT "Index: 1 Size: 13"
ENCODING 20379
SWIDTH 500 0
DWIDTH 6 0
BBX 12 12 0 -1
BITMAP
1240
1240
2240
2FF0
2240
6240
A240
3FF0
2000
2240
2430
2810
ENDCHAR
STARTCHAR uni4F9C
COMMENT "Index: 1 Size: 13"
ENCODING 20380
SWIDTH 500 0
DWIDTH 6 0
BBX 12 12 0 -1
BITMAP
1100
1200
27E0
2520
64A0
BFF0
2420
2520
24A0
2420
28E0
3020
ENDCHAR
STARTCHAR uni4F9D
COMMENT "Index: 1 Size: 13"
ENCODING 20381
SWIDTH 500 0
DWIDTH 6 0
BBX 12 12 0 -1
BITMAP
1200
1120
2FF0
2100
6320
A4C0
2C80
3480
2440
2440
2720
2C10
ENDCHAR
STARTCHAR uni4F9E
COMMENT "Index: 1 Size: 13"
ENCODING 20382
SWIDTH 500 0
DWIDTH 6 0
BBX 12 12 0 -1
BITMAP
1400
1400
28F0
3F90
6A90
AA90
2A90
2A90
2690
25F0
2890
3000
ENDCHAR
STARTCHAR uni4FA0
COMMENT "Index: 1 Size: 13"
ENCODING 20384
SWIDTH 500 0
DWIDTH 6 0
BBX 12 12 0 -1
BITMAP
1080
1080
2FF0
2080
6490
A2A0
2FF0
2180
2240
2420
2810
2810
ENDCHAR
STARTCHAR uni4FA3
COMMENT "Index: 1 Size: 13"
ENCODING 20387
SWIDTH 500 0
DWIDTH 6 0
BBX 12 12 0 -1
BITMAP
1020
17F0
2420
2420
67E0
A420
2000
2FF0
2810
2810
2FF0
2810
ENDCHAR
STARTCHAR uni4FA5
COMMENT "Index: 1 Size: 13"
ENCODING 20389
SWIDTH 500 0
DWIDTH 6 0
BBX 12 12 0 -1
BITMAP
1200
1FE0
2200
2140
6190
A670
2000
2FF0
2280
2290
2490
2870
ENDCHAR
STARTCHAR uni4FA6
COMMENT "Index: 1 Size: 13"
ENCODING 20390
SWIDTH 500 0
DWIDTH 6 0
BBX 12 12 0 -1
BITMAP
1100
11F0
2100
27F0
6410
A490
2490
2490
2490
2550
2220
2C10
ENDCHAR
STARTCHAR uni4FA7
COMMENT "Index: 1 Size: 13"
ENCODING 20391
SWIDTH 500 0
DWIDTH 6 0
BBX 12 12 0 -1
BITMAP
1010
1F10
3150
3550
5550
D550
5550
5550
5550
4610
4970
5090
ENDCHAR
STARTCHAR uni4FA8
COMMENT "Index: 1 Size: 13"
ENCODING 20392
SWIDTH 500 0
DWIDTH 6 0
BBX 12 12 0 -1
BITMAP
1060
1780
2100
2FF0
6240
A420
2A50
2240
2240
2240
2440
2840
ENDCHAR
STARTCHAR uni4FA9
COMMENT "Index: 1 Size: 13"
ENCODING 20393
SWIDTH 500 0
DWIDTH 6 0
BBX 12 12 0 -1
BITMAP
1100
1280
2440
2820
77D0
A000
2FF0
2100
2200
2440
2FE0
2020
ENDCHAR
STARTCHAR uni4FAA
COMMENT "Index: 1 Size: 13"
ENCODING 20394
SWIDTH 500 0
DWIDTH 6 0
BBX 12 12 0 -1
BITMAP
1100
1FF0
2440
2280
6180
A670
2C40
2440
2440
2440
2840
3040
ENDCHAR
STARTCHAR uni4FAC
COMMENT "Index: 1 Size: 13"
ENCODING 20396
SWIDTH 500 0
DWIDTH 6 0
BBX 12 12 0 -1
BITMAP
1080
1100
2FF0
2910
6100
A2A0
22C0
2680
2A40
22A0
2310
2600
ENDCHAR
STARTCHAR uni4FAE
COMMENT "Index: 1 Size: 13"
ENCODING 20398
SWIDTH 500 0
DWIDTH 6 0
BBX 12 12 0 -1
BITMAP
1420
17F0
2400
2BE0
6520
A4A0
2FF0
2520
24A0
2FF0
2020
20C0
ENDCHAR
STARTCHAR uni4FAF
COMMENT "Index: 1 Size: 13"
ENCODING 20399
SWIDTH 500 0
DWIDTH 6 0
BBX 12 12 0 -1
BITMAP
17C0
1040
2040
2FF0
6400
AFE0
2900
2100
2FF0
2280
2440
2830
ENDCHAR
STARTCHAR uni4FB2
COMMENT "Index: 1 Size: 13"
ENCODING 20402
SWIDTH 500 0
DWIDTH 6 0
BBX 12 12 0 -1
BITMAP
2FF0
2800
2800
6BE0
A800
2FF0
2A80
2A50
2A20
2A20
3390
2210
ENDCHAR
STARTCHAR uni4FB3
COMMENT "Index: 1 Size: 13"
ENCODING 20403
SWIDTH 500 0
DWIDTH 6 0
BBX 12 12 0 -1
BITMAP
1100
1520
2520
2940
6D60
B390
2100
2FE0
2100
2100
2120
3FF0
ENDCHAR
STARTCHAR uni4FB5
COMMENT "Index: 1 Size: 13"
ENCODING 20405
SWIDTH 500 0
DWIDTH 6 0
BBX 12 12 0 -1
BITMAP
17E0
1020
27E0
2020
67E0
A000
2FF0
2A50
2240
2180
2670
3820
ENDCHAR
STARTCHAR uni4FB6
COMMENT "Index: 1 Size: 13"
ENCODING 20406
SWIDTH 500 0
DWIDTH 6 0
BBX 12 12 0 -1
BITMAP
17E0
1420
2420
2420
67E0
A4A0
2100
2FF0
2810
2810
2FF0
2810
ENDCHAR
STARTCHAR uni4FB7
COMMENT "Index: 1 Size: 13"
ENCODING 20407
SWIDTH 500 0
DWIDTH 6 0
BBX 12 12 0 -1
BITMAP
2FE0
2820
2820
2FE0
6800
AFF0
2810
2BD0
2A50
2BD0
3090
2060
ENDCHAR
STARTCHAR uni4FB9
COMMENT "Index: 1 Size: 13"
ENCODING 20409
SWIDTH 500 0
DWIDTH 6 0
BBX 12 12 0 -1
BITMAP
1010
1EE0
2440
2840
6EF0
A240
2240
3240
2DF0
2400
2A00
21F0
ENDCHAR
STARTCHAR uni4FBA
COMMENT "Index: 1 Size: 13"
ENCODING 20410
SWIDTH 500 0
DWIDTH 6 0
BBX 12 12 0 -1
BITMAP
1080
1490
2490
27F0
6490
A140
22A0
2450
23E0
2020
2040
2080
ENDCHAR
STARTCHAR uni4FBB
COMMENT "Index: 1 Size: 13"
ENCODING 20411
SWIDTH 500 0
DWIDTH 6 0
BBX 12 12 0 -1
BITMAP
1440
1280
2FE0
2820
6820
AFE0
2820
2280
2280
2290
2490
3870
ENDCHAR
STARTCHAR uni4FBF
COMMENT "Index: 1 Size: 13"
ENCODING 20415
SWIDTH 500 0
DWIDTH 6 0
BBX 12 12 0 -1
BITMAP
1020
1FF0
2080
27F0
6490
A7F0
2490
27F0
2280
2100
22C0
2C30
ENDCHAR
STARTCHAR uni4FC0
COMMENT "Index: 1 Size: 13"
ENCODING 20416
SWIDTH 500 0
DWIDTH 6 0
BBX 12 12 0 -1
BITMAP
1060
1F80
2910
24A0
6140
A100
2FF0
2240
2440
2380
2140
2E30
ENDCHAR
STARTCHAR uni4FC1
COMMENT "Index: 1 Size: 13"
ENCODING 20417
SWIDTH 500 0
DWIDTH 6 0
BBX 12 12 0 -1
BITMAP
13E0
1220
2220
2BE0
6800
AFE0
2120
2120
3FF0
2280
2440
2830
ENDCHAR
STARTCHAR uni4FC2
COMMENT "Index: 1 Size: 13"
ENCODING 20418
SWIDTH 500 0
DWIDTH 6 0
BBX 12 12 0 -1
BITMAP
1060
1780
2100
2240
6780
A120
27E0
2090
22A0
2490
2890
2180
ENDCHAR
STARTCHAR uni4FC3
COMMENT "Index: 1 Size: 13"
ENCODING 20419
SWIDTH 500 0
DWIDTH 6 0
BBX 12 12 0 -1
BITMAP
17E0
1420
2420
2420
67E0
A100
2500
25E0
2500
2500
2B00
31F0
ENDCHAR
STARTCHAR uni4FC4
COMMENT "Index: 1 Size: 13"
ENCODING 20420
SWIDTH 500 0
DWIDTH 6 0
BBX 12 12 0 -1
BITMAP
1180
1EA0
2290
2280
6FF0
A280
23A0
2EA0
2240
2250
22B0
2D10
ENDCHAR
STARTCHAR uni4FC5
COMMENT "Index: 1 Size: 13"
ENCODING 20421
SWIDTH 500 0
DWIDTH 6 0
BBX 12 12 0 -1
BITMAP
1140
1120
2FF0
2100
6990
A5A0
2140
2320
2520
2910
2110
2300
ENDCHAR
STARTCHAR uni4FC7
COMMENT "Index: 1 Size: 13"
ENCODING 20423
SWIDTH 500 0
DWIDTH 6 0
BBX 12 12 0 -1
BITMAP
1200
15F0
2440
2C40
7540
A640
25F0
2C40
3440
2440
2440
3BF0
ENDCHAR
STARTCHAR uni4FC9
COMMENT "Index: 1 Size: 13"
ENCODING 20425
SWIDTH 500 0
DWIDTH 6 0
BBX 12 12 0 -1
BITMAP
1020
17F0
2100
27E0
6120
AFF0
2000
27E0
2420
2420
27E0
2420
ENDCHAR
STARTCHAR uni4FCA
COMMENT "Index: 1 Size: 13"
ENCODING 20426
SWIDTH 500 0
DWIDTH 6 0
BBX 12 12 0 -1
BITMAP
1100
1220
27D0
2240
6420
A910
23E0
2640
2180
2180
2240
2C30
ENDCHAR
STARTCHAR uni4FCB
COMMENT "Index: 1 Size: 13"
ENCODING 20427
SWIDTH 500 0
DWIDTH 6 0
BBX 12 12 0 -1
BITMAP
17E0
1420
2420
27E0
6000
AFE0
2920
2920
2FE0
2810
2810
27F0
ENDCHAR
STARTCHAR uni4FCD
COMMENT "Index: 1 Size: 13"
ENCODING 20429
SWIDTH 500 0
DWIDTH 6 0
BBX 12 12 0 -1
BITMAP
1200
1100
27E0
2420
67E0
A420
27E0
2500
24B0
2540
2620
2C10
ENDCHAR
STARTCHAR uni4FCE
COMMENT "Index: 1 Size: 13"
ENCODING 20430
SWIDTH 500 0
DWIDTH 6 0
BBX 12 12 0 -1
BITMAP
4040
47E0
4440
A440
97C0
0440
4440
47C0
6440
9440
8440
1FF0
ENDCHAR
STARTCHAR uni4FCF
COMMENT "Index: 1 Size: 13"
ENCODING 20431
SWIDTH 500 0
DWIDTH 6 0
BBX 12 12 0 -1
BITMAP
1080
1490
22A0
2080
67F0
A410
27F0
2410
27F0
2410
2470
2420
ENDCHAR
STARTCHAR uni4FD0
COMMENT "Index: 1 Size: 13"
ENCODING 20432
SWIDTH 500 0
DWIDTH 6 0
BBX 12 12 0 -1
BITMAP
1110
1E10
2250
2250
6FD0
A250
2750
2AD0
2A50
2210
2270
2210
ENDCHAR
STARTCHAR uni4FD1
COMMENT "Index: 1 Size: 13"
ENCODING 20433
SWIDTH 500 0
DWIDTH 6 0
BBX 12 12 0 -1
BITMAP
17F0
1160
2080
27F0
6490
A490
27F0
2490
27F0
2490
2490
24B0
ENDCHAR
STARTCHAR uni4FD3
COMMENT "Index: 1 Size: 13"
ENCODING 20435
SWIDTH 500 0
DWIDTH 6 0
BBX 12 12 0 -1
BITMAP
1000
17F0
22A0
22A0
6540
A540
22A0
27E0
2080
2080
2080
2FF0
ENDCHAR
STARTCHAR uni4FD4
COMMENT "Index: 1 Size: 13"
ENCODING 20436
SWIDTH 500 0
DWIDTH 6 0
BBX 12 12 0 -1
BITMAP
17E0
1420
27E0
2420
67E0
A420
27E0
24A0
2280
2290
2490
2870
ENDCHAR
STARTCHAR uni4FD6
COMMENT "Index: 1 Size: 13"
ENCODING 20438
SWIDTH 500 0
DWIDTH 6 0
BBX 12 12 0 -1
BITMAP
1020
17F0
2080
21C0
62A0
A490
2080
27E0
2420
2420
27E0
2420
ENDCHAR
STARTCHAR uni4FD7
COMMENT "Index: 1 Size: 13"
ENCODING 20439
SWIDTH 500 0
DWIDTH 6 0
BBX 12 12 0 -1
BITMAP
1240
1220
2410
2980
6240
A220
2410
2BE0
2220
2220
23E0
2220
ENDCHAR
STARTCHAR uni4FD8
COMMENT "Index: 1 Size: 13"
ENCODING 20440
SWIDTH 500 0
DWIDTH 6 0
BBX 12 12 0 -1
BITMAP
1060
1F90
2520
2480
6FE0
A040
2080
2FF0
2080
2080
2380
2080
ENDCHAR
STARTCHAR uni4FD9
COMMENT "Index: 1 Size: 13"
ENCODING 20441
SWIDTH 500 0
DWIDTH 6 0
BBX 12 12 0 -1
BITMAP
1630
11C0
2630
2100
6FF0
A480
27F0
2C90
3490
2490
24B0
2080
ENDCHAR
STARTCHAR uni4FDA
COMMENT "Index: 1 Size: 13"
ENCODING 20442
SWIDTH 500 0
DWIDTH 6 0
BBX 12 12 0 -1
BITMAP
1020
1FF0
2920
2FE0
6920
AFE0
2920
2100
27E0
2100
2100
2FF0
ENDCHAR
STARTCHAR uni4FDB
COMMENT "Index: 1 Size: 13"
ENCODING 20443
SWIDTH 500 0
DWIDTH 6 0
BBX 12 12 0 -1
BITMAP
1200
13C0
2480
2FE0
7520
A520
27E0
2180
2280
2290
2490
2870
ENDCHAR
STARTCHAR uni4FDC
COMMENT "Index: 1 Size: 13"
ENCODING 20444
SWIDTH 500 0
DWIDTH 6 0
BBX 12 12 0 -1
BITMAP
1080
17E0
24A0
27E0
64A0
A7E0
2000
2FF0
2200
27E0
2020
20C0
ENDCHAR
STARTCHAR uni4FDD
COMMENT "Index: 1 Size: 13"
ENCODING 20445
SWIDTH 500 0
DWIDTH 6 0
BBX 12 12 0 -1
BITMAP
17E0
1420
2420
27E0
24A0
6080
AFF0
2180
22C0
24A0
2890
3090
ENDCHAR
STARTCHAR uni4FDE
COMMENT "Index: 1 Size: 13"
ENCODING 20446
SWIDTH 500 0
DWIDTH 6 0
BBX 11 12 0 -1
BITMAP
0400
0A00
1100
2F80
C060
7940
4940
7940
4940
7940
4840
58C0
ENDCHAR
STARTCHAR uni4FDF
COMMENT "Index: 1 Size: 13"
ENCODING 20447
SWIDTH 500 0
DWIDTH 6 0
BBX 12 12 0 -1
BITMAP
1200
1440
2FE0
2010
6200
A7E0
2900
3FF0
2100
2280
2440
3830
ENDCHAR
STARTCHAR uni4FE0
COMMENT "Index: 1 Size: 13"
ENCODING 20448
SWIDTH 500 0
DWIDTH 6 0
BBX 12 12 0 -1
BITMAP
1100
1100
2FF0
2520
6520
A940
35A0
2110
2280
2440
2820
3010
ENDCHAR
STARTCHAR uni4FE1
COMMENT "Index: 1 Size: 13"
ENCODING 20449
SWIDTH 500 0
DWIDTH 6 0
BBX 12 12 0 -1
BITMAP
1100
1080
2FF0
2000
67E0
A000
27E0
2000
27E0
2420
2420
27E0
ENDCHAR
STARTCHAR uni4FE3
COMMENT "Index: 1 Size: 13"
ENCODING 20451
SWIDTH 500 0
DWIDTH 6 0
BBX 12 12 0 -1
BITMAP
17E0
1420
1420
27E0
2000
67E0
A100
2FF0
2100
2280
2470
2820
ENDCHAR
STARTCHAR uni4FE6
COMMENT "Index: 1 Size: 13"
ENCODING 20454
SWIDTH 500 0
DWIDTH 6 0
BBX 12 12 0 -1
BITMAP
1100
1FE0
2200
2FE0
2200
6FF0
A440
2FF0
3240
2140
2040
21C0
ENDCHAR
STARTCHAR uni4FE8
COMMENT "Index: 1 Size: 13"
ENCODING 20456
SWIDTH 500 0
DWIDTH 6 0
BBX 12 12 0 -1
BITMAP
17F0
1140
2950
2560
67F0
A400
2400
2400
2400
2400
2800
3000
ENDCHAR
STARTCHAR uni4FE9
COMMENT "Index: 1 Size: 13"
ENCODING 20457
SWIDTH 500 0
DWIDTH 6 0
BBX 12 12 0 -1
BITMAP
1FF0
1240
2240
2FF0
2A50
6A50
AB50
2AB0
2C90
2910
2870
2820
ENDCHAR
STARTCHAR uni4FEA
COMMENT "Index: 1 Size: 13"
ENCODING 20458
SWIDTH 500 0
DWIDTH 6 0
BBX 12 12 0 -1
BITMAP
1020
1FF0
2000
2EF0
6A90
AA90
2ED0
2AB0
2A90
2A90
2A90
2AB0
ENDCHAR
STARTCHAR uni4FEC
COMMENT "Index: 1 Size: 13"
ENCODING 20460
SWIDTH 500 0
DWIDTH 6 0
BBX 12 12 0 -1
BITMAP
1100
1620
2220
2220
6FA0
A240
2740
2AC0
3250
2290
22F0
2290
ENDCHAR
STARTCHAR uni4FED
COMMENT "Index: 1 Size: 13"
ENCODING 20461
SWIDTH 500 0
DWIDTH 6 0
BBX 12 12 0 -1
BITMAP
1100
1100
2280
2440
6820
B7D0
2020
2920
24A0
2220
2040
2FF0
ENDCHAR
STARTCHAR uni4FEE
COMMENT "Index: 1 Size: 13"
ENCODING 20462
SWIDTH 500 0
DWIDTH 6 0
BBX 12 12 0 -1
BITMAP
1200
13F0
2A20
2940
68C0
AB30
2C80
2940
2A90
2920
20C0
2700
ENDCHAR
STARTCHAR uni4FEF
COMMENT "Index: 1 Size: 13"
ENCODING 20463
SWIDTH 500 0
DWIDTH 6 0
BBX 12 12 0 -1
BITMAP
1080
1FF0
2820
2920
6A20
AEF0
2A20
2AA0
2AA0
2A20
3220
3260
ENDCHAR
STARTCHAR uni4FF1
COMMENT "Index: 1 Size: 13"
ENCODING 20465
SWIDTH 500 0
DWIDTH 6 0
BBX 12 12 0 -1
BITMAP
17E0
1420
2420
27E0
6420
A7E0
2420
2420
2FF0
2240
2420
2810
ENDCHAR
STARTCHAR uni4FF3
COMMENT "Index: 1 Size: 13"
ENCODING 20467
SWIDTH 500 0
DWIDTH 6 0
BBX 12 12 0 -1
BITMAP
1240
1240
2E70
2240
6240
AE70
2240
2240
2E70
2240
2240
2240
ENDCHAR
STARTCHAR uni4FF4
COMMENT "Index: 1 Size: 13"
ENCODING 20468
SWIDTH 500 0
DWIDTH 6 0
BBX 12 12 0 -1
BITMAP
1280
1240
2FE0
2140
6390
AD70
2280
21E0
2620
2140
2190
2E70
ENDCHAR
STARTCHAR uni4FF5
COMMENT "Index: 1 Size: 13"
ENCODING 20469
SWIDTH 500 0
DWIDTH 6 0
BBX 12 12 0 -1
BITMAP
1100
1FF0
2100
27E0
6100
AFF0
2300
2490
2CE0
2440
2620
2C10
ENDCHAR
STARTCHAR uni4FF6
COMMENT "Index: 1 Size: 13"
ENCODING 20470
SWIDTH 500 0
DWIDTH 6 0
BBX 12 12 0 -1
BITMAP
1400
14F0
2750
6450
BF50
2450
2650
2D20
34A0
2420
2450
2C90
ENDCHAR
STARTCHAR uni4FF7
COMMENT "Index: 1 Size: 13"
ENCODING 20471
SWIDTH 500 0
DWIDTH 6 0
BBX 12 12 0 -1
BITMAP
2000
5DF0
D550
5550
5D50
55F0
5510
5D00
5500
5510
5510
54F0
ENDCHAR
STARTCHAR uni4FF8
COMMENT "Index: 1 Size: 13"
ENCODING 20472
SWIDTH 500 0
DWIDTH 6 0
BBX 12 12 0 -1
BITMAP
1100
1FF0
2100
27E0
7200
AFF0
2520
2BD0
2100
2FE0
2100
2100
ENDCHAR
STARTCHAR uni4FFA
COMMENT "Index: 1 Size: 13"
ENCODING 20474
SWIDTH 500 0
DWIDTH 6 0
BBX 12 12 0 -1
BITMAP
1100
1FF0
2280
6540
A7E0
2D50
27C0
2540
27C0
2110
2110
20F0
ENDCHAR
STARTCHAR uni4FFE
COMMENT "Index: 1 Size: 13"
ENCODING 20478
SWIDTH 500 0
DWIDTH 6 0
BBX 12 12 0 -1
BITMAP
1100
17F0
2490
27F0
6490
A7F0
2590
2280
2FF0
2080
2080
2080
ENDCHAR
STARTCHAR uni5000
COMMENT "Index: 1 Size: 13"
ENCODING 20480
SWIDTH 500 0
DWIDTH 6 0
BBX 12 12 0 -1
BITMAP
13F0
1200
23E0
2200
63E0
A200
2FF0
2280
22B0
2240
2320
2610
ENDCHAR
STARTCHAR uni5005
COMMENT "Index: 1 Size: 13"
ENCODING 20485
SWIDTH 500 0
DWIDTH 6 0
BBX 12 12 0 -1
BITMAP
1200
1120
2FF0
2440
6440
AAA0
2900
2120
3FF0
2100
2100
2100
ENDCHAR
STARTCHAR uni5006
COMMENT "Index: 1 Size: 13"
ENCODING 20486
SWIDTH 500 0
DWIDTH 6 0
BBX 12 12 0 -1
BITMAP
1000
1FF0
2080
2FF0
6890
AAD0
2AB0
2DD0
28B0
2890
2890
28B0
ENDCHAR
STARTCHAR uni5007
COMMENT "Index: 1 Size: 13"
ENCODING 20487
SWIDTH 500 0
DWIDTH 6 0
BBX 12 12 0 -1
BITMAP
1100
1FF0
2810
2400
67F0
AA90
3290
2A90
22B0
2480
2890
30F0
ENDCHAR
STARTCHAR uni5009
COMMENT "Index: 1 Size: 13"
ENCODING 20489
SWIDTH 500 0
DWIDTH 6 0
BBX 11 12 0 -1
BITMAP
0400
0A00
1500
24E0
FF80
2080
3F80
2080
5F80
5080
9080
1F80
ENDCHAR
STARTCHAR uni500B
COMMENT "Index: 1 Size: 13"
ENCODING 20491
SWIDTH 500 0
DWIDTH 6 0
BBX 12 12 0 -1
BITMAP
2FF0
2890
2890
2FF0
6890
ABD0
2A50
2A50
2BD0
2810
2FF0
2810
ENDCHAR
STARTCHAR uni500C
COMMENT "Index: 1 Size: 13"
ENCODING 20492
SWIDTH 500 0
DWIDTH 6 0
BBX 12 12 0 -1
BITMAP
1100
1080
2FF0
2810
67E0
A420
27E0
2400
27E0
2420
27E0
2420
ENDCHAR
STARTCHAR uni500D
COMMENT "Index: 1 Size: 13"
ENCODING 20493
SWIDTH 500 0
DWIDTH 6 0
BBX 12 12 0 -1
BITMAP
1100
1080
2FF0
2420
6240
AFF0
2000
27E0
2420
2420
27E0
2420
ENDCHAR
STARTCHAR uni500E
COMMENT "Index: 1 Size: 13"
ENCODING 20494
SWIDTH 500 0
DWIDTH 6 0
BBX 12 12 0 -1
BITMAP
1280
1280
2FE0
2AA0
6AA0
AFE0
2AA0
2AA0
3FF0
2240
2420
2810
ENDCHAR
STARTCHAR uni500F
COMMENT "Index: 1 Size: 13"
ENCODING 20495
SWIDTH 500 0
DWIDTH 6 0
BBX 12 12 0 -1
BITMAP
1100
11F0
2340
2880
69E0
AA90
2CC0
28A0
2FF0
2880
2140
2630
ENDCHAR
STARTCHAR uni5011
COMMENT "Index: 1 Size: 13"
ENCODING 20497
SWIDTH 500 0
DWIDTH 6 0
BBX 12 12 0 -1
BITMAP
3EF0
5290
DEF0
5290
5EF0
5010
5010
5010
5010
5010
5070
5020
ENDCHAR
STARTCHAR uni5012
COMMENT "Index: 1 Size: 13"
ENCODING 20498
SWIDTH 500 0
DWIDTH 6 0
BBX 12 12 0 -1
BITMAP
1010
1F90
2450
2550
6FD0
A250
2250
2F50
2250
2210
2F70
2020
ENDCHAR
STARTCHAR uni5013
COMMENT "Index: 1 Size: 13"
ENCODING 20499
SWIDTH 500 0
DWIDTH 6 0
BBX 12 12 0 -1
BITMAP
1100
1520
2940
22C0
6420
A910
2120
2540
2A80
2240
2420
2810
ENDCHAR
STARTCHAR uni5014
COMMENT "Index: 1 Size: 13"
ENCODING 20500
SWIDTH 500 0
DWIDTH 6 0
BBX 12 12 0 -1
BITMAP
1FF0
1810
2810
2FF0
6880
AA90
2A90
2BF0
2880
2A90
2A90
33F0
ENDCHAR
STARTCHAR uni5015
COMMENT "Index: 1 Size: 13"
ENCODING 20501
SWIDTH 500 0
DWIDTH 6 0
BBX 12 12 0 -1
BITMAP
1020
17C0
2100
2FF0
6520
A520
2FF0
2520
2520
2FF0
2100
27E0
ENDCHAR
STARTCHAR uni5016
COMMENT "Index: 1 Size: 13"
ENCODING 20502
SWIDTH 500 0
DWIDTH 6 0
BBX 12 12 0 -1
BITMAP
1100
17E0
2100
6FF0
A440
2280
27E0
2100
2FF0
2100
2100
2100
ENDCHAR
STARTCHAR uni5017
COMMENT "Index: 1 Size: 13"
ENCODING 20503
SWIDTH 500 0
DWIDTH 6 0
BBX 12 12 0 -1
BITMAP
1000
1EF0
2A90
2EF0
6A90
AA90
2EF0
2A90
2A90
2A90
2A90
3330
ENDCHAR
STARTCHAR uni5018
COMMENT "Index: 1 Size: 13"
ENCODING 20504
SWIDTH 500 0
DWIDTH 6 0
BBX 12 12 0 -1
BITMAP
1080
1490
22A0
2080
6FF0
A810
2BD0
2A50
2BD0
2A50
2810
2860
ENDCHAR
STARTCHAR uni5019
COMMENT "Index: 1 Size: 13"
ENCODING 20505
SWIDTH 500 0
DWIDTH 6 0
BBX 12 12 0 -1
BITMAP
13E0
1020
2820
2FF0
6A00
ABE0
2C80
2FF0
2880
2940
2220
2410
ENDCHAR
STARTCHAR uni501A
COMMENT "Index: 1 Size: 13"
ENCODING 20506
SWIDTH 500 0
DWIDTH 6 0
BBX 12 12 0 -1
BITMAP
1100
17F0
2100
2280
6440
AFF0
2020
27A0
24A0
27A0
2020
20E0
ENDCHAR
STARTCHAR uni501B
COMMENT "Index: 1 Size: 13"
ENCODING 20507
SWIDTH 500 0
DWIDTH 6 0
BBX 12 12 0 -1
BITMAP
1440
1440
2FF0
2440
67C0
A440
27C0
2440
3FF0
2240
2420
2810
ENDCHAR
STARTCHAR uni501C
COMMENT "Index: 1 Size: 13"
ENCODING 20508
SWIDTH 500 0
DWIDTH 6 0
BBX 12 12 0 -1
BITMAP
1000
17F0
2490
27F0
6490
A7F0
2410
25D0
2550
29D0
2810
2070
ENDCHAR
STARTCHAR uni501E
COMMENT "Index: 1 Size: 13"
ENCODING 20510
SWIDTH 500 0
DWIDTH 6 0
BBX 12 12 0 -1
BITMAP
1100
1120
2FF0
2000
67E0
A420
27E0
2100
2520
2910
3110
2300
ENDCHAR
STARTCHAR uni501F
COMMENT "Index: 1 Size: 13"
ENCODING 20511
SWIDTH 500 0
DWIDTH 6 0
BBX 12 12 0 -1
BITMAP
1240
1240
2FF0
2240
6FF0
A000
27E0
2420
27E0
2420
27E0
2420
ENDCHAR
STARTCHAR uni5020
COMMENT "Index: 1 Size: 13"
ENCODING 20512
SWIDTH 500 0
DWIDTH 6 0
BBX 12 12 0 -1
BITMAP
1280
1480
27F0
6C80
B480
27E0
2480
27E0
2480
2480
27F0
2400
ENDCHAR
STARTCHAR uni5021
COMMENT "Index: 1 Size: 13"
ENCODING 20513
SWIDTH 500 0
DWIDTH 6 0
BBX 12 12 0 -1
BITMAP
13E0
1220
23E0
2220
63E0
A000
27F0
2410
27F0
2410
27F0
2410
ENDCHAR
STARTCHAR uni5022
COMMENT "Index: 1 Size: 13"
ENCODING 20514
SWIDTH 500 0
DWIDTH 6 0
BBX 12 12 0 -1
BITMAP
1100
1FF0
2100
27E0
6120
AFF0
2120
2FE0
2500
25E0
2B00
31F0
ENDCHAR
STARTCHAR uni5023
COMMENT "Index: 1 Size: 13"
ENCODING 20515
SWIDTH 500 0
DWIDTH 6 0
BBX 12 12 0 -1
BITMAP
2C80
2480
3FF0
68A0
AEA0
2BA0
2AA0
2AA0
2AA0
2A40
32A0
2510
ENDCHAR
STARTCHAR uni5024
COMMENT "Index: 2 Size: 13"
ENCODING 20516
SWIDTH 500 0
DWIDTH 6 0
BBX 12 12 0 -1
BITMAP
1100
1FF0
2100
2BE0
6A20
ABE0
2A20
2BE0
2A20
2BE0
2800
2FF0
ENDCHAR
STARTCHAR uni5025
COMMENT "Index: 1 Size: 13"
ENCODING 20517
SWIDTH 500 0
DWIDTH 6 0
BBX 12 12 0 -1
BITMAP
1180
1080
2FF0
2A50
6240
A420
2810
27E0
2080
2080
2080
2FF0
ENDCHAR
STARTCHAR uni5026
COMMENT "Index: 1 Size: 13"
ENCODING 20518
SWIDTH 500 0
DWIDTH 6 0
BBX 12 12 0 -1
BITMAP
1920
1540
2100
2FF0
6200
AFF0
2420
2BD0
2240
22C0
2210
23F0
ENDCHAR
STARTCHAR uni5027
COMMENT "Index: 1 Size: 13"
ENCODING 20519
SWIDTH 500 0
DWIDTH 6 0
BBX 12 12 0 -1
BITMAP
1100
1080
2FF0
2810
63C0
A000
2FF0
2080
22A0
2490
2890
2180
ENDCHAR
STARTCHAR uni5028
COMMENT "Index: 1 Size: 13"
ENCODING 20520
SWIDTH 500 0
DWIDTH 6 0
BBX 12 12 0 -1
BITMAP
17F0
1410
2410
27F0
6480
A7F0
2480
27F0
2A10
2A10
2BF0
3210
ENDCHAR
STARTCHAR uni5029
COMMENT "Index: 1 Size: 13"
ENCODING 20521
SWIDTH 500 0
DWIDTH 6 0
BBX 12 12 0 -1
BITMAP
1100
1FF0
2100
27E0
6100
AFF0
2420
27E0
2420
27E0
2420
2460
ENDCHAR
STARTCHAR uni502A
COMMENT "Index: 1 Size: 13"
ENCODING 20522
SWIDTH 500 0
DWIDTH 6 0
BBX 12 12 0 -1
BITMAP
1100
1670
2410
2770
6410
A410
27F0
2550
2240
2250
2450
2830
ENDCHAR
STARTCHAR uni502B
COMMENT "Index: 1 Size: 13"
ENCODING 20523
SWIDTH 500 0
DWIDTH 6 0
BBX 12 12 0 -1
BITMAP
1100
1280
2440
6BA0
B010
2FF0
2A90
2A90
2FF0
2A90
2A90
2860
ENDCHAR
STARTCHAR uni502C
COMMENT "Index: 1 Size: 13"
ENCODING 20524
SWIDTH 500 0
DWIDTH 6 0
BBX 12 12 0 -1
BITMAP
1100
11E0
2100
6FE0
A820
2FE0
2820
2FE0
2100
3FF0
2100
2100
ENDCHAR
STARTCHAR uni502D
COMMENT "Index: 1 Size: 13"
ENCODING 20525
SWIDTH 500 0
DWIDTH 6 0
BBX 12 12 0 -1
BITMAP
1060
1780
2100
2FF0
6540
B930
2100
3FF0
2440
2280
2180
2E70
ENDCHAR
STARTCHAR uni502E
COMMENT "Index: 1 Size: 13"
ENCODING 20526
SWIDTH 500 0
DWIDTH 6 0
BBX 12 12 0 -1
BITMAP
2FE0
2920
2FE0
2920
6FE0
A920
2100
3FF0
2100
2540
2920
3110
ENDCHAR
STARTCHAR uni502F
COMMENT "Index: 1 Size: 13"
ENCODING 20527
SWIDTH 500 0
DWIDTH 6 0
BBX 12 12 0 -1
BITMAP
2840
2940
4940
7F40
CA20
4AB0
5E80
6900
4940
4920
4BE0
4820
ENDCHAR
STARTCHAR uni5030
COMMENT "Index: 1 Size: 13"
ENCODING 20528
SWIDTH 500 0
DWIDTH 6 0
BBX 12 12 0 -1
BITMAP
1100
17E0
2100
2FF0
6240
A520
2BF0
2640
2540
2080
2340
2C30
ENDCHAR
STARTCHAR uni5031
COMMENT "Index: 1 Size: 13"
ENCODING 20529
SWIDTH 500 0
DWIDTH 6 0
BBX 12 12 0 -1
BITMAP
17E0
1420
27E0
2420
67E0
A080
2890
2FA0
28C0
2890
2E90
3870
ENDCHAR
STARTCHAR uni5033
COMMENT "Index: 1 Size: 13"
ENCODING 20531
SWIDTH 500 0
DWIDTH 6 0
BBX 12 12 0 -1
BITMAP
1100
1FF0
2100
2FE0
6920
AFE0
2120
3FF0
2120
2FE0
2100
2700
ENDCHAR
STARTCHAR uni5035
COMMENT "Index: 1 Size: 13"
ENCODING 20533
SWIDTH 500 0
DWIDTH 6 0
BBX 12 12 0 -1
BITMAP
1060
1750
2040
2FF0
6040
A240
2A40
2BC0
2A50
2A50
2B30
2C10
ENDCHAR
STARTCHAR uni5037
COMMENT "Index: 1 Size: 13"
ENCODING 20535
SWIDTH 500 0
DWIDTH 6 0
BBX 12 12 0 -1
BITMAP
1100
1FF0
2280
2440
6FE0
A010
2FE0
2100
2520
2920
2110
2300
ENDCHAR
STARTCHAR uni503A
COMMENT "Index: 1 Size: 13"
ENCODING 20538
SWIDTH 500 0
DWIDTH 6 0
BBX 12 12 0 -1
BITMAP
1100
1FF0
2100
2FE0
6100
AFF0
2000
27E0
2520
2520
2280
2C60
ENDCHAR
STARTCHAR uni503C
COMMENT "Index: 1 Size: 13"
ENCODING 20540
SWIDTH 500 0
DWIDTH 6 0
BBX 12 12 0 -1
BITMAP
1100
1FF0
2100
27E0
6420
A7E0
2420
27E0
2420
27E0
2420
2FF0
ENDCHAR
STARTCHAR uni503E
COMMENT "Index: 1 Size: 13"
ENCODING 20542
SWIDTH 500 0
DWIDTH 6 0
BBX 12 12 0 -1
BITMAP
1000
13F0
2880
29F0
6F10
A950
2950
2950
2D50
3940
20A0
2110
ENDCHAR
STARTCHAR uni5040
COMMENT "Index: 1 Size: 13"
ENCODING 20544
SWIDTH 500 0
DWIDTH 6 0
BBX 12 12 0 -1
BITMAP
1440
1FF0
2440
2100
6FE0
A920
2920
3FF0
2100
2280
2440
3830
ENDCHAR
STARTCHAR uni5041
COMMENT "Index: 1 Size: 13"
ENCODING 20545
SWIDTH 500 0
DWIDTH 6 0
BBX 12 12 0 -1
BITMAP
10E0
1F10
2520
2480
6100
AFE0
2920
2FE0
2920
3FF0
2820
28E0
ENDCHAR
STARTCHAR uni5043
COMMENT "Index: 1 Size: 13"
ENCODING 20547
SWIDTH 500 0
DWIDTH 6 0
BBX 12 12 0 -1
BITMAP
1FF0
1A20
2BE0
2A20
6BE0
A840
2880
2FF0
2920
28C0
2920
2FF0
ENDCHAR
STARTCHAR uni5045
COMMENT "Index: 1 Size: 13"
ENCODING 20549
SWIDTH 500 0
DWIDTH 6 0
BBX 12 12 0 -1
BITMAP
17E0
1100
3FF0
2920
6FE0
A920
2FE0
2920
2100
27C0
2100
2FF0
ENDCHAR
STARTCHAR uni5046
COMMENT "Index: 1 Size: 13"
ENCODING 20550
SWIDTH 500 0
DWIDTH 6 0
BBX 12 12 0 -1
BITMAP
1100
1FF0
2100
27E0
6200
BFF0
2820
37D0
2440
27C0
2440
27C0
ENDCHAR
STARTCHAR uni5047
COMMENT "Index: 1 Size: 13"
ENCODING 20551
SWIDTH 500 0
DWIDTH 6 0
BBX 12 12 0 -1
BITMAP
3EF0
5210
D210
5EF0
5000
5EF0
5090
5090
5F60
5040
50A0
5110
ENDCHAR
STARTCHAR uni5048
COMMENT "Index: 1 Size: 13"
ENCODING 20552
SWIDTH 500 0
DWIDTH 6 0
BBX 12 12 0 -1
BITMAP
17E0
1420
27E0
2420
67E0
A200
27F0
2C90
2550
2430
27D0
2030
ENDCHAR
STARTCHAR uni5049
COMMENT "Index: 1 Size: 13"
ENCODING 20553
SWIDTH 500 0
DWIDTH 6 0
BBX 12 12 0 -1
BITMAP
1100
17E0
2240
2FF0
6420
A7E0
2080
2FF0
2480
2FF0
2080
2080
ENDCHAR
STARTCHAR uni504A
COMMENT "Index: 1 Size: 13"
ENCODING 20554
SWIDTH 500 0
DWIDTH 6 0
BBX 12 12 0 -1
BITMAP
1020
1FC0
2080
27E0
64A0
A7E0
2080
2FF0
2890
28D0
2B10
2830
ENDCHAR
STARTCHAR uni504B
COMMENT "Index: 1 Size: 13"
ENCODING 20555
SWIDTH 500 0
DWIDTH 6 0
BBX 12 12 0 -1
BITMAP
1FF0
2810
2FF0
6A20
A940
2FF0
2940
2940
2FF0
2A40
3240
3440
ENDCHAR
STARTCHAR uni504C
COMMENT "Index: 1 Size: 13"
ENCODING 20556
SWIDTH 500 0
DWIDTH 6 0
BBX 12 12 0 -1
BITMAP
1240
1240
2FF0
6240
A100
2FF0
2200
23E0
2620
2A20
23E0
2220
ENDCHAR
STARTCHAR uni504D
COMMENT "Index: 1 Size: 13"
ENCODING 20557
SWIDTH 500 0
DWIDTH 6 0
BBX 12 12 0 -1
BITMAP
17E0
1420
27E0
2420
67E0
A000
2FF0
2480
24F0
2C80
3280
21F0
ENDCHAR
STARTCHAR uni504E
COMMENT "Index: 1 Size: 13"
ENCODING 20558
SWIDTH 500 0
DWIDTH 6 0
BBX 12 12 0 -1
BITMAP
2FE0
2920
2FE0
2920
6FE0
A000
2FF0
2480
2490
24A0
2640
2C30
ENDCHAR
STARTCHAR uni504F
COMMENT "Index: 1 Size: 13"
ENCODING 20559
SWIDTH 500 0
DWIDTH 6 0
BBX 12 12 0 -1
BITMAP
1080
1FF0
2810
2FF0
6800
AFF0
2950
2950
2FF0
2950
2950
3030
ENDCHAR
STARTCHAR uni5051
COMMENT "Index: 1 Size: 13"
ENCODING 20561
SWIDTH 500 0
DWIDTH 6 0
BBX 12 12 0 -1
BITMAP
1FE0
1820
28E0
2F20
6920
AFE0
2920
2FE0
2920
2920
2950
37D0
ENDCHAR
STARTCHAR uni5053
COMMENT "Index: 1 Size: 13"
ENCODING 20563
SWIDTH 500 0
DWIDTH 6 0
BBX 12 12 0 -1
BITMAP
1FF0
1810
2FF0
2800
6BF0
A940
2A20
2BE0
2880
2BF0
3080
37F0
ENDCHAR
STARTCHAR uni5055
COMMENT "Index: 1 Size: 13"
ENCODING 20565
SWIDTH 500 0
DWIDTH 6 0
BBX 12 12 0 -1
BITMAP
1480
14B0
27C0
2490
6790
AC70
2100
27E0
2420
27E0
2420
27E0
ENDCHAR
STARTCHAR uni5057
COMMENT "Index: 1 Size: 13"
ENCODING 20567
SWIDTH 500 0
DWIDTH 6 0
BBX 12 12 0 -1
BITMAP
1100
1520
2560
2990
6100
A7E0
2A20
23E0
2220
23E0
2220
23E0
ENDCHAR
STARTCHAR uni505A
COMMENT "Index: 1 Size: 13"
ENCODING 20570
SWIDTH 500 0
DWIDTH 6 0
BBX 12 12 0 -1
BITMAP
1480
1480
1480
3FF0
64A0
A4A0
2EA0
2AA0
2AA0
2E40
2AA0
2310
ENDCHAR
STARTCHAR uni505B
COMMENT "Index: 1 Size: 13"
ENCODING 20571
SWIDTH 500 0
DWIDTH 6 0
BBX 12 12 0 -1
BITMAP
1060
1F80
2100
3FF0
6300
AD70
2910
2F70
2910
2910
2FF0
2810
ENDCHAR
STARTCHAR uni505C
COMMENT "Index: 1 Size: 13"
ENCODING 20572
SWIDTH 500 0
DWIDTH 6 0
BBX 12 12 0 -1
BITMAP
1100
1FF0
2000
27E0
6420
AFF0
2810
27E0
2080
2080
2380
2100
ENDCHAR
STARTCHAR uni505D
COMMENT "Index: 1 Size: 13"
ENCODING 20573
SWIDTH 500 0
DWIDTH 6 0
BBX 12 12 0 -1
BITMAP
1290
1EA0
22D0
2E90
6270
A7E0
2420
27E0
2420
27E0
2420
2460
ENDCHAR
STARTCHAR uni505E
COMMENT "Index: 1 Size: 13"
ENCODING 20574
SWIDTH 500 0
DWIDTH 6 0
BBX 12 12 0 -1
BITMAP
1540
1FF0
2540
25C0
6400
A7F0
2080
2FF0
21C0
22A0
2490
2890
ENDCHAR
STARTCHAR uni505F
COMMENT "Index: 1 Size: 13"
ENCODING 20575
SWIDTH 500 0
DWIDTH 6 0
BBX 12 12 0 -1
BITMAP
1100
17E0
2420
27E0
6420
A7E0
2000
2FF0
2100
27E0
2100
2FF0
ENDCHAR
STARTCHAR uni5060
COMMENT "Index: 1 Size: 13"
ENCODING 20576
SWIDTH 500 0
DWIDTH 6 0
BBX 12 12 0 -1
BITMAP
1FF0
1140
2FF0
2950
6950
AFF0
2100
2FF0
2240
2340
2180
2E70
ENDCHAR
STARTCHAR uni5061
COMMENT "Index: 1 Size: 13"
ENCODING 20577
SWIDTH 500 0
DWIDTH 6 0
BBX 12 12 0 -1
BITMAP
1240
1FF0
2240
23C0
6240
A3C0
2240
3FF0
2540
2770
2400
27F0
ENDCHAR
STARTCHAR uni5062
COMMENT "Index: 1 Size: 13"
ENCODING 20578
SWIDTH 500 0
DWIDTH 6 0
BBX 12 12 0 -1
BITMAP
1240
1C40
2440
3F50
64E0
A6C0
2D40
3440
2460
2490
2490
2510
ENDCHAR
STARTCHAR uni5063
COMMENT "Index: 1 Size: 13"
ENCODING 20579
SWIDTH 500 0
DWIDTH 6 0
BBX 12 12 0 -1
BITMAP
1100
1080
2FF0
2240
6FF0
A000
27E0
2420
27E0
2420
27E0
2420
ENDCHAR
STARTCHAR uni5064
COMMENT "Index: 1 Size: 13"
ENCODING 20580
SWIDTH 500 0
DWIDTH 6 0
BBX 12 12 0 -1
BITMAP
1440
1280
2FF0
2280
6FE0
AAA0
2AA0
2C60
2BA0
2820
2FE0
2820
ENDCHAR
STARTCHAR uni5065
COMMENT "Index: 1 Size: 13"
ENCODING 20581
SWIDTH 500 0
DWIDTH 6 0
BBX 12 12 0 -1
BITMAP
1080
2DE0
24A0
6BF0
A8A0
2DE0
2480
27F0
3480
2BF0
2C80
33F0
ENDCHAR
STARTCHAR uni5068
COMMENT "Index: 1 Size: 13"
ENCODING 20584
SWIDTH 500 0
DWIDTH 6 0
BBX 12 12 0 -1
BITMAP
2480
24A0
56C0
5490
D690
59F0
4100
5FE0
4540
4920
5110
4100
ENDCHAR
STARTCHAR uni5069
COMMENT "Index: 1 Size: 13"
ENCODING 20585
SWIDTH 500 0
DWIDTH 6 0
BBX 12 12 0 -1
BITMAP
1200
17E0
2880
27F0
6410
A7F0
2410
27F0
2410
27F0
2240
2C30
ENDCHAR
STARTCHAR uni506A
COMMENT "Index: 1 Size: 13"
ENCODING 20586
SWIDTH 500 0
DWIDTH 6 0
BBX 12 12 0 -1
BITMAP
1FF0
1000
17E0
2420
27E0
6000
AFF0
2890
2FF0
2890
2FF0
2810
ENDCHAR
STARTCHAR uni506B
COMMENT "Index: 1 Size: 13"
ENCODING 20587
SWIDTH 500 0
DWIDTH 6 0
BBX 12 12 0 -1
BITMAP
1240
15F0
2840
2240
25F0
6C20
B7F0
2520
24A0
24A0
2420
2460
ENDCHAR
STARTCHAR uni506C
COMMENT "Index: 1 Size: 13"
ENCODING 20588
SWIDTH 500 0
DWIDTH 6 0
BBX 12 12 0 -1
BITMAP
1400
17F0
2D50
3250
6590
A950
2230
2100
2AA0
2A10
3220
21E0
ENDCHAR
STARTCHAR uni506D
COMMENT "Index: 1 Size: 13"
ENCODING 20589
SWIDTH 500 0
DWIDTH 6 0
BBX 12 12 0 -1
BITMAP
2020
5FF0
4200
DFE0
54A0
54A0
57A0
54A0
57A0
54A0
5FE0
5020
ENDCHAR
STARTCHAR uni506E
COMMENT "Index: 1 Size: 13"
ENCODING 20590
SWIDTH 500 0
DWIDTH 6 0
BBX 12 12 0 -1
BITMAP
17C0
1440
27C0
2000
6FF0
A440
27C0
2440
27C0
2440
3FF0
2040
ENDCHAR
STARTCHAR uni506F
COMMENT "Index: 1 Size: 13"
ENCODING 20591
SWIDTH 500 0
DWIDTH 6 0
BBX 12 12 0 -1
BITMAP
1100
1080
2FF0
2000
67E0
A420
27E0
2180
2690
2A60
22C0
2730
ENDCHAR
STARTCHAR uni5070
COMMENT "Index: 1 Size: 13"
ENCODING 20592
SWIDTH 500 0
DWIDTH 6 0
BBX 12 12 0 -1
BITMAP
24F0
5F50
4450
DF50
4490
5F30
4500
5FF0
4100
4280
4440
5830
ENDCHAR
STARTCHAR uni5072
COMMENT "Index: 1 Size: 13"
ENCODING 20594
SWIDTH 500 0
DWIDTH 6 0
BBX 12 12 0 -1
BITMAP
2FE0
2920
2920
2FE0
6920
AFE0
2820
2500
24A0
2C50
3440
23C0
ENDCHAR
STARTCHAR uni5073
COMMENT "Index: 1 Size: 13"
ENCODING 20595
SWIDTH 500 0
DWIDTH 6 0
BBX 12 12 0 -1
BITMAP
1490
1490
27F0
2000
6FF0
A100
2FF0
2A90
2A90
2A90
2A90
2830
ENDCHAR
STARTCHAR uni5074
COMMENT "Index: 1 Size: 13"
ENCODING 20596
SWIDTH 500 0
DWIDTH 6 0
BBX 12 12 0 -1
BITMAP
1010
2F10
2950
6F50
A950
2950
2F50
2950
2F50
2A10
2510
28B0
ENDCHAR
STARTCHAR uni5075
COMMENT "Index: 1 Size: 13"
ENCODING 20597
SWIDTH 500 0
DWIDTH 6 0
BBX 12 12 0 -1
BITMAP
1100
11F0
2100
27E0
6420
A7E0
2420
27E0
2420
27E0
2240
2C30
ENDCHAR
STARTCHAR uni5076
COMMENT "Index: 1 Size: 13"
ENCODING 20598
SWIDTH 500 0
DWIDTH 6 0
BBX 12 12 0 -1
BITMAP
17E0
14A0
27E0
24A0
67E0
A080
2FF0
2910
2A50
2FD0
2810
2830
ENDCHAR
STARTCHAR uni5077
COMMENT "Index: 1 Size: 13"
ENCODING 20599
SWIDTH 500 0
DWIDTH 6 0
BBX 12 12 0 -1
BITMAP
1100
1280
2440
2BB0
7000
AF10
2950
2F50
2950
2F50
2910
2B70
ENDCHAR
STARTCHAR uni507A
COMMENT "Index: 1 Size: 13"
ENCODING 20602
SWIDTH 500 0
DWIDTH 6 0
BBX 12 12 0 -1
BITMAP
1440
1740
2560
6E50
B240
25F0
2800
37E0
2420
27E0
2420
27E0
ENDCHAR
STARTCHAR uni507B
COMMENT "Index: 1 Size: 13"
ENCODING 20603
SWIDTH 500 0
DWIDTH 6 0
BBX 12 12 0 -1
BITMAP
1920
1540
2100
2FF0
6540
A930
2100
2FF0
2240
2280
2140
2E30
ENDCHAR
STARTCHAR uni507D
COMMENT "Index: 1 Size: 13"
ENCODING 20605
SWIDTH 500 0
DWIDTH 6 0
BBX 12 12 0 -1
BITMAP
2900
2500
2100
2FE0
6240
A3E0
2220
27F0
2810
2550
2AB0
2010
ENDCHAR
STARTCHAR uni507E
COMMENT "Index: 1 Size: 13"
ENCODING 20606
SWIDTH 500 0
DWIDTH 6 0
BBX 12 12 0 -1
BITMAP
1100
1FE0
2540
2FF0
6440
AFE0
2920
2920
2920
2920
2280
2C70
ENDCHAR
STARTCHAR uni507F
COMMENT "Index: 1 Size: 13"
ENCODING 20607
SWIDTH 500 0
DWIDTH 6 0
BBX 12 12 0 -1
BITMAP
1490
12A0
2080
2FF0
6810
A7E0
2000
2FF0
2100
2220
27E0
2010
ENDCHAR
STARTCHAR uni5080
COMMENT "Index: 1 Size: 13"
ENCODING 20608
SWIDTH 500 0
DWIDTH 6 0
BBX 12 12 0 -1
BITMAP
1100
1FE0
2920
2FE0
6920
AFE0
2920
2140
2350
2570
2880
30F0
ENDCHAR
STARTCHAR uni5082
COMMENT "Index: 1 Size: 13"
ENCODING 20610
SWIDTH 500 0
DWIDTH 6 0
BBX 12 12 0 -1
BITMAP
3FF0
5100
57F0
D510
57C0
5510
55F0
5400
55C0
6940
6950
5270
ENDCHAR
STARTCHAR uni5083
COMMENT "Index: 1 Size: 13"
ENCODING 20611
SWIDTH 500 0
DWIDTH 6 0
BBX 12 12 0 -1
BITMAP
1100
1FF0
2100
27E0
6100
AFF0
2140
2FE0
2420
2FF0
2920
3310
ENDCHAR
STARTCHAR uni5085
COMMENT "Index: 1 Size: 13"
ENCODING 20613
SWIDTH 500 0
DWIDTH 6 0
BBX 12 12 0 -1
BITMAP
1120
2FF0
2100
6FE0
A920
2FE0
2920
2FE0
2040
2FF0
2240
20C0
ENDCHAR
STARTCHAR uni5087
COMMENT "Index: 1 Size: 13"
ENCODING 20615
SWIDTH 500 0
DWIDTH 6 0
BBX 12 12 0 -1
BITMAP
1240
2FF0
2240
6FF0
A440
27C0
2440
27C0
2440
2FF0
2040
2040
ENDCHAR
STARTCHAR uni5088
COMMENT "Index: 1 Size: 13"
ENCODING 20616
SWIDTH 500 0
DWIDTH 6 0
BBX 12 12 0 -1
BITMAP
17F0
1140
27F0
2550
6550
A7F0
2080
2FF0
2080
21C0
22A0
2490
ENDCHAR
STARTCHAR uni508B
COMMENT "Index: 1 Size: 13"
ENCODING 20619
SWIDTH 500 0
DWIDTH 6 0
BBX 12 12 0 -1
BITMAP
1240
2FF0
2240
67E0
A240
2FF0
2520
27E0
2520
2FF0
2420
2460
ENDCHAR
STARTCHAR uni508C
COMMENT "Index: 1 Size: 13"
ENCODING 20620
SWIDTH 500 0
DWIDTH 6 0
BBX 12 12 0 -1
BITMAP
17F0
1480
27E0
2480
67E0
A480
27F0
2010
2550
2550
2A90
2030
ENDCHAR
STARTCHAR uni508D
COMMENT "Index: 1 Size: 13"
ENCODING 20621
SWIDTH 500 0
DWIDTH 6 0
BBX 12 12 0 -1
BITMAP
1100
1FF0
2240
2240
6FF0
A890
2FF0
2200
23E0
2220
2420
2840
ENDCHAR
STARTCHAR uni508E
COMMENT "Index: 1 Size: 13"
ENCODING 20622
SWIDTH 500 0
DWIDTH 6 0
BBX 12 12 0 -1
BITMAP
1100
1FF0
2100
27E0
6420
A7E0
2420
27E0
2420
3FF0
2240
2C30
ENDCHAR
STARTCHAR uni5091
COMMENT "Index: 1 Size: 13"
ENCODING 20625
SWIDTH 500 0
DWIDTH 6 0
BBX 12 12 0 -1
BITMAP
1420
17F0
2AA0
2EA0
63F0
A420
2920
2FF0
2540
2920
3110
2100
ENDCHAR
STARTCHAR uni5092
COMMENT "Index: 1 Size: 13"
ENCODING 20626
SWIDTH 500 0
DWIDTH 6 0
BBX 12 12 0 -1
BITMAP
10C0
1F20
2920
22C0
6780
A240
2FE0
2100
2FF0
2180
2240
2C30
ENDCHAR
STARTCHAR uni5094
COMMENT "Index: 1 Size: 13"
ENCODING 20628
SWIDTH 500 0
DWIDTH 6 0
BBX 12 12 0 -1
BITMAP
1440
1280
2FF0
2280
6FE0
A2A0
3FF0
22A0
2FE0
26C0
2AA0
3290
ENDCHAR
STARTCHAR uni5095
COMMENT "Index: 1 Size: 13"
ENCODING 20629
SWIDTH 500 0
DWIDTH 6 0
BBX 12 12 0 -1
BITMAP
2100
2FF0
2910
2280
63F0
A480
2FE0
3480
27E0
2480
2480
27F0
ENDCHAR
STARTCHAR uni5096
COMMENT "Index: 1 Size: 13"
ENCODING 20630
SWIDTH 500 0
DWIDTH 6 0
BBX 12 12 0 -1
BITMAP
1100
1280
2540
28B0
37C0
6440
A7C0
2440
27E0
2A20
2BE0
3220
ENDCHAR
STARTCHAR uni5098
COMMENT "Index: 1 Size: 13"
ENCODING 20632
SWIDTH 500 0
DWIDTH 6 0
BBX 12 12 0 -1
BITMAP
0600
0900
32C0
C230
2240
52A0
AB50
52A0
0200
FFF0
0200
0200
ENDCHAR
STARTCHAR uni5099
COMMENT "Index: 1 Size: 13"
ENCODING 20633
SWIDTH 500 0
DWIDTH 6 0
BBX 12 12 0 -1
BITMAP
1240
17E0
1240
2FF0
2200
67F0
AC90
37F0
2490
27F0
2490
24B0
ENDCHAR
STARTCHAR uni509A
COMMENT "Index: 1 Size: 13"
ENCODING 20634
SWIDTH 500 0
DWIDTH 6 0
BBX 12 12 0 -1
BITMAP
1440
1440
2F70
2A90
6990
B290
3A50
2450
2630
2560
2890
3310
ENDCHAR
STARTCHAR uni509B
COMMENT "Index: 1 Size: 13"
ENCODING 20635
SWIDTH 500 0
DWIDTH 6 0
BBX 12 12 0 -1
BITMAP
1100
1080
2FF0
2A50
6520
AA50
2420
2FF0
3420
2420
27E0
2420
ENDCHAR
STARTCHAR uni509C
COMMENT "Index: 1 Size: 13"
ENCODING 20636
SWIDTH 500 0
DWIDTH 6 0
BBX 12 12 0 -1
BITMAP
1100
13E0
2520
2AC0
6380
BD00
27F0
2880
2FF0
2490
2490
27F0
ENDCHAR
STARTCHAR uni509D
COMMENT "Index: 1 Size: 13"
ENCODING 20637
SWIDTH 500 0
DWIDTH 6 0
BBX 12 12 0 -1
BITMAP
17E0
1420
27E0
2420
67E0
A000
2FF0
2550
2330
2DD0
2110
2330
ENDCHAR
STARTCHAR uni509E
COMMENT "Index: 1 Size: 13"
ENCODING 20638
SWIDTH 500 0
DWIDTH 6 0
BBX 12 12 0 -1
BITMAP
1440
1280
2FF0
2100
67E0
A100
2FF0
2200
27E0
2900
3100
2FF0
ENDCHAR
STARTCHAR uni50A2
COMMENT "Index: 1 Size: 13"
ENCODING 20642
SWIDTH 500 0
DWIDTH 6 0
BBX 12 12 0 -1
BITMAP
1100
1FF0
2810
27E0
6100
A310
2DA0
22C0
25C0
22A0
2490
2180
ENDCHAR
STARTCHAR uni50A3
COMMENT "Index: 1 Size: 13"
ENCODING 20643
SWIDTH 500 0
DWIDTH 6 0
BBX 12 12 0 -1
BITMAP
1100
1FE0
2200
2FE0
6200
BFF0
2920
3550
2380
2D40
3120
2300
ENDCHAR
STARTCHAR uni50A5
COMMENT "Index: 1 Size: 13"
ENCODING 20645
SWIDTH 500 0
DWIDTH 6 0
BBX 12 12 0 -1
BITMAP
1520
1540
2FF0
2810
67E0
A420
2420
27E0
2280
2290
2490
2870
ENDCHAR
STARTCHAR uni50A7
COMMENT "Index: 1 Size: 13"
ENCODING 20647
SWIDTH 500 0
DWIDTH 6 0
BBX 12 12 0 -1
BITMAP
1100
1FF0
2850
2780
6400
A7E0
2480
2480
3FF0
2000
2440
2820
ENDCHAR
STARTCHAR uni50A8
COMMENT "Index: 1 Size: 13"
ENCODING 20648
SWIDTH 500 0
DWIDTH 6 0
BBX 12 12 0 -1
BITMAP
0080
2890
2BF0
20A0
5BF0
C880
49F0
4B10
49F0
4D10
59F0
4110
ENDCHAR
STARTCHAR uni50A9
COMMENT "Index: 1 Size: 13"
ENCODING 20649
SWIDTH 500 0
DWIDTH 6 0
BBX 12 12 0 -1
BITMAP
2140
2140
5DF0
4640
D640
57E0
4A40
4BE0
5640
6640
43F0
4200
ENDCHAR
STARTCHAR uni50AC
COMMENT "Index: 1 Size: 13"
ENCODING 20652
SWIDTH 500 0
DWIDTH 6 0
BBX 12 12 0 -1
BITMAP
1490
1490
27F0
2280
6480
A7F0
2C80
37F0
2480
27F0
2480
27F0
ENDCHAR
STARTCHAR uni50AD
COMMENT "Index: 1 Size: 13"
ENCODING 20653
SWIDTH 500 0
DWIDTH 6 0
BBX 12 12 0 -1
BITMAP
1080
2FF0
2880
2BE0
68A0
AFF0
2AA0
2BF0
2A90
2BF0
2A90
34B0
ENDCHAR
STARTCHAR uni50AE
COMMENT "Index: 1 Size: 13"
ENCODING 20654
SWIDTH 500 0
DWIDTH 6 0
BBX 12 12 0 -1
BITMAP
1280
1FF0
2280
2FF0
6A90
AFF0
2A90
2FF0
2420
27E0
2420
27E0
ENDCHAR
STARTCHAR uni50AF
COMMENT "Index: 1 Size: 13"
ENCODING 20655
SWIDTH 500 0
DWIDTH 6 0
BBX 12 12 0 -1
BITMAP
1100
17E0
24A0
25E0
6560
A6A0
27E0
2420
2280
2A90
2A50
21C0
ENDCHAR
STARTCHAR uni50B0
COMMENT "Index: 1 Size: 13"
ENCODING 20656
SWIDTH 500 0
DWIDTH 6 0
BBX 12 12 0 -1
BITMAP
1490
1490
27F0
2000
6EF0
AA90
2EF0
2A90
2EF0
2A90
2A90
36B0
ENDCHAR
STARTCHAR uni50B1
COMMENT "Index: 1 Size: 13"
ENCODING 20657
SWIDTH 500 0
DWIDTH 6 0
BBX 12 12 0 -1
BITMAP
2920
2920
2920
76D0
AA10
2840
3A40
2A70
2A40
2A40
2D40
28F0
ENDCHAR
STARTCHAR uni50B2
COMMENT "Index: 1 Size: 13"
ENCODING 20658
SWIDTH 500 0
DWIDTH 6 0
BBX 12 12 0 -1
BITMAP
2880
3E80
4880
5FF0
C920
7F20
4920
5CA0
54C0
5440
64A0
4B10
ENDCHAR
STARTCHAR uni50B3
COMMENT "Index: 1 Size: 13"
ENCODING 20659
SWIDTH 500 0
DWIDTH 6 0
BBX 12 12 0 -1
BITMAP
1100
1FF0
2520
27E0
6520
A7E0
2120
2FD0
2040
2FF0
2240
22C0
ENDCHAR
STARTCHAR uni50B4
COMMENT "Index: 1 Size: 13"
ENCODING 20660
SWIDTH 500 0
DWIDTH 6 0
BBX 12 12 0 -1
BITMAP
1FF0
2800
2BE0
6A20
ABE0
2800
2F70
2950
2950
2F70
2800
2FF0
ENDCHAR
STARTCHAR uni50B5
COMMENT "Index: 1 Size: 13"
ENCODING 20661
SWIDTH 500 0
DWIDTH 6 0
BBX 12 12 0 -1
BITMAP
1100
1FF0
2100
27E0
6100
AFF0
2420
27E0
2420
27E0
2240
2C30
ENDCHAR
STARTCHAR uni50B6
COMMENT "Index: 1 Size: 13"
ENCODING 20662
SWIDTH 500 0
DWIDTH 6 0
BBX 12 12 0 -1
BITMAP
10A0
2090
2FF0
6A40
AB40
2A50
2FD0
2A60
2F20
2AC0
2AB0
3210
ENDCHAR
STARTCHAR uni50B7
COMMENT "Index: 1 Size: 13"
ENCODING 20663
SWIDTH 500 0
DWIDTH 6 0
BBX 12 12 0 -1
BITMAP
1400
17F0
2A20
33E0
6220
AFF0
2200
23F0
2550
2A90
2510
2260
ENDCHAR
STARTCHAR uni50B8
COMMENT "Index: 1 Size: 13"
ENCODING 20664
SWIDTH 500 0
DWIDTH 6 0
BBX 12 12 0 -1
BITMAP
1100
1FF0
2100
3550
6920
B550
2920
3550
2280
2440
2820
3010
ENDCHAR
STARTCHAR uni50BA
COMMENT "Index: 1 Size: 13"
ENCODING 20666
SWIDTH 500 0
DWIDTH 6 0
BBX 12 12 0 -1
BITMAP
1470
1750
2950
2F30
7220
ADD0
2800
37F0
2280
24A0
2890
2180
ENDCHAR
STARTCHAR uni50BB
COMMENT "Index: 1 Size: 13"
ENCODING 20667
SWIDTH 500 0
DWIDTH 6 0
BBX 12 12 0 -1
BITMAP
1100
17F0
2550
2490
6550
A7F0
2420
2BD0
2240
2580
2140
2630
ENDCHAR
STARTCHAR uni50BD
COMMENT "Index: 1 Size: 13"
ENCODING 20669
SWIDTH 500 0
DWIDTH 6 0
BBX 12 12 0 -1
BITMAP
1100
1FF0
2240
2FF0
6420
A7E0
2420
27E0
2100
2FF0
2100
2100
ENDCHAR
STARTCHAR uni50BE
COMMENT "Index: 1 Size: 13"
ENCODING 20670
SWIDTH 500 0
DWIDTH 6 0
BBX 12 12 0 -1
BITMAP
13F0
1040
29F0
2910
6FF0
A910
29F0
2B10
2DF0
3910
20A0
2310
ENDCHAR
STARTCHAR uni50BF
COMMENT "Index: 1 Size: 13"
ENCODING 20671
SWIDTH 500 0
DWIDTH 6 0
BBX 12 12 0 -1
BITMAP
17F0
1080
22E0
2280
6FF0
A400
27E0
2400
27F0
2550
2A90
2030
ENDCHAR
STARTCHAR uni50C1
COMMENT "Index: 1 Size: 13"
ENCODING 20673
SWIDTH 500 0
DWIDTH 6 0
BBX 12 12 0 -1
BITMAP
1060
1F80
2920
2540
6FF0
A540
2920
3110
2320
2A90
2A50
31C0
ENDCHAR
STARTCHAR uni50C2
COMMENT "Index: 1 Size: 13"
ENCODING 20674
SWIDTH 500 0
DWIDTH 6 0
BBX 12 12 0 -1
BITMAP
1100
17E0
2520
2FF0
6520
AFF0
2910
2FF0
2200
3FF0
2280
3D70
ENDCHAR
STARTCHAR uni50C4
COMMENT "Index: 1 Size: 13"
ENCODING 20676
SWIDTH 500 0
DWIDTH 6 0
BBX 12 12 0 -1
BITMAP
1FF0
1240
2FF0
2A50
6FF0
A000
27E0
2000
2FF0
24A0
2890
2180
ENDCHAR
STARTCHAR uni50C5
COMMENT "Index: 1 Size: 13"
ENCODING 20677
SWIDTH 500 0
DWIDTH 6 0
BBX 12 12 0 -1
BITMAP
1240
1FF0
2240
2FE0
6920
AFE0
2100
2FF0
2100
2FE0
2100
3FF0
ENDCHAR
STARTCHAR uni50C6
COMMENT "Index: 1 Size: 13"
ENCODING 20678
SWIDTH 500 0
DWIDTH 6 0
BBX 12 12 0 -1
BITMAP
1040
13F0
2840
2BF0
6250
BBF0
2A50
2BF0
2840
2BF0
2C40
33F0
ENDCHAR
STARTCHAR uni50C7
COMMENT "Index: 1 Size: 13"
ENCODING 20679
SWIDTH 500 0
DWIDTH 6 0
BBX 12 12 0 -1
BITMAP
1770
1550
2330
2550
6990
A280
2440
2930
2640
2190
2020
27C0
ENDCHAR
STARTCHAR uni50C8
COMMENT "Index: 1 Size: 13"
ENCODING 20680
SWIDTH 500 0
DWIDTH 6 0
BBX 12 12 0 -1
BITMAP
17C0
1440
27C0
2440
6FF0
AA90
2FF0
2000
2FE0
2280
2100
2EF0
ENDCHAR
STARTCHAR uni50C9
COMMENT "Index: 1 Size: 13"
ENCODING 20681
SWIDTH 500 0
DWIDTH 6 0
BBX 11 12 0 -1
BITMAP
0400
0A00
1100
2E80
C060
7BC0
4A40
7BC0
4A40
3180
4A40
8420
ENDCHAR
STARTCHAR uni50CA
COMMENT "Index: 1 Size: 13"
ENCODING 20682
SWIDTH 500 0
DWIDTH 6 0
BBX 11 12 0 -1
BITMAP
3FE0
4500
5FE0
5520
DFE0
4400
5FE0
4840
5FA0
6880
4820
47E0
ENDCHAR
STARTCHAR uni50CB
COMMENT "Index: 1 Size: 13"
ENCODING 20683
SWIDTH 500 0
DWIDTH 6 0
BBX 12 12 0 -1
BITMAP
1180
1240
2520
2BD0
6080
A7E0
2420
27E0
2420
27E0
2240
2C30
ENDCHAR
STARTCHAR uni50CE
COMMENT "Index: 1 Size: 13"
ENCODING 20686
SWIDTH 500 0
DWIDTH 6 0
BBX 12 12 0 -1
BITMAP
2EF0
2A90
2EF0
2880
6EF0
A240
2FF0
2240
3FF0
2240
2420
2810
ENDCHAR
STARTCHAR uni50CF
COMMENT "Index: 1 Size: 13"
ENCODING 20687
SWIDTH 500 0
DWIDTH 6 0
BBX 12 12 0 -1
BITMAP
17C0
1480
27F0
2C90
77F0
A100
2290
2DA0
22C0
2DA0
2290
2D10
ENDCHAR
STARTCHAR uni50D1
COMMENT "Index: 1 Size: 13"
ENCODING 20689
SWIDTH 500 0
DWIDTH 6 0
BBX 12 12 0 -1
BITMAP
1060
1780
2100
2FF0
6420
ABD0
2240
2FF0
2810
2BD0
2A50
2BF0
ENDCHAR
STARTCHAR uni50D3
COMMENT "Index: 1 Size: 13"
ENCODING 20691
SWIDTH 500 0
DWIDTH 6 0
BBX 12 12 0 -1
BITMAP
1100
2FC0
2940
7FF0
A820
2FE0
2820
2FE0
2820
2FE0
2440
2820
ENDCHAR
STARTCHAR uni50D4
COMMENT "Index: 1 Size: 13"
ENCODING 20692
SWIDTH 500 0
DWIDTH 6 0
BBX 12 12 0 -1
BITMAP
1440
2FE0
2280
6FE0
AAA0
2C60
2FE0
2820
3FF0
2440
2240
20C0
ENDCHAR
STARTCHAR uni50D5
COMMENT "Index: 1 Size: 13"
ENCODING 20693
SWIDTH 500 0
DWIDTH 6 0
BBX 12 12 0 -1
BITMAP
1A90
16A0
2280
2FF0
6240
AFF0
2100
27E0
2100
3FF0
2220
2C10
ENDCHAR
STARTCHAR uni50D6
COMMENT "Index: 1 Size: 13"
ENCODING 20694
SWIDTH 500 0
DWIDTH 6 0
BBX 12 12 0 -1
BITMAP
1100
1FF0
2100
2FF0
6420
A7E0
2240
2FF0
2000
27E0
2420
27E0
ENDCHAR
STARTCHAR uni50D7
COMMENT "Index: 1 Size: 13"
ENCODING 20695
SWIDTH 500 0
DWIDTH 6 0
BBX 12 12 0 -1
BITMAP
1440
1770
2CC0
2660
6990
AFF0
2910
2100
27E0
2120
2120
2660
ENDCHAR
STARTCHAR uni50DA
COMMENT "Index: 1 Size: 13"
ENCODING 20698
SWIDTH 500 0
DWIDTH 6 0
BBX 12 12 0 -1
BITMAP
1100
1FF0
2AA0
2AC0
67E0
AC50
27C0
2440
27C0
2920
3110
2300
ENDCHAR
STARTCHAR uni50DB
COMMENT "Index: 1 Size: 13"
ENCODING 20699
SWIDTH 500 0
DWIDTH 6 0
BBX 12 12 0 -1
BITMAP
3280
5280
5FF0
D250
5E40
5240
5E40
5240
7F40
4440
4AA0
5110
ENDCHAR
STARTCHAR uni50DD
COMMENT "Index: 1 Size: 13"
ENCODING 20701
SWIDTH 500 0
DWIDTH 6 0
BBX 12 12 0 -1
BITMAP
1FF0
2810
2FF0
6880
A880
2FF0
2880
2FF0
2A20
3FF0
2220
2660
ENDCHAR
STARTCHAR uni50E0
COMMENT "Index: 1 Size: 13"
ENCODING 20704
SWIDTH 500 0
DWIDTH 6 0
BBX 12 12 0 -1
BITMAP
1060
1FA0
2540
2FF0
6540
A920
3110
2FE0
2920
2FE0
2920
2FE0
ENDCHAR
STARTCHAR uni50E3
COMMENT "Index: 1 Size: 13"
ENCODING 20707
SWIDTH 500 0
DWIDTH 6 0
BBX 12 12 0 -1
BITMAP
1440
1EF0
2440
3EF0
6440
AAA0
3110
2FE0
2820
2FE0
2820
2FE0
ENDCHAR
STARTCHAR uni50E4
COMMENT "Index: 1 Size: 13"
ENCODING 20708
SWIDTH 500 0
DWIDTH 6 0
BBX 12 12 0 -1
BITMAP
1770
1550
2770
2000
67F0
A490
27F0
2490
27F0
2080
27F0
2080
ENDCHAR
STARTCHAR uni50E5
COMMENT "Index: 1 Size: 13"
ENCODING 20709
SWIDTH 500 0
DWIDTH 6 0
BBX 12 12 0 -1
BITMAP
1080
27F0
2080
27F0
6440
AEF0
2440
2EF0
2000
3FF0
2280
2CF0
ENDCHAR
STARTCHAR uni50E6
COMMENT "Index: 1 Size: 13"
ENCODING 20710
SWIDTH 500 0
DWIDTH 6 0
BBX 12 12 0 -1
BITMAP
2880
48A0
7EA0
C1F0
5E80
5280
5E80
4C80
5B40
6950
4A50
5870
ENDCHAR
STARTCHAR uni50E7
COMMENT "Index: 1 Size: 13"
ENCODING 20711
SWIDTH 500 0
DWIDTH 6 0
BBX 12 12 0 -1
BITMAP
1420
1240
2FF0
2930
6B50
AFF0
2000
27E0
2420
27E0
2420
27E0
ENDCHAR
STARTCHAR uni50E8
COMMENT "Index: 1 Size: 13"
ENCODING 20712
SWIDTH 500 0
DWIDTH 6 0
BBX 12 12 0 -1
BITMAP
1100
1FE0
2540
3FF0
6440
A7E0
2420
27E0
2420
27E0
2240
2C30
ENDCHAR
STARTCHAR uni50E9
COMMENT "Index: 1 Size: 13"
ENCODING 20713
SWIDTH 500 0
DWIDTH 6 0
BBX 12 12 0 -1
BITMAP
1EF0
2A90
2EF0
6A90
AEF0
2BD0
2A50
2BD0
2A50
2BD0
2A50
2CB0
ENDCHAR
STARTCHAR uni50EA
COMMENT "Index: 1 Size: 13"
ENCODING 20714
SWIDTH 500 0
DWIDTH 6 0
BBX 12 12 0 -1
BITMAP
17E0
1140
2FF0
2190
6680
AFF0
2A50
2A30
2FD0
2A50
2BD0
2830
ENDCHAR
STARTCHAR uni50EC
COMMENT "Index: 1 Size: 13"
ENCODING 20716
SWIDTH 500 0
DWIDTH 6 0
BBX 12 12 0 -1
BITMAP
1280
1480
2FF0
2480
67F0
A480
27F0
2480
27F0
2000
2550
2950
ENDCHAR
STARTCHAR uni50ED
COMMENT "Index: 1 Size: 13"
ENCODING 20717
SWIDTH 500 0
DWIDTH 6 0
BBX 12 12 0 -1
BITMAP
3FE0
5540
5540
DFE0
4CC0
5550
6070
4FC0
4840
4FC0
4840
4FC0
ENDCHAR
STARTCHAR uni50EE
COMMENT "Index: 1 Size: 13"
ENCODING 20718
SWIDTH 500 0
DWIDTH 6 0
BBX 12 12 0 -1
BITMAP
1100
17F0
2240
2FF0
6520
A7E0
2520
27E0
2100
27E0
2100
2FF0
ENDCHAR
STARTCHAR uni50EF
COMMENT "Index: 1 Size: 13"
ENCODING 20719
SWIDTH 500 0
DWIDTH 6 0
BBX 12 12 0 -1
BITMAP
1520
1340
2FF0
2540
6920
B040
27F0
2B40
2540
2BF0
3040
2040
ENDCHAR
STARTCHAR uni50F0
COMMENT "Index: 1 Size: 13"
ENCODING 20720
SWIDTH 500 0
DWIDTH 6 0
BBX 11 12 0 -1
BITMAP
2080
FBE0
2080
FFE0
A4A0
2480
71C0
AEA0
0400
0A00
1100
E0E0
ENDCHAR
STARTCHAR uni50F1
COMMENT "Index: 1 Size: 13"
ENCODING 20721
SWIDTH 500 0
DWIDTH 6 0
BBX 12 12 0 -1
BITMAP
1080
1FF0
2810
2FF0
6940
ABF0
2A40
2FF0
2A40
2BF0
3240
33F0
ENDCHAR
STARTCHAR uni50F3
COMMENT "Index: 1 Size: 13"
ENCODING 20723
SWIDTH 500 0
DWIDTH 6 0
BBX 12 12 0 -1
BITMAP
1FF0
1280
2FF0
2A90
6FF0
A520
2340
3FF0
2380
2540
2930
2100
ENDCHAR
STARTCHAR uni50F5
COMMENT "Index: 1 Size: 13"
ENCODING 20725
SWIDTH 500 0
DWIDTH 6 0
BBX 12 12 0 -1
BITMAP
2FF0
2000
27C0
2540
67C0
A540
3FF0
2540
2540
27C0
2540
3FF0
ENDCHAR
STARTCHAR uni50F6
COMMENT "Index: 1 Size: 13"
ENCODING 20726
SWIDTH 500 0
DWIDTH 6 0
BBX 12 12 0 -1
BITMAP
2FF0
2A90
2EF0
2280
6EF0
AA90
2EF0
2A90
2EF0
2280
2290
21F0
ENDCHAR
STARTCHAR uni50F8
COMMENT "Index: 1 Size: 13"
ENCODING 20728
SWIDTH 500 0
DWIDTH 6 0
BBX 12 12 0 -1
BITMAP
1440
1FF0
2440
2EE0
7550
A440
27E0
2000
2FF0
24A0
2890
2180
ENDCHAR
STARTCHAR uni50F9
COMMENT "Index: 1 Size: 13"
ENCODING 20729
SWIDTH 500 0
DWIDTH 6 0
BBX 12 12 0 -1
BITMAP
1FF0
1240
2FF0
2A50
6FF0
A420
27E0
2420
27E0
2420
27E0
2C30
ENDCHAR
STARTCHAR uni50FB
COMMENT "Index: 1 Size: 13"
ENCODING 20731
SWIDTH 500 0
DWIDTH 6 0
BBX 12 12 0 -1
BITMAP
4080
5E40
53F0
52A0
DEA0
51F0
5E40
5A40
6BF0
4A40
4E40
4040
ENDCHAR
STARTCHAR uni50FD
COMMENT "Index: 1 Size: 13"
ENCODING 20733
SWIDTH 500 0
DWIDTH 6 0
BBX 12 12 0 -1
BITMAP
3E40
2840
5EC0
4960
DC40
6AA0
4910
4440
4520
5520
6440
47C0
ENDCHAR
STARTCHAR uni50FE
COMMENT "Index: 1 Size: 13"
ENCODING 20734
SWIDTH 500 0
DWIDTH 6 0
BBX 12 12 0 -1
BITMAP
10E0
1710
24A0
3FF0
7290
A6E0
2BD0
2200
27E0
2A80
2100
2EF0
ENDCHAR
STARTCHAR uni50FF
COMMENT "Index: 1 Size: 13"
ENCODING 20735
SWIDTH 500 0
DWIDTH 6 0
BBX 12 12 0 -1
BITMAP
1100
1FF0
2A90
2FE0
6280
A7E0
2280
3FF0
2920
37D0
2100
2FF0
ENDCHAR
STARTCHAR uni5100
COMMENT "Index: 1 Size: 13"
ENCODING 20736
SWIDTH 500 0
DWIDTH 6 0
BBX 12 12 0 -1
BITMAP
2240
2FF0
4100
47E0
C100
5FF0
4290
5FF0
4340
5E50
42B0
4D10
ENDCHAR
STARTCHAR uni5102
COMMENT "Index: 1 Size: 13"
ENCODING 20738
SWIDTH 500 0
DWIDTH 6 0
BBX 12 12 0 -1
BITMAP
1140
17F0
2550
27F0
6550
AFF0
2800
2FF0
2A40
2A50
2BA0
3210
ENDCHAR
STARTCHAR uni5103
COMMENT "Index: 1 Size: 13"
ENCODING 20739
SWIDTH 500 0
DWIDTH 6 0
BBX 12 12 0 -1
BITMAP
1100
1FF0
2A50
2BD0
6810
AFF0
2810
27E0
2420
27E0
2420
2FF0
ENDCHAR
STARTCHAR uni5104
COMMENT "Index: 1 Size: 13"
ENCODING 20740
SWIDTH 500 0
DWIDTH 6 0
BBX 12 12 0 -1
BITMAP
1100
1FF0
2240
3FF0
6420
A7E0
2420
27E0
2120
2A90
2A30
33E0
ENDCHAR
STARTCHAR uni5105
COMMENT "Index: 1 Size: 13"
ENCODING 20741
SWIDTH 500 0
DWIDTH 6 0
BBX 12 12 0 -1
BITMAP
2920
2540
2FF0
2A50
23C0
6000
A7E0
2520
27E0
2520
27E0
2420
ENDCHAR
STARTCHAR uni5106
COMMENT "Index: 1 Size: 13"
ENCODING 20742
SWIDTH 500 0
DWIDTH 6 0
BBX 12 12 0 -1
BITMAP
2A40
2A40
5F70
4AA0
CFA0
51A0
5DA0
55A0
5D60
4140
46A0
4110
ENDCHAR
STARTCHAR uni5107
COMMENT "Index: 1 Size: 13"
ENCODING 20743
SWIDTH 500 0
DWIDTH 6 0
BBX 12 12 0 -1
BITMAP
17F0
1550
27F0
2000
6FF0
A000
27E0
2420
27E0
2290
2660
2330
ENDCHAR
STARTCHAR uni5108
COMMENT "Index: 1 Size: 13"
ENCODING 20744
SWIDTH 500 0
DWIDTH 6 0
BBX 12 12 0 -1
BITMAP
1100
1280
27C0
3830
6FE0
AAA0
2AA0
2FE0
2440
27C0
2440
27C0
ENDCHAR
STARTCHAR uni5109
COMMENT "Index: 1 Size: 13"
ENCODING 20745
SWIDTH 500 0
DWIDTH 6 0
BBX 12 12 0 -1
BITMAP
1100
1280
2440
2BB0
7000
AEE0
2AA0
2EE0
2440
2440
2AA0
3110
ENDCHAR
STARTCHAR uni510A
COMMENT "Index: 1 Size: 13"
ENCODING 20746
SWIDTH 500 0
DWIDTH 6 0
BBX 12 12 0 -1
BITMAP
1440
1FF0
2440
2EE0
7550
A440
2FF0
2490
2480
24E0
2A80
31F0
ENDCHAR
STARTCHAR uni510B
COMMENT "Index: 1 Size: 13"
ENCODING 20747
SWIDTH 500 0
DWIDTH 6 0
BBX 12 12 0 -1
BITMAP
13C0
1440
27F0
2D20
6690
A7F0
2400
27E0
2400
2BE0
2A20
33E0
ENDCHAR
STARTCHAR uni510C
COMMENT "Index: 1 Size: 13"
ENCODING 20748
SWIDTH 500 0
DWIDTH 6 0
BBX 12 12 0 -1
BITMAP
1440
1F40
2970
2F90
6950
AF50
2450
3FA0
2820
2F20
2950
3690
ENDCHAR
STARTCHAR uni5110
COMMENT "Index: 1 Size: 13"
ENCODING 20752
SWIDTH 500 0
DWIDTH 6 0
BBX 12 12 0 -1
BITMAP
2100
2FF0
2810
27E0
6540
A980
3FE0
2420
27E0
2420
27E0
2C30
ENDCHAR
STARTCHAR uni5111
COMMENT "Index: 1 Size: 13"
ENCODING 20753
SWIDTH 500 0
DWIDTH 6 0
BBX 12 12 0 -1
BITMAP
17E0
1420
27E0
2420
67E0
A220
2440
2AA0
2550
2FF0
2420
2A50
ENDCHAR
STARTCHAR uni5112
COMMENT "Index: 1 Size: 13"
ENCODING 20754
SWIDTH 500 0
DWIDTH 6 0
BBX 12 12 0 -1
BITMAP
27F0
2100
3FF0
3550
6380
A540
2FF0
2100
2FF0
2A50
2A50
2A70
ENDCHAR
STARTCHAR uni5113
COMMENT "Index: 1 Size: 13"
ENCODING 20755
SWIDTH 500 0
DWIDTH 6 0
BBX 12 12 0 -1
BITMAP
1080
17F0
2080
27E0
6420
BFF0
3250
2FE0
2100
2FE0
2100
3FF0
ENDCHAR
STARTCHAR uni5114
COMMENT "Index: 1 Size: 13"
ENCODING 20756
SWIDTH 500 0
DWIDTH 6 0
BBX 12 12 0 -1
BITMAP
1100
1FF0
2100
2FF0
6110
AFE0
2000
2FF0
2020
2FF0
2AA0
2EA0
ENDCHAR
STARTCHAR uni5115
COMMENT "Index: 1 Size: 13"
ENCODING 20757
SWIDTH 500 0
DWIDTH 6 0
BBX 12 12 0 -1
BITMAP
1100
1FF0
2AA0
2540
6D60
B550
2420
27E0
2420
27E0
2820
3020
ENDCHAR
STARTCHAR uni5117
COMMENT "Index: 1 Size: 13"
ENCODING 20759
SWIDTH 500 0
DWIDTH 6 0
BBX 12 12 0 -1
BITMAP
2AF0
2C20
4940
4F20
C8F0
5E50
6440
5F70
4540
4B40
5140
62F0
ENDCHAR
STARTCHAR uni5118
COMMENT "Index: 1 Size: 13"
ENCODING 20760
SWIDTH 500 0
DWIDTH 6 0
BBX 12 12 0 -1
BITMAP
17E0
1120
2FF0
2120
67E0
A100
2FF0
2950
3FE0
2AA0
2AA0
3FF0
ENDCHAR
STARTCHAR uni511A
COMMENT "Index: 1 Size: 13"
ENCODING 20762
SWIDTH 500 0
DWIDTH 6 0
BBX 12 12 0 -1
BITMAP
1240
1FF0
2240
2FE0
6AA0
AFF0
2910
2BD0
2640
2A80
2100
2E00
ENDCHAR
STARTCHAR uni511C
COMMENT "Index: 1 Size: 13"
ENCODING 20764
SWIDTH 500 0
DWIDTH 6 0
BBX 12 12 0 -1
BITMAP
1100
1FF0
2A90
22A0
6FE0
AAA0
3FF0
2000
2FF0
2080
2080
2780
ENDCHAR
STARTCHAR uni511F
COMMENT "Index: 1 Size: 13"
ENCODING 20767
SWIDTH 500 0
DWIDTH 6 0
BBX 12 12 0 -1
BITMAP
2920
2540
2FF0
2A50
67E0
A420
27E0
2420
27E0
2420
27E0
2C30
ENDCHAR
STARTCHAR uni5120
COMMENT "Index: 1 Size: 13"
ENCODING 20768
SWIDTH 500 0
DWIDTH 6 0
BBX 12 12 0 -1
BITMAP
12A0
1540
22A0
2FF0
6A90
A910
2FF0
2B60
2DA0
2B60
2920
2D90
ENDCHAR
STARTCHAR uni5121
COMMENT "Index: 1 Size: 13"
ENCODING 20769
SWIDTH 500 0
DWIDTH 6 0
BBX 12 12 0 -1
BITMAP
2FE0
2920
4FE0
4920
CFE0
4820
5FF0
5550
5FF0
5550
5FF0
5010
ENDCHAR
STARTCHAR uni5122
COMMENT "Index: 1 Size: 13"
ENCODING 20770
SWIDTH 500 0
DWIDTH 6 0
BBX 12 12 0 -1
BITMAP
11E0
1100
2FF0
29C0
6F10
ABF0
2AA0
2BE0
2AA0
2BE0
3550
29E0
ENDCHAR
STARTCHAR uni5124
COMMENT "Index: 1 Size: 13"
ENCODING 20772
SWIDTH 500 0
DWIDTH 6 0
BBX 12 12 0 -1
BITMAP
17E0
1420
27E0
2420
6FF0
A240
2FF0
2520
3B50
2180
2340
2D30
ENDCHAR
STARTCHAR uni5125
COMMENT "Index: 1 Size: 13"
ENCODING 20773
SWIDTH 500 0
DWIDTH 6 0
BBX 12 12 0 -1
BITMAP
1100
1FF0
2100
3FF0
6AA0
AFE0
2420
27E0
2420
27E0
2240
2C30
ENDCHAR
STARTCHAR uni5126
COMMENT "Index: 1 Size: 13"
ENCODING 20774
SWIDTH 500 0
DWIDTH 6 0
BBX 12 12 0 -1
BITMAP
2100
3FF0
5240
5FF0
D250
5FF0
5440
5770
5440
5770
5220
5550
ENDCHAR
STARTCHAR uni5129
COMMENT "Index: 1 Size: 13"
ENCODING 20777
SWIDTH 500 0
DWIDTH 6 0
BBX 12 12 0 -1
BITMAP
21F0
5E10
53F0
DE10
53F0
5E80
52F0
5350
5EB0
4950
4A90
5460
ENDCHAR
STARTCHAR uni512A
COMMENT "Index: 1 Size: 13"
ENCODING 20778
SWIDTH 500 0
DWIDTH 6 0
BBX 12 12 0 -1
BITMAP
1FF0
2100
27E0
2420
67E0
A420
2FF0
2A90
27E0
2A40
2180
2E70
ENDCHAR
STARTCHAR uni512D
COMMENT "Index: 1 Size: 13"
ENCODING 20781
SWIDTH 500 0
DWIDTH 6 0
BBX 12 12 0 -1
BITMAP
49E0
7F20
55E0
D520
7FE0
4920
7F20
49E0
5C40
6AD0
4950
5A70
ENDCHAR
STARTCHAR uni512E
COMMENT "Index: 1 Size: 13"
ENCODING 20782
SWIDTH 500 0
DWIDTH 6 0
BBX 12 12 0 -1
BITMAP
2FF0
2890
2B60
2FF0
6920
ABF0
2D20
2880
2A80
32F0
2280
2FF0
ENDCHAR
STARTCHAR uni5130
COMMENT "Index: 1 Size: 13"
ENCODING 20784
SWIDTH 500 0
DWIDTH 6 0
BBX 12 12 0 -1
BITMAP
1240
1FF0
2240
2A00
6F80
A480
27C0
2440
2FF0
32B0
2550
2030
ENDCHAR
STARTCHAR uni5131
COMMENT "Index: 1 Size: 13"
ENCODING 20785
SWIDTH 500 0
DWIDTH 6 0
BBX 12 12 0 -1
BITMAP
2480
3FF0
2A80
7FF0
A010
2EF0
2A80
2EF0
2A80
2EF0
2A80
2AF0
ENDCHAR
STARTCHAR uni5132
COMMENT "Index: 1 Size: 13"
ENCODING 20786
SWIDTH 500 0
DWIDTH 6 0
BBX 12 12 0 -1
BITMAP
2880
2890
5DE0
40A0
DDF0
4080
5DE0
4320
5DE0
5520
5DE0
5520
ENDCHAR
STARTCHAR uni5133
COMMENT "Index: 1 Size: 13"
ENCODING 20787
SWIDTH 500 0
DWIDTH 6 0
BBX 12 12 0 -1
BITMAP
2480
2FC0
4840
5FC0
CA90
4FF0
4480
5FC0
4940
4FC0
4550
59F0
ENDCHAR
STARTCHAR uni5134
COMMENT "Index: 1 Size: 13"
ENCODING 20788
SWIDTH 500 0
DWIDTH 6 0
BBX 12 12 0 -1
BITMAP
2100
3FF0
2A90
2EF0
6240
AFF0
2240
3FF0
2280
2CA0
2740
2430
ENDCHAR
STARTCHAR uni5135
COMMENT "Index: 1 Size: 13"
ENCODING 20789
SWIDTH 500 0
DWIDTH 6 0
BBX 12 12 0 -1
BITMAP
2200
23F0
4540
5220
D7F0
5550
57F0
5080
53E0
5080
57F0
4550
ENDCHAR
STARTCHAR uni5137
COMMENT "Index: 1 Size: 13"
ENCODING 20791
SWIDTH 500 0
DWIDTH 6 0
BBX 12 12 0 -1
BITMAP
2EF0
2000
3FF0
3550
6100
AFF0
2A50
2FF0
2C80
37E0
2490
26F0
ENDCHAR
STARTCHAR uni5138
COMMENT "Index: 1 Size: 13"
ENCODING 20792
SWIDTH 500 0
DWIDTH 6 0
BBX 12 12 0 -1
BITMAP
1FF0
2A50
2FF0
6480
A940
35F0
2940
33F0
3D40
21F0
2B40
35F0
ENDCHAR
STARTCHAR uni5139
COMMENT "Index: 1 Size: 13"
ENCODING 20793
SWIDTH 500 0
DWIDTH 6 0
BBX 12 12 0 -1
BITMAP
2880
2EE0
3540
2FF0
6AA0
B7F0
2420
27E0
2420
27E0
2240
2C30
ENDCHAR
STARTCHAR uni513A
COMMENT "Index: 1 Size: 13"
ENCODING 20794
SWIDTH 500 0
DWIDTH 6 0
BBX 12 12 0 -1
BITMAP
5480
7F20
5520
5DF0
C920
7FF0
4920
7FF0
4920
7FF0
5520
63F0
ENDCHAR
STARTCHAR uni513B
COMMENT "Index: 1 Size: 13"
ENCODING 20795
SWIDTH 500 0
DWIDTH 6 0
BBX 12 12 0 -1
BITMAP
0540
1FF0
3450
2FE0
6AA0
A920
2FE0
2100
27E0
2100
2FF0
2950
ENDCHAR
STARTCHAR uni513C
COMMENT "Index: 1 Size: 13"
ENCODING 20796
SWIDTH 500 0
DWIDTH 6 0
BBX 12 12 0 -1
BITMAP
3DE0
5520
5FF0
D480
5480
5FF0
52A0
5FA0
52A0
5E40
52A0
4290
ENDCHAR
STARTCHAR uni513D
COMMENT "Index: 1 Size: 13"
ENCODING 20797
SWIDTH 500 0
DWIDTH 6 0
BBX 12 12 0 -1
BITMAP
2FE0
2920
2FE0
2920
7FF0
A550
3FF0
2480
2220
2FD0
2540
2B30
ENDCHAR
STARTCHAR uni513F
COMMENT "Index: 1 Size: 13"
ENCODING 20799
SWIDTH 500 0
DWIDTH 6 0
BBX 12 12 0 -1
BITMAP
1100
1100
1100
1100
1100
1100
1100
1100
2100
2110
4110
80F0
ENDCHAR
STARTCHAR uni5140
COMMENT "Index: 1 Size: 13"
ENCODING 20800
SWIDTH 500 0
DWIDTH 6 0
BBX 12 12 0 -1
BITMAP
0020
FFF0
0900
0900
0900
0900
0900
0900
1110
2110
4110
80F0
ENDCHAR
STARTCHAR uni5141
COMMENT "Index: 1 Size: 13"
ENCODING 20801
SWIDTH 500 0
DWIDTH 6 0
BBX 12 12 0 -1
BITMAP
0600
0800
1080
2040
7FE0
1120
1100
1100
1110
1110
2110
C0F0
ENDCHAR
STARTCHAR uni5143
COMMENT "Index: 1 Size: 13"
ENCODING 20803
SWIDTH 500 0
DWIDTH 6 0
BBX 12 12 0 -1
BITMAP
0080
3FC0
0000
0020
FFF0
0900
0900
0900
1110
2110
4110
80F0
ENDCHAR
STARTCHAR uni5144
COMMENT "Index: 1 Size: 13"
ENCODING 20804
SWIDTH 500 0
DWIDTH 6 0
BBX 12 12 0 -1
BITMAP
3FC0
2040
2040
2040
2040
3FC0
2940
0900
0900
1110
2110
C0F0
ENDCHAR
STARTCHAR uni5145
COMMENT "Index: 1 Size: 13"
ENCODING 20805
SWIDTH 500 0
DWIDTH 6 0
BBX 12 12 0 -1
BITMAP
0600
0220
FFF0
0800
1040
7FE0
2920
0900
0910
1110
2110
C0F0
ENDCHAR
STARTCHAR uni5146
COMMENT "Index: 1 Size: 13"
ENCODING 20806
SWIDTH 500 0
DWIDTH 6 0
BBX 12 12 0 -1
BITMAP
0900
0900
4920
2940
2980
0900
19C0
6920
8900
1110
2110
C0F0
ENDCHAR
STARTCHAR uni5147
COMMENT "Index: 1 Size: 13"
ENCODING 20807
SWIDTH 500 0
DWIDTH 6 0
BBX 12 12 0 -1
BITMAP
1100
4A40
4440
4A40
5140
4040
7FC0
1200
1220
2220
4230
81E0
ENDCHAR
STARTCHAR uni5148
COMMENT "Index: 1 Size: 13"
ENCODING 20808
SWIDTH 500 0
DWIDTH 6 0
BBX 12 12 0 -1
BITMAP
0200
2200
2200
3FE0
4200
0200
FFF0
0900
0900
1110
2110
C0F0
ENDCHAR
STARTCHAR uni5149
COMMENT "Index: 1 Size: 13"
ENCODING 20809
SWIDTH 500 0
DWIDTH 6 0
BBX 12 12 0 -1
BITMAP
0200
2260
1240
1280
0200
FFF0
0900
0900
0900
1110
2110
C0F0
ENDCHAR
STARTCHAR uni514B
COMMENT "Index: 1 Size: 13"
ENCODING 20811
SWIDTH 500 0
DWIDTH 6 0
BBX 12 12 0 -1
BITMAP
0420
FFF0
0400
3FC0
2040
2040
3FC0
2540
0510
0910
3110
C0F0
ENDCHAR
STARTCHAR uni514C
COMMENT "Index: 1 Size: 13"
ENCODING 20812
SWIDTH 500 0
DWIDTH 6 0
BBX 12 12 0 -1
BITMAP
20C0
1880
0900
3FC0
2040
2040
3FC0
2540
0500
0910
3110
C0F0
ENDCHAR
STARTCHAR uni514D
COMMENT "Index: 1 Size: 13"
ENCODING 20813
SWIDTH 500 0
DWIDTH 6 0
BBX 12 12 0 -1
BITMAP
1100
1F80
2100
4200
BFE0
2220
2220
3FE0
2520
0910
3110
C0F0
ENDCHAR
STARTCHAR uni5151
COMMENT "Index: 1 Size: 13"
ENCODING 20817
SWIDTH 500 0
DWIDTH 6 0
BBX 12 12 0 -1
BITMAP
20C0
1880
0900
3FC0
2040
2040
3FC0
2540
0500
0910
3110
C0F0
ENDCHAR
STARTCHAR uni5152
COMMENT "Index: 1 Size: 13"
ENCODING 20818
SWIDTH 500 0
DWIDTH 6 0
BBX 12 12 0 -1
BITMAP
0800
71E0
4020
79E0
4020
4020
7FE0
5120
1100
1110
2110
C0F0
ENDCHAR
STARTCHAR uni5154
COMMENT "Index: 1 Size: 13"
ENCODING 20820
SWIDTH 500 0
DWIDTH 6 0
BBX 12 12 0 -1
BITMAP
0800
0F80
1100
3FE0
6220
A220
3FE0
0900
0940
0930
3110
C0F0
ENDCHAR
STARTCHAR uni5155
COMMENT "Index: 1 Size: 13"
ENCODING 20821
SWIDTH 500 0
DWIDTH 6 0
BBX 12 12 0 -1
BITMAP
79E0
4920
4920
4F20
4020
4020
7FE0
0900
0900
1110
2110
C0F0
ENDCHAR
STARTCHAR uni5156
COMMENT "Index: 1 Size: 13"
ENCODING 20822
SWIDTH 500 0
DWIDTH 6 0
BBX 11 12 0 -1
BITMAP
0400
FFE0
0000
2480
4840
9100
3F80
1280
1200
1220
2220
C1E0
ENDCHAR
STARTCHAR uni5157
COMMENT "Index: 1 Size: 13"
ENCODING 20823
SWIDTH 500 0
DWIDTH 6 0
BBX 11 12 0 -1
BITMAP
0400
FFE0
1100
2080
7F40
A100
2100
3F00
1200
1220
2220
C1E0
ENDCHAR
STARTCHAR uni5159
COMMENT "Index: 1 Size: 13"
ENCODING 20825
SWIDTH 500 0
DWIDTH 6 0
BBX 12 12 0 -1
BITMAP
1040
1040
7C40
11F0
7C40
4440
4440
7C40
2840
2850
4810
87F0
ENDCHAR
STARTCHAR uni515A
COMMENT "Index: 1 Size: 13"
ENCODING 20826
SWIDTH 500 0
DWIDTH 6 0
BBX 11 12 0 -1
BITMAP
2480
1500
FFE0
8020
BFA0
2080
2080
3F80
0A00
1220
2220
C1E0
ENDCHAR
STARTCHAR uni515B
COMMENT "Index: 1 Size: 13"
ENCODING 20827
SWIDTH 500 0
DWIDTH 6 0
BBX 12 12 0 -1
BITMAP
1030
7DC0
1040
1040
7DF0
4440
4440
7C40
2840
2850
4810
87F0
ENDCHAR
STARTCHAR uni515C
COMMENT "Index: 1 Size: 13"
ENCODING 20828
SWIDTH 500 0
DWIDTH 6 0
BBX 11 12 0 -1
BITMAP
2400
DEC0
9240
9E40
9240
FFC0
9240
1200
1200
1220
2220
C1E0
ENDCHAR
STARTCHAR uni515D
COMMENT "Index: 1 Size: 13"
ENCODING 20829
SWIDTH 500 0
DWIDTH 6 0
BBX 12 12 0 -1
BITMAP
1040
7D40
1120
7E10
47E0
44A0
7CA0
2920
2920
2A50
4810
87F0
ENDCHAR
STARTCHAR uni515E
COMMENT "Index: 1 Size: 13"
ENCODING 20830
SWIDTH 500 0
DWIDTH 6 0
BBX 12 12 0 -1
BITMAP
2040
FB80
2100
2120
FBC0
8920
8BC0
F910
51F0
5000
9010
8FF0
ENDCHAR
STARTCHAR uni515F
COMMENT "Index: 1 Size: 13"
ENCODING 20831
SWIDTH 500 0
DWIDTH 6 0
BBX 12 12 0 -1
BITMAP
1140
5140
7DF0
9240
1240
7DF0
2840
2840
2AC0
4D50
5250
8470
ENDCHAR
STARTCHAR uni5161
COMMENT "Index: 1 Size: 13"
ENCODING 20833
SWIDTH 500 0
DWIDTH 6 0
BBX 12 12 0 -1
BITMAP
2000
FBE0
2080
FBE0
8A20
8A20
FBE0
5220
5220
53F0
9010
8FF0
ENDCHAR
STARTCHAR uni5162
COMMENT "Index: 1 Size: 13"
ENCODING 20834
SWIDTH 500 0
DWIDTH 6 0
BBX 12 12 0 -1
BITMAP
2080
FBF0
2080
FBE0
8A20
8A20
FBE0
5080
5580
5A90
A290
8C70
ENDCHAR
STARTCHAR uni5163
COMMENT "Index: 1 Size: 13"
ENCODING 20835
SWIDTH 500 0
DWIDTH 6 0
BBX 12 12 0 -1
BITMAP
27F0
FC00
27E0
24A0
F7E0
94A0
97E0
F480
2BE0
6890
A090
9FF0
ENDCHAR
STARTCHAR uni5165
COMMENT "Index: 1 Size: 13"
ENCODING 20837
SWIDTH 500 0
DWIDTH 6 0
BBX 12 12 0 -1
BITMAP
0C00
0200
0200
0200
0200
0500
0500
0880
0880
1040
2030
C010
ENDCHAR
STARTCHAR uni5167
COMMENT "Index: 1 Size: 13"
ENCODING 20839
SWIDTH 500 0
DWIDTH 6 0
BBX 12 12 0 -1
BITMAP
0400
8420
FFF0
8420
8420
8A20
8920
90A0
A020
8020
80E0
8040
ENDCHAR
STARTCHAR uni5168
COMMENT "Index: 1 Size: 13"
ENCODING 20840
SWIDTH 500 0
DWIDTH 6 0
BBX 11 12 0 -1
BITMAP
0400
0A00
1100
2080
4040
BFA0
0400
0480
3FC0
0400
0440
FFE0
ENDCHAR
STARTCHAR uni5169
COMMENT "Index: 1 Size: 13"
ENCODING 20841
SWIDTH 500 0
DWIDTH 6 0
BBX 12 12 0 -1
BITMAP
FFF0
0200
0200
FFF0
8210
9290
9290
9290
AB50
C630
8210
8070
ENDCHAR
STARTCHAR uni516B
COMMENT "Index: 1 Size: 13"
ENCODING 20843
SWIDTH 500 0
DWIDTH 6 0
BBX 12 12 0 -1
BITMAP
0100
0100
0100
0900
0900
0880
1080
1040
2040
2020
4030
8010
ENDCHAR
STARTCHAR uni516C
COMMENT "Index: 1 Size: 13"
ENCODING 20844
SWIDTH 500 0
DWIDTH 6 0
BBX 12 12 0 -1
BITMAP
0100
0900
0880
1080
2040
4420
8410
0800
0880
13C0
FC20
2020
ENDCHAR
STARTCHAR uni516D
COMMENT "Index: 1 Size: 13"
ENCODING 20845
SWIDTH 500 0
DWIDTH 6 0
BBX 12 12 0 -1
BITMAP
0400
0200
0220
FFF0
0000
0000
0880
0880
1040
2020
4030
8010
ENDCHAR
STARTCHAR uni516E
COMMENT "Index: 1 Size: 13"
ENCODING 20846
SWIDTH 500 0
DWIDTH 6 0
BBX 12 12 0 -1
BITMAP
0900
0900
1080
2040
5FA0
8410
0800
3FC0
0040
0040
0480
0300
ENDCHAR
STARTCHAR uni5170
COMMENT "Index: 1 Size: 13"
ENCODING 20848
SWIDTH 500 0
DWIDTH 6 0
BBX 12 12 0 -1
BITMAP
10C0
0880
0900
7FE0
0000
0000
0080
3FC0
0000
0000
0020
FFF0
ENDCHAR
STARTCHAR uni5171
COMMENT "Index: 1 Size: 13"
ENCODING 20849
SWIDTH 500 0
DWIDTH 6 0
BBX 12 12 0 -1
BITMAP
1080
1080
1080
7FE0
1080
1080
1080
FFF0
0000
0900
30C0
C030
ENDCHAR
STARTCHAR uni5173
COMMENT "Index: 1 Size: 13"
ENCODING 20851
SWIDTH 500 0
DWIDTH 6 0
BBX 12 12 0 -1
BITMAP
10C0
0880
0500
7FE0
0200
0220
FFF0
0200
0500
0880
3070
C020
ENDCHAR
STARTCHAR uni5174
COMMENT "Index: 1 Size: 13"
ENCODING 20852
SWIDTH 500 0
DWIDTH 6 0
BBX 12 12 0 -1
BITMAP
0820
4420
2440
1240
1280
0020
FFF0
0000
0900
1080
2070
C020
ENDCHAR
STARTCHAR uni5175
COMMENT "Index: 1 Size: 13"
ENCODING 20853
SWIDTH 500 0
DWIDTH 6 0
BBX 11 12 0 -1
BITMAP
0180
3E00
2040
3FE0
2200
2200
2240
FFE0
0000
1100
2080
C060
ENDCHAR
STARTCHAR uni5176
COMMENT "Index: 1 Size: 13"
ENCODING 20854
SWIDTH 500 0
DWIDTH 6 0
BBX 12 12 0 -1
BITMAP
1040
1040
FFF0
1040
1FC0
1040
1FC0
1040
FFF0
0900
30C0
C030
ENDCHAR
STARTCHAR uni5177
COMMENT "Index: 1 Size: 13"
ENCODING 20855
SWIDTH 500 0
DWIDTH 6 0
BBX 12 12 0 -1
BITMAP
3FC0
2040
3FC0
2040
3FC0
2040
3FC0
2040
FFF0
0900
30C0
C030
ENDCHAR
STARTCHAR uni5178
COMMENT "Index: 1 Size: 13"
ENCODING 20856
SWIDTH 500 0
DWIDTH 6 0
BBX 12 12 0 -1
BITMAP
0900
0900
7FE0
4920
4920
7FE0
4920
4920
FFF0
0900
30C0
C030
ENDCHAR
STARTCHAR uni5179
COMMENT "Index: 1 Size: 13"
ENCODING 20857
SWIDTH 500 0
DWIDTH 6 0
BBX 11 12 0 -1
BITMAP
2100
1240
FFE0
2100
2100
4A40
5280
3380
2100
4240
5AE0
E720
ENDCHAR
STARTCHAR uni517B
COMMENT "Index: 1 Size: 13"
ENCODING 20859
SWIDTH 500 0
DWIDTH 6 0
BBX 12 12 0 -1
BITMAP
1080
0920
3FF0
0400
3FE0
0800
FFF0
28A0
4890
0880
1080
2080
ENDCHAR
STARTCHAR uni517C
COMMENT "Index: 1 Size: 13"
ENCODING 20860
SWIDTH 500 0
DWIDTH 6 0
BBX 12 12 0 -1
BITMAP
1080
0920
FFF0
0900
7FC0
0940
FFF0
0940
7FC0
2940
4920
8910
ENDCHAR
STARTCHAR uni517D
COMMENT "Index: 1 Size: 13"
ENCODING 20861
SWIDTH 500 0
DWIDTH 6 0
BBX 11 12 0 -1
BITMAP
1100
7FC0
4440
7FC0
4440
7FC0
0000
FFE0
0000
3F80
2080
3F80
ENDCHAR
STARTCHAR uni5180
COMMENT "Index: 1 Size: 13"
ENCODING 20864
SWIDTH 500 0
DWIDTH 6 0
BBX 12 12 0 -1
BITMAP
0920
79C0
0910
FFF0
2240
3FC0
2240
7FF0
0880
FFF0
0880
F070
ENDCHAR
STARTCHAR uni5181
COMMENT "Index: 1 Size: 13"
ENCODING 20865
SWIDTH 500 0
DWIDTH 6 0
BBX 12 12 0 -1
BITMAP
97E0
5420
27E0
FD40
A7E0
FD40
A7F0
FE80
26A0
FA40
2320
2220
ENDCHAR
STARTCHAR uni5182
COMMENT "Index: 1 Size: 13"
ENCODING 20866
SWIDTH 500 0
DWIDTH 6 0
BBX 11 12 0 -1
BITMAP
8040
FFE0
8040
8040
8040
8040
8040
8040
8040
8240
81C0
8080
ENDCHAR
STARTCHAR uni5185
COMMENT "Index: 1 Size: 13"
ENCODING 20869
SWIDTH 500 0
DWIDTH 6 0
BBX 12 12 0 -1
BITMAP
0400
8420
FFF0
8420
8420
8420
8620
8920
90A0
A020
80E0
8040
ENDCHAR
STARTCHAR uni5187
COMMENT "Index: 1 Size: 13"
ENCODING 20871
SWIDTH 500 0
DWIDTH 6 0
BBX 12 12 0 -1
BITMAP
0400
0420
FFF0
0800
1FE0
2820
4820
8820
0820
0920
08E0
0840
ENDCHAR
STARTCHAR uni5188
COMMENT "Index: 1 Size: 13"
ENCODING 20872
SWIDTH 500 0
DWIDTH 6 0
BBX 12 12 0 -1
BITMAP
FFF0
8010
9090
8890
8510
8210
8510
8890
9090
A010
8070
8020
ENDCHAR
STARTCHAR uni5189
COMMENT "Index: 1 Size: 13"
ENCODING 20873
SWIDTH 500 0
DWIDTH 6 0
BBX 12 12 0 -1
BITMAP
0200
0200
3FE0
2220
3FE0
2220
2220
FFF0
2020
2020
20E0
2040
ENDCHAR
STARTCHAR uni518A
COMMENT "Index: 1 Size: 13"
ENCODING 20874
SWIDTH 500 0
DWIDTH 6 0
BBX 12 12 0 -1
BITMAP
7FE0
4920
4920
4920
4920
FFF0
4920
4920
4920
4920
4920
4060
ENDCHAR
STARTCHAR uni518C
COMMENT "Index: 1 Size: 13"
ENCODING 20876
SWIDTH 500 0
DWIDTH 6 0
BBX 12 12 0 -1
BITMAP
3DE0
2520
2520
2520
2520
FFF0
2520
2520
2520
2520
5EE0
8840
ENDCHAR
STARTCHAR uni518D
COMMENT "Index: 1 Size: 13"
ENCODING 20877
SWIDTH 500 0
DWIDTH 6 0
BBX 12 12 0 -1
BITMAP
FFF0
0200
0200
3FE0
2220
3FE0
2220
FFF0
2020
2020
21E0
2040
ENDCHAR
STARTCHAR uni518F
COMMENT "Index: 1 Size: 13"
ENCODING 20879
SWIDTH 500 0
DWIDTH 6 0
BBX 11 12 0 -1
BITMAP
FFE0
8020
8920
90A0
A060
DF20
9120
9120
9F20
9120
80E0
8040
ENDCHAR
STARTCHAR uni5191
COMMENT "Index: 1 Size: 13"
ENCODING 20881
SWIDTH 500 0
DWIDTH 6 0
BBX 10 12 0 -1
BITMAP
0400
FFC0
8440
FFC0
8440
FFC0
4080
7F80
4080
7F80
4080
4380
ENDCHAR
STARTCHAR uni5192
COMMENT "Index: 1 Size: 13"
ENCODING 20882
SWIDTH 500 0
DWIDTH 6 0
BBX 10 12 0 -1
BITMAP
FFC0
8040
BF40
8040
FFC0
4080
7F80
4080
7F80
4080
7F80
4080
ENDCHAR
STARTCHAR uni5193
COMMENT "Index: 1 Size: 13"
ENCODING 20883
SWIDTH 500 0
DWIDTH 6 0
BBX 11 12 0 -1
BITMAP
1100
7FE0
1100
7FC0
1100
FFE0
2480
3F80
2480
FFE0
2080
2180
ENDCHAR
STARTCHAR uni5194
COMMENT "Index: 1 Size: 13"
ENCODING 20884
SWIDTH 500 0
DWIDTH 6 0
BBX 11 12 0 -1
BITMAP
7F80
4080
7F80
4080
7F80
0000
F7C0
9100
97E0
F100
9100
0300
ENDCHAR
STARTCHAR uni5195
COMMENT "Index: 1 Size: 13"
ENCODING 20885
SWIDTH 500 0
DWIDTH 6 0
BBX 11 12 0 -1
BITMAP
7F80
4080
5E80
4080
5E80
2A00
7F80
A480
3F80
0A20
1220
E1E0
ENDCHAR
STARTCHAR uni5196
COMMENT "Index: 1 Size: 13"
ENCODING 20886
SWIDTH 500 0
DWIDTH 6 0
BBX 12 4 0 4
BITMAP
4020
7FF0
4020
8040
ENDCHAR
STARTCHAR uni5197
COMMENT "Index: 1 Size: 13"
ENCODING 20887
SWIDTH 500 0
DWIDTH 6 0
BBX 12 12 0 -1
BITMAP
4020
7FF0
4020
8F40
0900
0900
0900
0900
1110
1110
2110
C0F0
ENDCHAR
STARTCHAR uni5198
COMMENT "Index: 1 Size: 13"
ENCODING 20888
SWIDTH 500 0
DWIDTH 6 0
BBX 11 12 0 -1
BITMAP
0800
0800
FFC0
8840
8840
0800
0A00
0A00
0A00
1220
2220
C1E0
ENDCHAR
STARTCHAR uni5199
COMMENT "Index: 1 Size: 13"
ENCODING 20889
SWIDTH 500 0
DWIDTH 6 0
BBX 11 12 0 -1
BITMAP
FFE0
9020
9020
1F80
2000
2000
3FC0
0040
FE40
0040
0040
0180
ENDCHAR
STARTCHAR uni519B
COMMENT "Index: 1 Size: 13"
ENCODING 20891
SWIDTH 500 0
DWIDTH 6 0
BBX 11 12 0 -1
BITMAP
FFE0
8820
8820
3F80
1000
2400
4400
7FC0
0400
FFE0
0400
0400
ENDCHAR
STARTCHAR uni519C
COMMENT "Index: 1 Size: 13"
ENCODING 20892
SWIDTH 500 0
DWIDTH 6 0
BBX 11 12 0 -1
BITMAP
0200
0400
FFE0
8820
8A20
1240
1280
3100
D100
1080
1440
7820
ENDCHAR
STARTCHAR uni519E
COMMENT "Index: 1 Size: 13"
ENCODING 20894
SWIDTH 500 0
DWIDTH 6 0
BBX 11 12 0 -1
BITMAP
FFE0
8020
8420
2480
1500
FFE0
0E00
1500
2480
4440
8420
0400
ENDCHAR
STARTCHAR uni51A0
COMMENT "Index: 1 Size: 13"
ENCODING 20896
SWIDTH 500 0
DWIDTH 6 0
BBX 12 12 0 -1
BITMAP
7FF0
4010
8060
3C40
01F0
FE40
2940
2940
2840
28D0
4810
87F0
ENDCHAR
STARTCHAR uni51A2
COMMENT "Index: 1 Size: 13"
ENCODING 20898
SWIDTH 500 0
DWIDTH 6 0
BBX 12 12 0 -1
BITMAP
7FF0
4010
8020
7FC0
0820
3640
EA80
1380
F540
1D20
E930
0610
ENDCHAR
STARTCHAR uni51A4
COMMENT "Index: 1 Size: 13"
ENCODING 20900
SWIDTH 500 0
DWIDTH 6 0
BBX 12 12 0 -1
BITMAP
7FF0
4810
9FA0
2100
7FE0
A220
3FE0
2220
0680
0A50
3210
C1F0
ENDCHAR
STARTCHAR uni51A5
COMMENT "Index: 1 Size: 13"
ENCODING 20901
SWIDTH 500 0
DWIDTH 6 0
BBX 12 12 0 -1
BITMAP
7FF0
4010
BFE0
2040
3FC0
2040
3FC0
0200
FFF0
0900
30C0
C030
ENDCHAR
STARTCHAR uni51AA
COMMENT "Index: 1 Size: 13"
ENCODING 20906
SWIDTH 500 0
DWIDTH 6 0
BBX 12 12 0 -1
BITMAP
7FF0
4510
BFE0
1040
1FC0
1040
FFF0
1240
3FE0
D250
12C0
0200
ENDCHAR
STARTCHAR uni51AB
COMMENT "Index: 1 Size: 13"
ENCODING 20907
SWIDTH 500 0
DWIDTH 6 0
BBX 6 12 0 -1
BITMAP
40
34
14
08
08
10
10
E0
20
20
20
20
ENDCHAR
STARTCHAR uni51AC
COMMENT "Index: 1 Size: 13"
ENCODING 20908
SWIDTH 500 0
DWIDTH 6 0
BBX 12 12 0 -1
BITMAP
0880
0FC0
1880
2500
4200
0500
18C0
E230
0180
0C00
0300
0080
ENDCHAR
STARTCHAR uni51AF
COMMENT "Index: 1 Size: 13"
ENCODING 20911
SWIDTH 500 0
DWIDTH 6 0
BBX 12 12 0 -1
BITMAP
4FE0
2020
2220
1240
1440
27F0
2010
C010
4FD0
4010
4090
0060
ENDCHAR
STARTCHAR uni51B0
COMMENT "Index: 1 Size: 13"
ENCODING 20912
SWIDTH 500 0
DWIDTH 6 0
BBX 12 12 0 -1
BITMAP
0100
4100
2110
1F20
2540
2580
2540
C940
4920
5120
6710
0210
ENDCHAR
STARTCHAR uni51B1
COMMENT "Index: 1 Size: 13"
ENCODING 20913
SWIDTH 500 0
DWIDTH 6 0
BBX 12 12 0 -1
BITMAP
0020
4FF0
2200
0200
17C0
2440
2440
4840
CFC0
4080
4080
5FF0
ENDCHAR
STARTCHAR uni51B2
COMMENT "Index: 1 Size: 13"
ENCODING 20914
SWIDTH 500 0
DWIDTH 6 0
BBX 12 12 0 -1
BITMAP
0080
4080
2490
27F0
0C90
1490
1490
E7F0
2490
2080
2080
2080
ENDCHAR
STARTCHAR uni51B3
COMMENT "Index: 1 Size: 13"
ENCODING 20915
SWIDTH 500 0
DWIDTH 6 0
BBX 12 12 0 -1
BITMAP
4100
2100
07E0
1120
1120
2120
2FF0
C100
4280
4440
4820
5010
ENDCHAR
STARTCHAR uni51B5
COMMENT "Index: 1 Size: 13"
ENCODING 20917
SWIDTH 500 0
DWIDTH 6 0
BBX 12 12 0 -1
BITMAP
8FE0
4820
4820
0820
2FE0
2AA0
4280
C280
4280
4490
4890
1070
ENDCHAR
STARTCHAR uni51B6
COMMENT "Index: 1 Size: 13"
ENCODING 20918
SWIDTH 500 0
DWIDTH 6 0
BBX 11 12 0 -1
BITMAP
0100
8200
4400
4840
2FE0
2020
4FC0
C840
4840
4840
4FC0
0840
ENDCHAR
STARTCHAR uni51B7
COMMENT "Index: 1 Size: 13"
ENCODING 20919
SWIDTH 500 0
DWIDTH 6 0
BBX 12 12 0 -1
BITMAP
0100
4280
2440
2920
1090
1080
27E0
E020
2040
2380
2080
2040
ENDCHAR
STARTCHAR uni51B9
COMMENT "Index: 1 Size: 13"
ENCODING 20921
SWIDTH 500 0
DWIDTH 6 0
BBX 12 12 0 -1
BITMAP
4240
2220
27F0
0200
1200
2320
2540
4540
C880
48C0
5320
0410
ENDCHAR
STARTCHAR uni51BB
COMMENT "Index: 1 Size: 13"
ENCODING 20923
SWIDTH 500 0
DWIDTH 6 0
BBX 12 12 0 -1
BITMAP
4100
2FF0
2200
1280
1480
1FF0
2080
E2C0
22A0
24A0
2B90
3110
ENDCHAR
STARTCHAR uni51BC
COMMENT "Index: 1 Size: 13"
ENCODING 20924
SWIDTH 500 0
DWIDTH 6 0
BBX 12 12 0 -1
BITMAP
4080
2480
27E0
0480
1080
2FF0
2240
C240
4240
4450
4450
1830
ENDCHAR
STARTCHAR uni51BD
COMMENT "Index: 1 Size: 13"
ENCODING 20925
SWIDTH 500 0
DWIDTH 6 0
BBX 11 12 0 -1
BITMAP
8020
5F20
44A0
0EA0
2AA0
2AA0
46A0
C2A0
44A0
4820
50E0
0020
ENDCHAR
STARTCHAR uni51BE
COMMENT "Index: 1 Size: 13"
ENCODING 20926
SWIDTH 500 0
DWIDTH 6 0
BBX 12 12 0 -1
BITMAP
4100
2280
2240
0420
0BD0
2000
27E0
2420
C420
4420
47E0
0420
ENDCHAR
STARTCHAR uni51C0
COMMENT "Index: 1 Size: 13"
ENCODING 20928
SWIDTH 500 0
DWIDTH 6 0
BBX 12 12 0 -1
BITMAP
8200
43C0
4480
1FE0
2120
2FF0
2120
CFE0
4120
4100
4100
0700
ENDCHAR
ENDFONT
